<svg width="124" height="124" viewBox="0 0 124 124" fill="none" xmlns="http://www.w3.org/2000/svg">
<path d="M124 62C124 78.4434 117.468 94.2134 105.841 105.841C94.2134 117.468 78.4434 124 62 124C45.5566 124 29.7866 117.468 18.1594 105.841C6.53212 94.2134 0 78.4434 0 62C0 45.5566 6.53212 29.7866 18.1594 18.1594C29.7866 6.53212 45.5566 0 62 0C78.4434 0 94.2134 6.53212 105.841 18.1594C117.468 29.7866 124 45.5566 124 62ZM93.2325 38.5175C92.6789 37.9658 92.0198 37.5315 91.2945 37.2404C90.5692 36.9493 89.7926 36.8075 89.0113 36.8234C88.2299 36.8394 87.4598 37.0127 86.7469 37.3331C86.0341 37.6534 85.3932 38.1143 84.8625 38.688L57.9468 72.9818L41.726 56.7533C40.6241 55.7265 39.1668 55.1676 37.6609 55.1941C36.1551 55.2207 34.7184 55.8307 33.6534 56.8957C32.5885 57.9606 31.9785 59.3974 31.9519 60.9032C31.9253 62.409 32.4843 63.8664 33.511 64.9683L54.0175 85.4825C54.5699 86.0339 55.2278 86.4684 55.9518 86.7601C56.6758 87.0518 57.4511 87.1947 58.2315 87.1802C59.0119 87.1657 59.7815 86.9942 60.4941 86.6759C61.2068 86.3576 61.8481 85.899 62.3797 85.3275L93.3177 46.655C94.3725 45.5584 94.9551 44.0919 94.9407 42.5704C94.9262 41.049 94.3157 39.5938 93.2402 38.5175H93.2325Z" fill="#5BB84C"/>
</svg>
