<svg width="383" height="363" viewBox="0 0 383 363" fill="none" xmlns="http://www.w3.org/2000/svg">
<path d="M79.7946 72.6899C79.8485 73.0926 79.7818 73.5023 79.6029 73.8672C79.424 74.232 79.1409 74.5356 78.7895 74.7396C78.4381 74.9436 78.0341 75.0389 77.6285 75.0133C77.223 74.9877 76.8341 74.8424 76.5111 74.5958C76.1881 74.3493 75.9455 74.0125 75.8139 73.6281C75.6823 73.2436 75.6676 72.8288 75.7717 72.436C75.8759 72.0432 76.0941 71.6901 76.3989 71.4214C76.7037 71.1526 77.0813 70.9803 77.484 70.9261C78.0239 70.8558 78.5697 71.0018 79.0025 71.3321C79.4353 71.6625 79.72 72.1505 79.7946 72.6899V72.6899Z" fill="#7678ED"/>
<path d="M77.7399 108.512C77.7938 108.915 77.7271 109.325 77.5482 109.689C77.3693 110.054 77.0862 110.358 76.7348 110.562C76.3834 110.766 75.9794 110.861 75.5738 110.835C75.1683 110.81 74.7794 110.665 74.4564 110.418C74.1334 110.172 73.8908 109.835 73.7592 109.45C73.6276 109.066 73.6129 108.651 73.717 108.258C73.8212 107.865 74.0394 107.512 74.3442 107.244C74.649 106.975 75.0266 106.802 75.4293 106.748C75.6969 106.712 75.9689 106.729 76.2298 106.799C76.4907 106.868 76.7355 106.988 76.95 107.151C77.1646 107.315 77.3448 107.52 77.4803 107.753C77.6159 107.987 77.704 108.245 77.7399 108.512V108.512Z" fill="#263238"/>
<path d="M150.706 152.13C150.723 152.264 150.714 152.4 150.679 152.53C150.644 152.66 150.583 152.782 150.501 152.889C150.419 152.996 150.316 153.086 150.199 153.153C150.082 153.22 149.953 153.264 149.82 153.281C149.686 153.299 149.55 153.289 149.42 153.254C149.289 153.219 149.167 153.159 149.061 153.076C148.954 152.994 148.864 152.892 148.797 152.775C148.73 152.658 148.686 152.529 148.669 152.395C148.634 152.125 148.707 151.852 148.874 151.636C149.04 151.42 149.285 151.279 149.555 151.244C149.825 151.209 150.098 151.283 150.314 151.449C150.53 151.615 150.671 151.86 150.706 152.13V152.13Z" fill="#7678ED"/>
<path d="M114.585 35.8533C114.613 36.0558 114.58 36.262 114.491 36.4459C114.402 36.6297 114.26 36.7828 114.083 36.8858C113.906 36.9888 113.703 37.0371 113.499 37.0244C113.295 37.0118 113.099 36.9388 112.937 36.8147C112.774 36.6907 112.653 36.5212 112.587 36.3277C112.521 36.1343 112.513 35.9255 112.566 35.7281C112.619 35.5306 112.729 35.3532 112.883 35.2185C113.037 35.0838 113.227 34.9978 113.43 34.9714C113.7 34.9363 113.973 35.0092 114.189 35.1744C114.406 35.3396 114.548 35.5836 114.585 35.8533Z" fill="#7678ED"/>
<path d="M242.202 12.7743C242.237 13.0444 242.163 13.3174 241.997 13.5332C241.831 13.7491 241.586 13.89 241.316 13.9251C241.046 13.9602 240.773 13.8865 240.557 13.7203C240.341 13.5541 240.2 13.309 240.165 13.0388C240.13 12.7687 240.203 12.4957 240.37 12.2798C240.536 12.064 240.781 11.923 241.051 11.888C241.321 11.8529 241.594 11.9265 241.81 12.0928C242.026 12.259 242.167 12.5041 242.202 12.7743V12.7743Z" fill="#263238"/>
<path d="M126.226 90.9362C126.257 91.0759 126.259 91.2206 126.232 91.3612C126.205 91.5018 126.148 91.6352 126.067 91.7528C125.985 91.8704 125.879 91.9697 125.757 92.0444C125.635 92.1191 125.499 92.1675 125.357 92.1865C125.215 92.2056 125.07 92.1949 124.933 92.1551C124.795 92.1153 124.667 92.0472 124.557 91.9553C124.447 91.8634 124.358 91.7497 124.294 91.6213C124.231 91.4929 124.195 91.3526 124.189 91.2095C124.177 90.952 124.263 90.6996 124.428 90.5019C124.593 90.3042 124.827 90.1755 125.082 90.1413C125.338 90.107 125.597 90.1695 125.808 90.3167C126.02 90.4638 126.169 90.6848 126.226 90.9362V90.9362Z" fill="#263238"/>
<path d="M220.835 183.279C220.852 183.412 220.843 183.548 220.808 183.679C220.773 183.809 220.712 183.931 220.63 184.038C220.548 184.145 220.445 184.234 220.328 184.301C220.211 184.369 220.082 184.412 219.949 184.43C219.815 184.447 219.679 184.438 219.549 184.403C219.418 184.367 219.296 184.307 219.19 184.225C219.083 184.142 218.993 184.04 218.926 183.923C218.859 183.806 218.815 183.677 218.798 183.543C218.763 183.273 218.836 183 219.002 182.784C219.169 182.568 219.414 182.427 219.684 182.392C219.954 182.357 220.227 182.431 220.443 182.597C220.659 182.763 220.8 183.009 220.835 183.279V183.279Z" fill="#455A64"/>
<path d="M75.1272 189.214C75.1534 189.414 75.1195 189.618 75.0299 189.8C74.9402 189.981 74.7987 190.132 74.6234 190.233C74.448 190.334 74.2467 190.381 74.0448 190.367C73.8429 190.354 73.6495 190.281 73.4891 190.157C73.3287 190.034 73.2085 189.866 73.1437 189.674C73.0789 189.482 73.0724 189.276 73.125 189.08C73.1777 188.885 73.2871 188.71 73.4394 188.576C73.5917 188.443 73.7801 188.358 73.9807 188.332C74.1141 188.313 74.2498 188.322 74.38 188.356C74.5101 188.39 74.6321 188.45 74.7388 188.533C74.8455 188.615 74.9348 188.717 75.0015 188.834C75.0682 188.951 75.1109 189.08 75.1272 189.214V189.214Z" fill="#7678ED"/>
<path d="M44.1735 150.455C44.2274 150.857 44.1607 151.267 43.9818 151.632C43.8029 151.997 43.5198 152.301 43.1684 152.505C42.817 152.709 42.413 152.804 42.0074 152.778C41.6019 152.753 41.213 152.607 40.89 152.361C40.567 152.114 40.3244 151.777 40.1928 151.393C40.0612 151.008 40.0465 150.594 40.1506 150.201C40.2548 149.808 40.473 149.455 40.7778 149.186C41.0826 148.917 41.4602 148.745 41.8629 148.691C42.1306 148.654 42.403 148.67 42.6644 148.739C42.9258 148.807 43.171 148.927 43.3859 149.091C43.6007 149.255 43.7809 149.46 43.9161 149.694C44.0513 149.928 44.1388 150.187 44.1735 150.455V150.455Z" fill="#7678ED"/>
<path d="M169.384 12.6332C169.438 13.0359 169.372 13.4456 169.193 13.8105C169.014 14.1753 168.731 14.479 168.379 14.683C168.028 14.887 167.624 14.9822 167.218 14.9566C166.813 14.931 166.424 14.7857 166.101 14.5392C165.778 14.2926 165.535 13.9558 165.404 13.5714C165.272 13.1869 165.257 12.7721 165.362 12.3793C165.466 11.9865 165.684 11.6335 165.989 11.3647C166.294 11.0959 166.671 10.9236 167.074 10.8694C167.341 10.8334 167.613 10.8505 167.874 10.9197C168.135 10.9889 168.38 11.1088 168.595 11.2726C168.809 11.4364 168.989 11.6408 169.125 11.8743C169.26 12.1078 169.349 12.3656 169.384 12.6332Z" fill="#7678ED"/>
<path d="M308.909 219.286L311.819 218.307C311.819 218.307 309.835 217.284 309.835 214.101C309.835 210.917 312.56 209.691 311.387 206.79L308.141 207.672C308.506 208.429 308.708 209.254 308.734 210.094C308.76 210.934 308.609 211.77 308.291 212.549C307.462 214.365 306.651 216.543 308.909 219.286Z" fill="#7678ED"/>
<path d="M67.3408 212.399L64.4658 211.314C64.4658 211.314 65.3477 213.36 63.3546 215.829C61.3615 218.299 58.4425 217.593 57.543 220.539L60.6031 221.905C60.7983 221.087 61.1629 220.319 61.6732 219.651C62.1836 218.983 62.8285 218.429 63.5663 218.025C65.3918 217.117 67.3584 215.944 67.3408 212.399Z" fill="#7678ED"/>
<path d="M147.224 76.8964L144.313 75.8381C144.313 75.8381 145.195 77.8841 143.202 80.3534C141.209 82.8227 138.29 82.1172 137.391 85.0539L140.451 86.4296C140.644 85.611 141.008 84.8423 141.519 84.1737C142.029 83.5052 142.675 82.9517 143.414 82.5493C145.275 81.6586 147.241 80.468 147.224 76.8964Z" fill="#455A64"/>
<path d="M251.903 168.851L249.028 167.775C249.028 167.775 249.91 169.821 247.917 172.29C245.924 174.76 243.005 174.054 242.105 176.991L245.166 178.367C245.359 177.548 245.723 176.779 246.234 176.111C246.744 175.442 247.39 174.889 248.129 174.486C249.972 173.596 251.947 172.405 251.903 168.851Z" fill="#455A64"/>
<path d="M129.319 141.733L129.733 138.699C129.733 138.699 127.969 140.022 125.086 138.611C122.202 137.2 122.316 134.202 119.212 133.981L118.551 137.271C119.386 137.284 120.21 137.471 120.969 137.82C121.728 138.169 122.406 138.673 122.96 139.299C124.292 140.886 125.897 142.544 129.319 141.733Z" fill="#7678ED"/>
<path d="M267.565 201.666L267.979 198.624C267.979 198.624 266.215 199.946 263.332 198.535C260.448 197.124 260.563 194.126 257.458 193.905L256.797 197.195C257.633 197.209 258.457 197.397 259.217 197.748C259.976 198.099 260.654 198.604 261.206 199.232C262.485 200.811 264.108 202.469 267.565 201.666Z" fill="#455A64"/>
<path d="M255.147 61.1018L255.561 58.0681C255.561 58.0681 253.797 59.3909 250.914 57.9799C248.03 56.5689 248.145 53.5704 245.04 53.35L244.379 56.6394C245.214 56.6526 246.038 56.8398 246.797 57.1891C247.557 57.5383 248.235 58.0419 248.788 58.6678C250.085 60.2463 251.69 61.9043 255.147 61.1018Z" fill="#7678ED"/>
<path d="M310.988 75.6618L307.76 73.8981C307.76 73.8981 305.114 77.8401 308.289 79.8332C308.28 79.842 307.628 77.2757 310.988 75.6618Z" fill="#7678ED"/>
<path d="M308.345 84.6482L311.749 83.3871C311.749 83.3871 311.952 80.4681 308.266 79.8596C308.283 79.8419 310.594 82.4876 308.345 84.6482Z" fill="#7678ED"/>
<path d="M138.649 170.218L135.412 168.454C135.412 168.454 132.767 172.405 135.942 174.389C135.942 174.398 135.298 171.841 138.649 170.218Z" fill="#455A64"/>
<path d="M136.031 179.196L139.426 177.926C139.426 177.926 139.629 175.015 135.898 174.398C135.943 174.398 138.253 177.044 136.031 179.196Z" fill="#455A64"/>
<path d="M264.803 53.7028C264.749 53.2996 264.816 52.8895 264.995 52.5243C265.174 52.159 265.458 51.8552 265.81 51.6512C266.161 51.4472 266.566 51.3523 266.972 51.3784C267.378 51.4045 267.767 51.5505 268.09 51.7979C268.413 52.0454 268.655 52.383 268.786 52.7682C268.916 53.1534 268.93 53.5687 268.825 53.9615C268.719 54.3544 268.499 54.7072 268.193 54.9751C267.887 55.243 267.509 55.414 267.105 55.4666C266.566 55.5367 266.022 55.3905 265.59 55.0599C265.159 54.7294 264.876 54.2414 264.803 53.7028V53.7028Z" fill="#263238"/>
<path d="M297.284 103.697C297.23 103.294 297.297 102.885 297.475 102.52C297.654 102.155 297.937 101.851 298.289 101.647C298.64 101.443 299.044 101.348 299.45 101.374C299.855 101.399 300.244 101.544 300.567 101.791C300.89 102.038 301.133 102.374 301.264 102.759C301.396 103.143 301.411 103.558 301.307 103.951C301.203 104.344 300.984 104.697 300.679 104.965C300.375 105.234 299.997 105.407 299.594 105.461C299.327 105.497 299.055 105.48 298.794 105.411C298.533 105.341 298.288 105.221 298.074 105.058C297.859 104.894 297.679 104.689 297.543 104.456C297.408 104.222 297.32 103.965 297.284 103.697V103.697Z" fill="#7678ED"/>
<path d="M288.766 177.793C288.74 177.593 288.774 177.389 288.864 177.207C288.953 177.026 289.095 176.875 289.27 176.774C289.446 176.673 289.647 176.627 289.849 176.64C290.051 176.654 290.244 176.727 290.405 176.85C290.565 176.973 290.685 177.142 290.75 177.333C290.815 177.525 290.821 177.731 290.769 177.927C290.716 178.122 290.607 178.298 290.454 178.431C290.302 178.564 290.114 178.649 289.913 178.675C289.644 178.71 289.372 178.637 289.157 178.472C288.942 178.306 288.802 178.062 288.766 177.793V177.793Z" fill="#7678ED"/>
<path d="M169.568 144.89L169.145 147.933C169.145 147.933 170.908 146.61 173.792 148.021C176.676 149.432 176.57 152.43 179.674 152.651L180.327 149.361C179.491 149.348 178.668 149.161 177.908 148.812C177.149 148.462 176.471 147.959 175.917 147.333C174.621 145.746 173.025 144.088 169.568 144.89Z" fill="#455A64"/>
<path d="M338.62 179.522L333.726 180.906C333.726 180.906 331.389 174.786 336.248 173.058C336.248 173.022 334.59 176.321 338.62 179.522Z" fill="#455A64"/>
<path d="M337.816 166.593L342.022 169.336C342.022 169.336 341.405 173.331 336.246 173.058C336.246 173.022 340.162 170.191 337.816 166.593Z" fill="#455A64"/>
<path d="M251.022 130.154L246.102 131.574C246.102 131.574 243.773 125.453 248.624 123.725C248.624 123.689 246.975 126.952 251.022 130.154Z" fill="#263238"/>
<path d="M250.2 117.225L254.406 119.968C254.406 119.968 253.789 123.963 248.621 123.689C248.621 123.689 252.546 120.823 250.2 117.225Z" fill="#263238"/>
<path d="M83.8759 159.062L78.9726 160.447C78.9726 160.447 76.6444 154.326 81.4948 152.598C81.4948 152.598 79.8368 155.861 83.8759 159.062Z" fill="#263238"/>
<path d="M83.0747 146.134L87.2813 148.876C87.2813 148.876 86.6551 152.871 81.4961 152.598C81.4961 152.598 85.4205 149.732 83.0747 146.134Z" fill="#263238"/>
<path d="M289.613 120.303L292.85 122.067C292.85 122.067 295.495 118.116 292.321 116.132C292.321 116.123 292.964 118.68 289.613 120.303Z" fill="#455A64"/>
<path d="M292.23 111.29L288.826 112.56C288.826 112.56 288.632 115.47 292.354 116.088C292.318 116.123 290.008 113.477 292.23 111.29Z" fill="#455A64"/>
<path d="M177.09 104.782L180.326 106.545C180.326 106.545 182.972 102.603 179.797 100.61C179.797 100.602 180.467 103.168 177.09 104.782Z" fill="#7678ED"/>
<path d="M179.711 95.7953L176.306 97.0564C176.306 97.0564 176.112 99.9754 179.834 100.584C179.799 100.602 177.488 97.9647 179.711 95.7953Z" fill="#7678ED"/>
<path d="M205.445 221.412L205.983 225.045C205.983 225.045 210.71 224.772 210.393 221.059C210.454 221.059 208.752 223.114 205.445 221.412Z" fill="#7678ED"/>
<path d="M214.203 218.105L211.152 216.147C211.152 216.147 208.7 217.734 210.411 221.059C210.455 221.059 211.134 217.628 214.203 218.105Z" fill="#7678ED"/>
<path d="M0 362.461L47.7631 362.249L95.5262 362.17L191.052 362.02L286.579 362.17L334.342 362.249L382.105 362.461L334.342 362.681L286.579 362.752L191.052 362.902L95.5262 362.752L47.7631 362.673L0 362.461Z" fill="#263238"/>
<path d="M233.112 156.637C220.024 165.032 197.554 170.571 180.013 169.027C177.254 168.824 174.516 168.391 171.829 167.731C168.222 166.849 164.712 165.853 161.326 164.927C138.785 158.753 119.33 153.462 85.7833 162.607C45.7191 173.525 36.7855 178.481 36.0095 178.587L41.9269 172.14L34.0781 167.246C34.2633 167.246 43.3291 162.246 82.7319 151.504C119.295 141.548 141.157 147.518 164.307 153.832C167.658 154.714 171.115 155.693 174.625 156.593C175.986 156.934 177.363 157.205 178.752 157.404C195.437 159.803 219.601 153.876 229.575 145.939C230.623 145.14 231.489 144.127 232.115 142.968L232.283 155.314C232.503 155.499 232.732 155.967 233.112 156.637Z" fill="#7678ED"/>
<path opacity="0.2" d="M233.112 156.637C220.024 165.032 197.554 170.571 180.013 169.027C177.254 168.824 174.516 168.391 171.829 167.731C168.222 166.849 164.712 165.853 161.326 164.927C138.785 158.753 119.33 153.462 85.7833 162.607C45.7191 173.525 36.7855 178.481 36.0095 178.587L41.9269 172.14L34.0781 167.246C34.2633 167.246 43.3291 162.246 82.7319 151.504C119.295 141.548 141.157 147.518 164.307 153.832C167.658 154.714 171.115 155.693 174.625 156.593C175.986 156.934 177.363 157.205 178.752 157.404C195.437 159.803 219.601 153.876 229.575 145.939C230.623 145.14 231.489 144.127 232.115 142.968L232.283 155.314C232.503 155.499 232.732 155.967 233.112 156.637Z" fill="black"/>
<path d="M230.489 138.682C230.489 138.682 230.692 168.331 224.889 174.733C224.889 174.733 186.607 245.205 165.979 249.209C148.509 252.604 84.8984 205.502 84.8984 205.502L105.014 174.513C105.014 174.513 116.135 179.928 131.303 188.209C143.826 195.052 154.585 202.804 154.912 202.231C159.656 193.694 179.005 169.433 178.626 167.837C174.437 150.084 187.101 138.735 187.101 138.735L230.489 138.682Z" fill="#263238"/>
<path d="M224.884 174.733C224.884 174.733 215.483 192.053 203.481 210.009L178.62 167.81C174.449 150.067 187.113 138.708 187.113 138.708H230.502C230.502 138.708 230.687 168.331 224.884 174.733Z" fill="#37474F"/>
<path d="M27.1877 199.744C27.7609 197.601 61.1228 147.545 63.6097 146.451C64.5445 146.019 105.058 174.513 105.058 174.513L84.9602 205.379L59.1561 188.746C59.1561 188.746 38.3612 201.86 35.5039 202.777C32.6466 203.694 26.6056 201.878 27.1877 199.744Z" fill="#EB9481"/>
<path d="M27.1966 199.744C27.7699 197.601 61.1229 147.545 63.601 146.451C64.0508 146.239 76.8294 154.935 84.4577 160.173L63.795 191.789L59.1122 188.782C59.1122 188.782 38.3614 201.851 35.504 202.777C32.6467 203.703 26.6058 201.869 27.1966 199.744Z" fill="#EBEBEB"/>
<path d="M27.0733 199.973C27.6554 197.848 60.8937 147.148 63.3542 146.045C64.289 145.622 71.8644 150.702 79.9073 157.043L59.033 189.302C59.033 189.302 38.1939 202.072 35.3631 203.007C32.5322 203.941 26.5001 202.125 27.0733 199.973Z" fill="#7678ED"/>
<path d="M29.5435 200.59C35.3199 192.371 57.8081 158.674 62.8878 150.111C62.8878 150.04 62.8878 150.005 62.8348 150.111C56.9438 158.127 34.7202 192.009 29.4113 200.528C29.2966 200.678 29.4289 200.758 29.5435 200.59Z" fill="#263238"/>
<path d="M39.289 200.978C39.9338 200.066 40.3814 199.03 40.6031 197.935C40.8248 196.84 40.8157 195.711 40.5765 194.62C40.168 192.651 39.0148 190.917 37.3576 189.778C37.3576 189.778 37.2518 189.831 37.2959 189.875C38.763 191.26 39.7404 193.084 40.0808 195.072C40.4212 197.06 40.1061 199.105 39.1831 200.899C39.1479 200.978 39.2449 201.049 39.289 200.978Z" fill="#263238"/>
<path d="M56.4511 191.357C58.7263 188.05 60.1285 183.42 58.7792 179.487C58.7263 179.337 58.5147 179.407 58.497 179.539C58.082 183.486 57.2453 187.377 56.0013 191.145C55.9898 191.201 55.9975 191.26 56.0232 191.311C56.0489 191.362 56.0911 191.403 56.1429 191.428C56.1948 191.452 56.2534 191.459 56.3093 191.446C56.3652 191.433 56.4151 191.401 56.4511 191.357Z" fill="#263238"/>
<path d="M53.7245 193.306C55.9998 189.999 57.402 185.369 56.0527 181.427C55.9998 181.277 55.7881 181.356 55.7705 181.488C55.3543 185.435 54.5177 189.326 53.2747 193.094C53.2632 193.15 53.2709 193.209 53.2966 193.26C53.3223 193.311 53.3645 193.352 53.4164 193.377C53.4683 193.401 53.5269 193.407 53.5827 193.395C53.6386 193.382 53.6885 193.35 53.7245 193.306Z" fill="#263238"/>
<path d="M51.0008 195.184C53.2761 191.868 54.6783 187.247 53.329 183.305C53.2761 183.155 53.0644 183.235 53.0468 183.367C52.6306 187.31 51.794 191.198 50.551 194.964C50.5364 195.021 50.5418 195.081 50.5664 195.134C50.591 195.188 50.6333 195.231 50.6861 195.257C50.739 195.283 50.7991 195.29 50.8564 195.277C50.9138 195.263 50.9647 195.231 51.0008 195.184V195.184Z" fill="#263238"/>
<path d="M48.2742 197.098C50.5495 193.782 51.9517 189.117 50.6024 185.219C50.5495 185.069 50.3379 185.148 50.3202 185.281C49.9041 189.224 49.0674 193.112 47.8245 196.877C47.8098 196.934 47.8152 196.995 47.8399 197.048C47.8645 197.102 47.9068 197.145 47.9596 197.171C48.0124 197.197 48.0726 197.204 48.1299 197.19C48.1872 197.177 48.2382 197.144 48.2742 197.098V197.098Z" fill="#263238"/>
<path d="M69.4069 157.519C71.8938 153.762 66.0557 149.89 63.5688 153.656C61.0818 157.422 66.9199 161.284 69.4069 157.519Z" fill="#263238"/>
<path d="M62.9697 200.925C65.5095 200.158 65.5536 197.107 64.7952 195.105C63.7075 192.387 62.0679 189.925 59.9801 187.873C59.6979 187.574 59.3981 187.3 59.0982 186.991C58.9602 186.887 58.8277 186.775 58.7014 186.656C58.7014 186.656 58.7014 186.656 58.7014 186.656L58.5867 186.586L58.2604 186.321C58.247 186.312 58.2317 186.306 58.2157 186.304C58.1997 186.302 58.1834 186.304 58.1681 186.309C58.1528 186.314 58.1388 186.322 58.1273 186.334C58.1158 186.345 58.107 186.359 58.1017 186.374C58.0081 186.341 57.9073 186.336 57.8106 186.358C57.7139 186.379 57.6253 186.428 57.5549 186.498C57.5141 186.534 57.4819 186.579 57.4606 186.629C57.4392 186.68 57.4293 186.734 57.4314 186.789C57.4314 187.75 57.4314 188.738 57.4314 189.725C57.4225 189.896 57.4225 190.066 57.4314 190.237C57.3061 192.642 57.5863 195.051 58.2604 197.362C58.913 199.356 60.5798 201.631 62.9697 200.925ZM58.5603 192.106C58.5603 191.277 58.5073 190.448 58.4809 189.628C58.4544 188.808 58.428 188.235 58.3927 187.538C58.3927 187.441 58.3927 187.335 58.3927 187.247C58.3927 187.159 58.3927 187.062 58.3927 186.983L58.5514 187.177C58.8866 187.626 59.2129 188.059 59.5568 188.491C60.4672 189.66 61.3122 190.879 62.0878 192.142C62.6302 193.014 63.1134 193.921 63.5341 194.858C64.1514 196.322 64.7511 201.472 60.8884 199.373C58.7719 198.236 58.6837 194.117 58.6043 192.089L58.5603 192.106Z" fill="#263238"/>
<path d="M57.9756 187.212C57.9751 187.228 57.9784 187.245 57.9853 187.26C57.9922 187.275 58.0024 187.288 58.0153 187.298C58.0281 187.308 58.0432 187.315 58.0593 187.319C58.0753 187.322 58.092 187.322 58.1079 187.318C58.2135 187.299 58.3169 187.269 58.4166 187.23C58.4564 187.244 58.5002 187.244 58.54 187.23C58.54 187.23 58.54 187.23 58.54 187.23C58.7252 187.204 58.9061 187.153 59.078 187.08C59.7268 186.896 60.3607 186.663 60.974 186.383C63.44 185.349 65.6852 183.852 67.5882 181.973C69.1051 180.448 70.2868 177.643 68.2761 175.924C68.2034 175.863 68.1268 175.807 68.0468 175.756C66.186 174.407 63.8666 175.756 62.5174 177.238C61.1702 178.826 60.0729 180.61 59.2632 182.529C58.6723 183.861 58.1167 185.175 57.4994 186.506C57.4594 186.584 57.4411 186.67 57.4461 186.757C57.4512 186.844 57.4796 186.928 57.5283 187C57.577 187.073 57.6443 187.13 57.723 187.167C57.8017 187.205 57.8889 187.22 57.9756 187.212V187.212ZM60.7271 182.229C61.609 180.395 63.3728 176.673 65.8068 176.471C66.3648 176.395 66.9329 176.465 67.4559 176.673C69.3255 177.555 67.3413 180.756 66.38 181.665C65.6183 182.359 64.8111 183.001 63.9637 183.587C63.3287 184.037 62.6849 184.469 62.0059 184.831C60.9211 185.483 59.81 186.074 58.7076 186.7C58.637 186.7 58.5753 186.789 58.5048 186.815C58.5475 186.753 58.5802 186.684 58.6018 186.612C58.7076 186.436 58.7958 186.277 58.884 186.092C59.5101 184.822 60.0922 183.517 60.7271 182.229Z" fill="#263238"/>
<path d="M359.698 327.432C358.314 329.196 307.764 361.764 305.021 361.826C303.989 361.826 278.238 319.575 278.238 319.575L308.999 299.291L326.019 324.866C326.019 324.866 350.271 321.153 353.252 321.444C356.233 321.735 361.083 325.704 359.698 327.432Z" fill="#EB9481"/>
<path d="M359.688 327.432C358.312 329.196 307.754 361.764 305.011 361.826C304.517 361.826 296.271 348.765 291.359 340.916L322.922 320.166L326.009 324.795C326.009 324.795 350.252 321.083 353.242 321.374C356.231 321.665 361.082 325.713 359.688 327.432Z" fill="#EBEBEB"/>
<path d="M359.893 327.265C358.517 329.028 307.817 362.223 305.119 362.249C304.087 362.249 299.175 354.586 294.324 345.564L326.328 324.31C326.328 324.31 350.536 320.897 353.499 321.189C356.462 321.48 361.26 325.536 359.893 327.265Z" fill="#7678ED"/>
<path d="M357.873 325.713C349.301 330.951 315.242 352.884 307.164 358.704C307.102 358.757 307.164 358.801 307.164 358.757C315.771 353.757 349.662 331.551 357.926 325.854C358.137 325.73 358.058 325.589 357.873 325.713Z" fill="#263238"/>
<path d="M349.095 321.471C348.143 322.049 347.322 322.817 346.681 323.728C346.041 324.638 345.595 325.671 345.373 326.762C344.966 328.728 345.332 330.775 346.396 332.477C346.396 332.53 346.52 332.477 346.493 332.415C345.7 330.561 345.529 328.501 346.006 326.542C346.483 324.583 347.582 322.831 349.139 321.55C349.227 321.524 349.157 321.427 349.095 321.471Z" fill="#263238"/>
<path d="M329.511 323.446C326.106 325.58 322.958 329.293 322.641 333.411C322.641 333.57 322.852 333.588 322.923 333.464C324.879 330.013 327.2 326.781 329.846 323.825C329.885 323.778 329.907 323.719 329.906 323.657C329.905 323.596 329.883 323.537 329.842 323.491C329.801 323.445 329.745 323.415 329.685 323.407C329.624 323.399 329.562 323.413 329.511 323.446V323.446Z" fill="#263238"/>
<path d="M332.78 322.776C329.367 324.91 326.228 328.632 325.91 332.741C325.91 332.9 326.122 332.918 326.192 332.803C328.145 329.349 330.463 326.115 333.106 323.155C333.142 323.108 333.16 323.051 333.158 322.993C333.157 322.934 333.135 322.878 333.097 322.833C333.058 322.789 333.006 322.759 332.949 322.749C332.891 322.738 332.831 322.748 332.78 322.776Z" fill="#263238"/>
<path d="M336.046 322.115C332.633 324.249 329.493 327.961 329.176 332.08C329.176 332.239 329.387 332.256 329.458 332.133C331.411 328.682 333.729 325.45 336.372 322.494C336.407 322.447 336.426 322.39 336.424 322.331C336.422 322.273 336.401 322.216 336.362 322.172C336.324 322.128 336.272 322.098 336.214 322.087C336.157 322.077 336.097 322.086 336.046 322.115V322.115Z" fill="#263238"/>
<path d="M339.307 321.444C335.894 323.578 332.755 327.3 332.438 331.41C332.438 331.568 332.649 331.586 332.72 331.471C334.673 328.017 336.991 324.783 339.634 321.823C339.669 321.777 339.688 321.719 339.686 321.661C339.684 321.602 339.662 321.546 339.624 321.502C339.586 321.457 339.534 321.427 339.476 321.417C339.418 321.406 339.359 321.416 339.307 321.444V321.444Z" fill="#263238"/>
<path d="M304.148 349.312C300.365 351.764 304.148 357.646 307.958 355.185C311.768 352.725 307.932 346.851 304.148 349.312Z" fill="#263238"/>
<path d="M327.359 312.079C324.713 311.761 323.47 314.548 323.364 316.691C323.281 319.614 323.8 322.523 324.89 325.236C325.031 325.624 325.198 325.995 325.366 326.356C325.454 326.506 325.525 326.665 325.595 326.815L325.675 326.93L325.869 327.3C325.879 327.313 325.891 327.323 325.906 327.33C325.92 327.337 325.936 327.341 325.952 327.341C325.969 327.341 325.985 327.337 325.999 327.33C326.014 327.323 326.026 327.313 326.036 327.3C326.109 327.369 326.2 327.416 326.298 327.435C326.397 327.454 326.499 327.444 326.592 327.406C326.643 327.389 326.69 327.361 326.729 327.325C326.769 327.288 326.8 327.244 326.821 327.194C327.183 326.312 327.588 325.43 327.985 324.496C328.065 324.346 328.126 324.196 328.197 324.037C329.27 321.879 329.973 319.557 330.278 317.167C330.455 315.139 329.837 312.361 327.359 312.079ZM327.844 321.92C327.544 322.697 327.227 323.464 326.962 324.222C326.698 324.981 326.451 325.527 326.204 326.18C326.204 326.268 326.133 326.374 326.107 326.453L326.019 326.7C326.019 326.621 325.975 326.542 325.957 326.462C325.939 326.383 325.957 326.462 325.957 326.462C325.825 325.924 325.71 325.395 325.569 324.857C325.19 323.423 324.896 321.969 324.687 320.501C324.541 319.484 324.462 318.459 324.449 317.432C324.449 315.844 325.966 310.888 328.664 314.345C330.119 316.215 328.576 320.033 327.844 321.92V321.92Z" fill="#263238"/>
<path d="M326.469 326.639C326.476 326.624 326.479 326.607 326.479 326.591C326.479 326.574 326.474 326.558 326.467 326.544C326.459 326.529 326.448 326.517 326.435 326.507C326.421 326.498 326.406 326.491 326.389 326.489C326.284 326.477 326.177 326.477 326.072 326.489C326.053 326.479 326.032 326.474 326.01 326.474C325.989 326.474 325.968 326.479 325.949 326.489C325.949 326.489 325.949 326.489 325.949 326.489C325.77 326.444 325.586 326.42 325.402 326.418C324.733 326.324 324.058 326.283 323.382 326.295C320.713 326.252 318.061 326.722 315.569 327.679C313.576 328.473 311.371 330.572 312.526 332.971C312.568 333.056 312.615 333.138 312.667 333.218C313.84 335.193 316.512 334.867 318.329 334.099C320.208 333.173 321.934 331.962 323.444 330.51C324.52 329.531 325.56 328.508 326.628 327.556C326.722 327.51 326.798 327.434 326.846 327.341C326.893 327.247 326.909 327.141 326.892 327.038C326.874 326.934 326.823 326.84 326.747 326.768C326.67 326.696 326.573 326.651 326.469 326.639V326.639ZM321.962 330.113C320.401 331.436 317.297 334.143 315.004 333.367C314.462 333.22 313.969 332.931 313.576 332.53C312.2 330.986 315.339 328.826 316.548 328.376C317.522 328.046 318.518 327.78 319.528 327.582C320.287 327.424 321.054 327.309 321.821 327.212C323.082 327.053 324.335 326.956 325.596 326.815H325.834C325.771 326.86 325.712 326.91 325.658 326.965C325.49 327.088 325.349 327.203 325.19 327.335C324.105 328.235 323.056 329.187 321.962 330.113Z" fill="#263238"/>
<path d="M309.933 300.244L278.265 319.531C278.265 319.531 245.979 285.64 238.58 256.378C236.349 247.56 198.657 192.618 186.01 178.852C169.369 160.729 186.143 138.655 186.143 138.655H232.107L232.336 155.243C235.952 161.108 309.933 300.244 309.933 300.244Z" fill="#263238"/>
<path d="M222.801 147.448C224.581 148.507 226.274 149.707 227.863 151.037C229.472 152.343 230.976 153.773 232.36 155.314C230.578 154.254 228.885 153.051 227.298 151.716C225.69 150.413 224.186 148.986 222.801 147.448Z" fill="#37474F"/>
<path d="M214.988 53.3765C214.424 49.8489 213.674 46.1361 208.4 44.4253C197.086 40.7654 188.999 56.1897 175.938 61.1283C160.205 67.1075 153.891 76.6054 160.293 82.7081C167.445 89.5427 180.727 85.733 191.715 66.8341C198.594 55.0256 204.723 52.0448 207.545 52.0889C209.582 52.0889 212.439 56.2161 212.439 56.2161L214.988 53.3765Z" fill="#263238"/>
<path d="M195.664 60.4404C194.438 62.2042 193.424 64.1532 192.348 66.0316C191.272 67.91 190.231 69.8061 189.12 71.6492C188.009 73.4924 186.836 75.3091 185.54 77.0199C184.278 78.7447 182.848 80.3399 181.271 81.7821C179.723 83.2358 177.908 84.3767 175.927 85.1421C173.894 85.8454 171.755 86.1915 169.604 86.1651C167.428 86.1444 165.286 85.6255 163.342 84.6483C162.36 84.1591 161.444 83.5456 160.617 82.8228C160.208 82.4593 159.823 82.0705 159.462 81.6587C159.087 81.2534 158.772 80.796 158.527 80.3006C158.973 81.3273 159.624 82.2518 160.441 83.0168C161.23 83.8164 162.119 84.51 163.087 85.0804C164.074 85.6451 165.125 86.0892 166.217 86.4032C167.313 86.713 168.44 86.8964 169.577 86.95C170.705 87.0062 171.836 86.956 172.955 86.8001L173.793 86.6678L174.613 86.5003C175.168 86.3796 175.716 86.2265 176.253 86.0417C178.363 85.2466 180.298 84.0485 181.95 82.5141C185.106 79.4622 187.752 75.9252 189.79 72.0373C190.857 70.1324 191.827 68.1922 192.771 66.2433C193.715 64.2943 194.641 62.3453 195.664 60.4404Z" fill="#263238"/>
<path d="M215.015 54.3994C214.91 52.8981 214.614 51.4164 214.134 49.99C213.647 48.5976 212.849 47.3346 211.8 46.297C210.752 45.2594 209.481 44.4744 208.084 44.002C207.39 43.766 206.676 43.5976 205.95 43.4993C205.233 43.3803 204.506 43.336 203.78 43.367C202.333 43.4786 200.916 43.8396 199.591 44.4341C198.255 45.0609 196.988 45.8233 195.808 46.7094C193.409 48.4731 191.187 50.5191 188.885 52.4857C186.593 54.5013 184.152 56.3409 181.583 57.9887C178.947 59.5269 176.196 60.8596 173.355 61.9749C170.541 63.0346 167.801 64.2808 165.153 65.7052C163.834 66.4286 162.613 67.3177 161.52 68.3509L160.726 69.1358C160.479 69.4268 160.259 69.7267 160.021 70.0177L159.668 70.4586L159.368 70.9348L158.777 71.9049C160.086 69.1249 162.2 66.8022 164.845 65.2378C167.469 63.703 170.191 62.342 172.993 61.1635C175.746 59.9773 178.415 58.6073 180.983 57.0627C183.492 55.4278 185.874 53.606 188.109 51.6127C190.42 49.6725 192.642 47.6089 195.164 45.8363C196.421 44.9259 197.768 44.1486 199.185 43.5169C200.631 42.8924 202.18 42.5425 203.754 42.4851C204.541 42.4814 205.327 42.5583 206.1 42.7144C206.866 42.8536 207.618 43.0601 208.348 43.3317C209.816 43.8658 211.135 44.7432 212.196 45.8907C213.256 47.0382 214.026 48.4225 214.442 49.9282C214.844 51.384 215.037 52.8894 215.015 54.3994V54.3994Z" fill="#263238"/>
<path d="M218.604 53.5793C218.498 52.4858 217.545 51.1806 216.84 51.0747C216.134 50.9689 211.178 53.8439 210.887 55.2373C210.596 56.6306 213.065 57.5213 213.065 57.5213L218.604 53.5793Z" fill="#7678ED"/>
<path d="M227.291 91.4653C233.649 77.3551 239.805 66.3227 249.338 49.6197C254.294 40.9243 262.919 26.9199 265.133 23.163C268.052 18.2597 288.9 37.2732 286.545 40.3599C285.011 42.397 276.271 55.0433 267.831 63.9857C256.993 75.4502 248.994 86.1034 236.895 97.956C227.75 106.942 223.093 100.787 227.291 91.4653Z" fill="#EB9481"/>
<path d="M280.68 46.4007C285.909 44.3724 301.775 33.1724 304.403 30.3151C307.031 27.4578 314.006 18.533 311.996 16.293C309.985 14.053 307.736 16.4871 307.736 16.4871C307.736 16.4871 310.382 11.9101 307.851 10.1992C305.84 8.84108 302.498 12.1041 302.498 12.1041C302.498 12.1041 305.143 6.9362 302.41 5.56045C299.931 4.29935 297.215 8.73525 297.215 8.73525C297.215 8.73525 298.979 4.1847 296.333 3.44392C293.185 2.56203 290.16 10.4108 286.985 13.3916C286.271 14.0707 266.199 26.1878 266.199 26.1878L280.68 46.4007Z" fill="#EB9481"/>
<path d="M297.093 8.49717C294.209 14.1589 292.851 16.4342 287.939 20.0499C287.842 20.1205 287.939 20.2792 288.027 20.2087C293.168 17.0956 294.976 14.5381 297.384 8.59418C297.499 8.30316 297.234 8.23261 297.093 8.49717Z" fill="#263238"/>
<path d="M302.435 12.0953C299.525 17.8981 297.364 20.0941 292.47 24.2742C292.399 24.3359 292.47 24.4506 292.567 24.3977C297.691 20.7026 300.504 18.3215 302.612 12.1482C302.735 11.866 302.568 11.8308 302.435 12.0953Z" fill="#263238"/>
<path d="M307.463 16.6987C304.279 22.1135 302.048 24.7768 296.801 28.2338C296.781 28.2514 296.767 28.2755 296.763 28.3019C296.759 28.3283 296.764 28.3554 296.778 28.3784C296.791 28.4014 296.812 28.419 296.838 28.428C296.863 28.437 296.89 28.437 296.915 28.4278C302.612 25.4294 305.417 22.1312 307.622 16.8134C307.798 16.4518 307.692 16.3548 307.463 16.6987Z" fill="#263238"/>
<path d="M262.391 28.2074C262.391 28.2074 264.551 19.6972 272.629 16.5665C275.884 15.2965 280.443 5.62222 283.45 5.81623C286.81 6.03671 284.403 14.7939 280.311 19.5031C280.311 19.5031 285.769 28.1809 282.074 32.8902C281.272 33.9132 275.407 37.1497 273.943 36.8499L262.391 28.2074Z" fill="#EB9481"/>
<path d="M280.062 20.1293C282.311 23.4363 283.872 28.4543 282.276 32.1053C282.264 32.1264 282.261 32.1512 282.268 32.1743C282.275 32.1975 282.29 32.2171 282.311 32.2288C282.332 32.2405 282.357 32.2433 282.38 32.2367C282.403 32.2301 282.423 32.2145 282.435 32.1935C284.683 28.516 282.92 22.6867 280.741 19.8471C280.318 19.3091 279.48 19.2826 280.062 20.1293Z" fill="#263238"/>
<path d="M233.454 131.415L232.078 138.682H187.102C187.102 138.682 194.157 101.827 210.604 90.892C218.841 85.4243 226.354 87.823 230.005 93.961C230.931 95.5131 240.341 111.775 240.077 119.536C239.83 126.45 233.454 131.415 233.454 131.415Z" fill="#EB9481"/>
<path d="M240.086 119.571C239.847 126.018 234.212 130.798 233.515 131.371L189.668 128.416C190.691 124.836 192.014 120.638 193.698 116.308C198.055 116.465 202.417 116.267 206.741 115.717C208.655 115.356 212.915 108.98 218.365 109.632C223.815 110.285 229.265 115.717 229.265 115.717C231.657 113.157 234.758 111.367 238.172 110.576C239.336 113.936 240.174 117.172 240.086 119.571Z" fill="#263238"/>
<path d="M230.017 93.9522C229.783 93.5554 229.527 93.1726 229.249 92.8058C230.546 96.5626 232.997 104.844 229.84 105.664C226.374 106.546 217.653 93.0262 214.954 88.6962C213.424 89.2497 211.967 89.9871 210.615 90.8921C197.995 99.1377 187.421 128.919 186.125 138.655H232.089L233.456 131.388C233.456 131.388 239.832 126.423 240.088 119.545C240.352 111.775 230.943 95.5132 230.017 93.9522ZM212.882 111.987C210.553 117.022 205.253 120.929 201.726 120.453C198.842 120.056 197.493 116.141 198.639 111.14C200.614 102.621 209.019 90.0631 212.846 90.3629C217.238 90.7069 216.744 103.6 212.882 111.987Z" fill="#455A64"/>
<path d="M218.912 125.312C221.373 125.731 223.793 126.365 226.143 127.208C227.316 127.649 228.454 128.161 229.6 128.69C230.165 128.963 230.738 129.201 231.364 129.439C231.954 129.712 232.581 129.896 233.225 129.986C233.278 129.986 233.269 130.092 233.225 130.092C232.616 130.091 232.009 130.04 231.408 129.942C230.826 129.816 230.255 129.648 229.697 129.439C228.507 129.007 227.334 128.505 226.17 128.055C223.771 127.173 221.381 126.291 218.938 125.55C218.753 125.524 218.797 125.286 218.912 125.312Z" fill="#263238"/>
<path d="M212.667 127.57C214.707 127.433 216.755 127.433 218.796 127.57C219.819 127.649 220.824 127.799 221.838 127.975C222.314 128.064 222.799 128.161 223.276 128.266C223.752 128.372 224.316 128.584 224.845 128.69C224.907 128.69 224.898 128.804 224.845 128.796C224.343 128.707 223.822 128.734 223.32 128.681L221.794 128.54C220.78 128.452 219.766 128.372 218.743 128.266C216.714 128.055 214.686 127.878 212.649 127.755C212.534 127.764 212.561 127.57 212.667 127.57Z" fill="#263238"/>
<path d="M190.348 123.504C194.707 123.741 199.076 123.741 203.435 123.504C211.839 122.931 221.32 121.405 221.514 121.529C221.866 121.758 238.428 121.37 238.428 121.37L239.707 122.093L239.91 121.211L238.772 120.594C239.175 119.329 239.265 117.986 239.037 116.678C238.649 114.606 235.509 106.096 235.421 105.858C235.333 105.62 229.9 93.3172 229.83 93.2467C229.759 93.1761 229.248 92.7969 229.248 92.7969L234.663 105.928C232.876 106.323 231.064 106.585 229.239 106.713C227.013 106.606 224.793 106.386 222.59 106.052C222.59 106.052 218.709 95.8571 218.092 94.8076C217.475 93.7582 215.376 88.5286 215.164 88.6344C214.964 88.7008 214.761 88.7567 214.556 88.802C214.556 88.802 217.73 96.739 218.189 97.5503C218.647 98.3616 221.611 106.643 221.611 106.643C221.611 106.643 222.246 113.557 222.272 114.8C222.105 116.64 221.828 118.469 221.443 120.277C221.443 120.277 212.007 121.661 203.673 122.375C196.724 122.984 190.639 122.949 190.55 122.949C190.462 122.949 190.348 123.504 190.348 123.504Z" fill="white"/>
<path d="M226.85 110.285L227.246 118.786C227.246 119.236 227.026 119.589 226.726 119.606C226.426 119.624 226.17 119.289 226.153 118.839L225.818 111.784L225.439 112.128C225.369 112.207 225.27 112.254 225.165 112.26C225.056 112.252 224.952 112.211 224.865 112.144C224.779 112.077 224.715 111.985 224.68 111.881C224.592 111.706 224.558 111.509 224.581 111.314C224.605 111.12 224.685 110.937 224.812 110.787L225.976 109.676C225.976 109.676 225.976 109.676 226.029 109.676H226.082C226.082 109.676 226.082 109.676 226.126 109.676C226.149 109.667 226.174 109.667 226.197 109.676H226.329C226.329 109.676 226.373 109.676 226.391 109.676H226.435C226.435 109.676 226.479 109.72 226.497 109.72C226.511 109.724 226.526 109.724 226.541 109.72V109.765C226.541 109.765 226.541 109.765 226.585 109.817C226.629 109.87 226.585 109.817 226.585 109.879L226.629 109.932C226.629 109.932 226.629 109.976 226.629 110.003C226.629 110.029 226.629 110.064 226.629 110.073C226.631 110.097 226.631 110.12 226.629 110.144C226.616 110.178 226.616 110.215 226.629 110.25L226.85 110.285Z" fill="#263238"/>
<path d="M235.864 110.161L233.791 118.804C233.721 119.104 233.536 119.289 233.306 119.298C233.233 119.304 233.159 119.288 233.095 119.254C232.946 119.133 232.835 118.973 232.774 118.792C232.713 118.611 232.705 118.416 232.751 118.231L234.514 110.734L231.966 110.849C231.666 110.849 231.401 110.496 231.384 110.064C231.366 109.632 231.595 109.262 231.886 109.253L235.282 109.094C235.314 109.086 235.347 109.086 235.379 109.094C235.456 109.115 235.528 109.151 235.59 109.2V109.244C235.596 109.261 235.596 109.28 235.59 109.297L235.634 109.35V109.412C235.636 109.435 235.636 109.459 235.634 109.482V109.553C235.634 109.553 235.634 109.606 235.634 109.623C235.631 109.647 235.631 109.67 235.634 109.694C235.643 109.8 235.643 109.906 235.634 110.011C235.873 110.073 235.873 110.117 235.864 110.161Z" fill="#263238"/>
<path d="M218.312 89.2429C218.48 90.2395 222.775 96.9242 227.29 97.0036C228.754 97.0036 229.239 89.0137 229.239 89.0137L229.407 88.4228L231.788 80.2565L222.449 73.3689L221.09 72.4871C221.09 72.4871 220.588 74.7623 219.988 77.6108C219.988 77.7431 219.935 77.8754 219.9 78.0165C219.865 78.1576 219.829 78.3252 219.803 78.4751C219.706 78.8984 219.609 79.357 219.521 79.7626C219.432 80.1683 219.388 80.4152 219.335 80.7592C219.283 81.1031 219.212 81.447 219.141 81.7998C218.698 84.2594 218.421 86.7461 218.312 89.2429V89.2429Z" fill="#EB9481"/>
<path d="M219.988 77.5932C220.678 79.9738 221.878 82.1756 223.504 84.0457C225.131 85.9159 227.145 87.4095 229.407 88.4228L231.788 80.2565L222.449 73.3689L221.091 72.4871C221.091 72.4871 220.588 74.7447 219.988 77.5932Z" fill="#263238"/>
<path d="M238.721 61.0666C246.032 74.1009 239.047 79.9478 236.234 81.5176C233.685 82.9462 224.77 87.488 216.198 75.2826C207.626 63.0773 211.33 55.5548 217 51.9831C222.671 48.4115 231.41 48.0411 238.721 61.0666Z" fill="#EB9481"/>
<path d="M235.146 59.9995C234.827 60.1236 234.5 60.2267 234.168 60.3082C233.835 60.4666 233.46 60.51 233.1 60.4316C232.992 60.386 232.903 60.3058 232.845 60.2037C232.788 60.1015 232.766 59.9832 232.783 59.8672C232.854 59.6471 232.982 59.4496 233.154 59.2947C233.326 59.1399 233.536 59.0332 233.762 58.9853C234.21 58.8136 234.707 58.8136 235.155 58.9853C235.25 59.0326 235.329 59.1054 235.384 59.1955C235.44 59.2857 235.468 59.3895 235.467 59.4952C235.467 59.6009 235.436 59.7042 235.379 59.7933C235.322 59.8825 235.242 59.9539 235.146 59.9995V59.9995Z" fill="#263238"/>
<path d="M226.621 64.8587C226.901 64.6576 227.166 64.4365 227.414 64.1973C227.729 64.0085 227.971 63.7197 228.102 63.3771C228.124 63.2607 228.105 63.1405 228.049 63.0362C227.993 62.932 227.903 62.8501 227.794 62.8039C227.569 62.7372 227.33 62.7332 227.103 62.7922C226.876 62.8513 226.67 62.9712 226.506 63.139C226.113 63.4186 225.841 63.8383 225.748 64.3119C225.733 64.4198 225.749 64.5296 225.795 64.6283C225.841 64.727 225.915 64.8103 226.007 64.8681C226.099 64.9259 226.206 64.9557 226.315 64.9541C226.424 64.9524 226.53 64.9193 226.621 64.8587V64.8587Z" fill="#263238"/>
<path d="M233.762 73.6511C234.075 73.821 234.436 73.8771 234.785 73.8099C235.129 73.6447 235.43 73.4034 235.667 73.1044C235.667 73.1044 235.738 73.1044 235.729 73.1044C235.69 73.3446 235.588 73.5702 235.433 73.7578C235.278 73.9454 235.076 74.0882 234.847 74.1715C234.636 74.2122 234.418 74.1895 234.22 74.1063C234.023 74.0231 233.854 73.8831 233.736 73.7041C233.648 73.6864 233.709 73.6335 233.762 73.6511Z" fill="#263238"/>
<path d="M235.687 68.3686C235.687 68.3686 236.613 69.5944 236.957 70.2206C236.957 70.2735 236.86 70.3881 236.649 70.5204C236.163 70.9196 235.577 71.1769 234.954 71.264C234.332 71.3512 233.697 71.2647 233.121 71.0143C233.109 71.0043 233.099 70.9908 233.095 70.9755C233.09 70.9602 233.09 70.9439 233.095 70.9287C233.1 70.9134 233.109 70.9 233.121 70.8901C233.134 70.8802 233.149 70.8743 233.165 70.8732C234.266 70.9759 235.371 70.7191 236.313 70.1412C236.261 69.9472 234.664 68.0952 234.761 68.0335C235.27 67.8064 235.807 67.6492 236.358 67.5661C234.514 64.9204 232.266 62.6628 230.467 60.0436C230.451 60.0245 230.444 60.0004 230.446 59.9761C230.447 59.9517 230.458 59.9289 230.476 59.9122C230.494 59.8955 230.517 59.8862 230.542 59.886C230.566 59.8858 230.59 59.8948 230.608 59.9113C233.094 62.2927 235.336 64.916 237.301 67.7425C237.548 68.0776 236.031 68.3333 235.687 68.3686Z" fill="#263238"/>
<path d="M235.917 70.7233C235.817 71.3044 235.571 71.8507 235.202 72.3107C234.992 72.5536 234.712 72.726 234.4 72.8045C233.721 72.9633 233.412 72.4253 233.271 71.9226C233.193 71.6352 233.155 71.3385 233.156 71.0407C234.087 71.2352 235.055 71.1238 235.917 70.7233V70.7233Z" fill="#263238"/>
<path d="M235.201 72.2931C234.99 72.536 234.71 72.7084 234.398 72.7869C233.719 72.9457 233.411 72.4077 233.27 71.905C233.589 71.7459 233.952 71.6976 234.302 71.7679C234.651 71.8382 234.968 72.0229 235.201 72.2931V72.2931Z" fill="#FF9CBD"/>
<path d="M228.47 67.8571C228.468 67.9816 228.441 68.1045 228.391 68.2186C228.359 68.3137 228.306 68.4003 228.235 68.472C228.165 68.5438 228.08 68.5988 227.985 68.6331C227.403 68.8624 226.865 68.4038 226.539 67.8571C226.539 67.8571 226.539 67.7865 226.539 67.8042C226.918 67.9717 227.342 68.1305 227.633 67.9188C227.816 67.7317 227.941 67.496 227.994 67.2397C228.132 67.4607 228.292 67.6675 228.47 67.8571Z" fill="#263238"/>
<path d="M228.094 67.8571C227.983 67.577 227.953 67.2717 228.006 66.9752C228.041 66.8184 228.108 66.6704 228.202 66.5401C228.296 66.4097 228.415 66.2998 228.553 66.2168C228.699 66.1431 228.861 66.1047 229.024 66.1047C229.188 66.1047 229.35 66.1431 229.496 66.2168C229.755 66.3386 229.982 66.5199 230.158 66.7459C230.263 66.8793 230.357 67.0209 230.44 67.1692C230.621 67.4755 230.73 67.8195 230.757 68.1746C230.64 67.9473 230.501 67.7317 230.343 67.5308C230.196 67.35 230.036 67.1791 229.867 67.0193C229.523 66.7018 229.108 66.5078 228.808 66.7018C228.64 66.8131 228.514 66.979 228.453 67.1716C228.392 67.3642 228.399 67.572 228.473 67.7601C228.585 68.2391 228.745 68.7059 228.949 69.1535C228.565 68.7956 228.272 68.3511 228.094 67.8571V67.8571Z" fill="#263238"/>
<path d="M236.508 62.8567C236.616 62.9161 236.732 62.9606 236.852 62.989C236.95 63.012 237.052 63.0136 237.151 62.9939C237.25 62.9741 237.343 62.9333 237.425 62.8744C237.64 62.6647 237.773 62.3844 237.799 62.0849C237.825 61.7854 237.742 61.4865 237.566 61.2429C237.566 61.2429 237.513 61.1812 237.504 61.2429C237.434 61.6574 237.337 62.1248 237.002 62.2218C236.745 62.2766 236.477 62.252 236.234 62.1512C236.352 62.3751 236.444 62.6118 236.508 62.8567Z" fill="#263238"/>
<path d="M236.699 62.5481C236.525 62.3173 236.294 62.1352 236.029 62.0189C235.878 61.9628 235.718 61.9377 235.557 61.9453C235.396 61.9529 235.239 61.9929 235.094 62.063C234.95 62.1406 234.826 62.25 234.731 62.3831C234.637 62.5161 234.574 62.6691 234.547 62.8303C234.504 63.1264 234.531 63.4285 234.627 63.7122C234.688 63.8709 234.759 64.0297 234.829 64.1796C234.991 64.4986 235.223 64.7762 235.509 64.9909C235.374 64.7697 235.267 64.5327 235.191 64.2854C235.115 64.067 235.056 63.8429 235.015 63.6152C234.944 63.1478 235.015 62.7333 235.332 62.5569C235.517 62.4773 235.725 62.4637 235.919 62.5182C236.113 62.5728 236.282 62.6923 236.399 62.8567C236.732 63.2107 237.027 63.5978 237.281 64.012C237.208 63.4843 237.008 62.9821 236.699 62.5481V62.5481Z" fill="#263238"/>
<path d="M222.574 53.0855C223.466 54.0689 224.04 55.2982 224.223 56.613C224.364 60.3522 220.351 61.4546 219.743 63.2801C219.134 65.1056 220.775 67.081 220.316 68.739C219.672 71.0319 218.111 70.4499 218.42 71.6051C218.729 72.7604 219.761 76.4114 218.667 77.5226C217.574 78.6338 200.033 59.8848 217.609 51.5774C217.609 51.5774 219.47 49.214 224.1 49.2933C230.74 49.408 235.15 55.7311 235.15 55.7311C234.491 55.9082 233.803 55.9442 233.13 55.837C231.922 55.5459 231.216 55.2108 230.361 55.0521C229.012 54.814 228.703 55.6518 227.327 55.4489C225.202 55.1226 222.574 53.0855 222.574 53.0855Z" fill="#263238"/>
<path d="M222.027 52.3976C222.746 53.1128 223.379 53.9089 223.914 54.7699C224.487 55.5801 224.825 56.5318 224.893 57.5214C224.826 58.5132 224.396 59.4455 223.685 60.1406C223.024 60.8725 222.168 61.4281 221.472 62.2483C221.11 62.667 220.869 63.176 220.775 63.721C220.732 64.2572 220.795 64.7966 220.96 65.3084C221.322 66.224 221.426 67.2216 221.26 68.1922C221.138 68.6602 220.918 69.0967 220.614 69.4724C220.31 69.8481 219.929 70.1543 219.496 70.3705C218.614 70.8291 217.538 71.0848 216.895 71.9138C217.609 71.1377 218.658 71.0319 219.593 70.5821C220.083 70.3747 220.522 70.0617 220.877 69.6653C221.232 69.269 221.495 68.7991 221.648 68.2892C221.879 67.2574 221.8 66.1802 221.419 65.1938C221.277 64.7377 221.223 64.2589 221.26 63.7828C221.353 63.3238 221.566 62.8978 221.877 62.5481C222.495 61.7985 223.35 61.2165 224.047 60.4316C224.407 60.0422 224.705 59.5988 224.929 59.1176C225.174 58.635 225.292 58.0977 225.272 57.5566C225.162 56.5096 224.762 55.5142 224.117 54.6817C223.515 53.8389 222.813 53.072 222.027 52.3976V52.3976Z" fill="#263238"/>
<path d="M222.801 53.0061C223.404 53.7436 224.104 54.3962 224.882 54.9463C225.673 55.5373 226.621 55.881 227.607 55.934C228.087 55.9286 228.566 55.8755 229.036 55.7752C229.46 55.7013 229.897 55.7471 230.297 55.9075C230.702 56.1563 231.13 56.366 231.576 56.5337C232.041 56.6635 232.53 56.6847 233.004 56.5954C232.542 56.5901 232.086 56.4911 231.664 56.3044C231.243 56.1046 230.844 55.8623 230.473 55.5812C230.016 55.3416 229.494 55.2522 228.983 55.3255C228.535 55.4107 228.08 55.4549 227.625 55.4578C226.719 55.3859 225.848 55.0822 225.094 54.5759C224.297 54.1013 223.531 53.5771 222.801 53.0061V53.0061Z" fill="#263238"/>
<path d="M219.187 74.7359C219.187 74.7359 214.442 71.5963 212.908 73.4571C211.373 75.3179 216.127 80.6974 218.781 80.6445C219.121 80.6612 219.461 80.6089 219.78 80.4907C220.099 80.3725 220.391 80.191 220.639 79.957C220.886 79.723 221.083 79.4414 221.218 79.1291C221.354 78.8168 221.425 78.4803 221.427 78.14L219.187 74.7359Z" fill="#EB9481"/>
<path d="M214.309 74.9651C214.265 74.9651 214.309 75.0357 214.309 75.0357C216.187 75.0357 217.633 76.2174 218.85 77.5314C218.692 77.4062 218.508 77.317 218.312 77.2697C218.116 77.2225 217.912 77.2184 217.714 77.2579C217.516 77.2973 217.329 77.3792 217.166 77.498C217.003 77.6168 216.867 77.7696 216.769 77.9459C216.769 77.9988 216.769 78.0429 216.849 78.0164C217.095 77.8188 217.396 77.7011 217.711 77.679C218.026 77.657 218.341 77.7316 218.612 77.893C219.07 78.1761 219.495 78.5072 219.882 78.8807C220.014 78.9953 220.244 78.8102 220.12 78.6691C219.353 76.5525 216.628 74.2949 214.309 74.9651Z" fill="#263238"/>
<path d="M240.44 64.7087C241.378 66.5883 241.946 68.6298 242.116 70.7232C242.204 71.777 242.16 72.8377 241.984 73.8804C241.897 74.4044 241.78 74.9227 241.631 75.4325C241.464 75.9406 241.267 76.4383 241.04 76.9229C240.574 77.8802 239.981 78.7702 239.276 79.5686C238.554 80.3428 237.732 81.0188 236.834 81.5793C235.039 82.6813 233.001 83.3235 230.898 83.4489C231.915 83.2643 232.909 82.9686 233.862 82.567C235.759 81.8261 237.459 80.6548 238.827 79.1453C239.492 78.3907 240.05 77.5479 240.485 76.6407C241.356 74.8074 241.756 72.7856 241.649 70.7585C241.626 69.736 241.511 68.7177 241.305 67.716C241.096 66.6925 240.807 65.687 240.44 64.7087Z" fill="#263238"/>
<path d="M207.596 102.542C207.385 102.198 207.173 101.854 206.953 101.51C208.328 102.903 209.757 104.226 211.239 105.505C211.239 105.505 211.327 105.505 211.291 105.452C209.836 103.776 208.355 102.136 206.811 100.54C206.079 99.7903 205.374 99.0142 204.616 98.2822C203.857 97.5503 202.852 96.686 202.076 95.8218C201.979 95.7159 201.811 95.8218 201.908 95.954C202.675 96.7742 203.363 97.6649 204.104 98.5203C204.845 99.3758 205.427 99.9666 206.115 100.663C206.245 100.935 206.389 101.2 206.547 101.457C206.811 101.872 207.076 102.277 207.367 102.674C207.949 103.459 208.566 104.226 209.131 104.993C208.619 104.235 208.099 103.353 207.596 102.542Z" fill="#263238"/>
<path d="M213.472 90.2306C206.725 75.2385 201.072 64.4177 190.957 46.6829C185.666 37.4496 179.016 26.3995 176.662 22.4134C173.566 17.2014 151.431 37.3437 153.935 40.6685C155.558 42.8379 160.938 49.8401 170.436 61.093C181.265 73.9069 190.437 84.5689 203.286 97.1623C212.987 106.66 217.934 100.125 213.472 90.2306Z" fill="#EB9481"/>
<path d="M159.41 45.6952C153.854 43.5434 137.018 31.6908 134.223 28.613C131.427 25.5353 124.028 16.1167 126.162 13.7356C128.297 11.3545 130.686 13.9384 130.686 13.9384C130.686 13.9384 127.882 9.07921 130.563 7.26252C132.697 5.81622 136.242 9.28204 136.242 9.28204C136.242 9.28204 133.456 3.79669 136.339 2.33276C138.985 1.00111 141.86 5.70157 141.86 5.70157C141.86 5.70157 139.99 0.87764 142.742 0.0751211C146.084 -0.877319 149.321 7.48299 152.663 10.6578C153.422 11.3809 174.71 24.2389 174.71 24.2389L159.41 45.6952Z" fill="#EB9481"/>
<path d="M141.977 5.4635C145.046 11.478 146.492 13.8767 151.678 17.7306C151.775 17.8011 151.678 17.9687 151.572 17.8981C146.113 14.591 144.199 11.8748 141.642 5.55169C141.554 5.25184 141.836 5.17248 141.977 5.4635Z" fill="#263238"/>
<path d="M136.314 9.27317C139.356 15.4464 141.693 17.7658 146.896 22.2017C146.967 22.2634 146.896 22.3957 146.791 22.3428C141.358 18.4095 138.36 15.8785 136.129 9.32608C135.987 9.03506 136.173 8.99096 136.314 9.27317Z" fill="#263238"/>
<path d="M130.945 14.1589C134.323 19.9089 136.695 22.7397 142.268 26.4084C142.292 26.4266 142.309 26.453 142.315 26.4825C142.32 26.5121 142.315 26.5427 142.3 26.5687C142.285 26.5947 142.261 26.6143 142.232 26.6237C142.204 26.6332 142.173 26.6319 142.145 26.62C136.095 23.4364 133.114 19.9265 130.777 14.2736C130.619 13.8944 130.733 13.7974 130.945 14.1589Z" fill="#263238"/>
<path d="M178.831 26.3819C178.831 26.3819 176.538 17.3425 167.966 14.0355C164.501 12.695 159.659 2.42098 156.502 2.62381C152.974 2.86192 155.488 12.157 159.835 17.1573C159.835 17.1573 154.033 26.3643 157.983 31.3734C158.865 32.4581 165.039 35.8887 166.608 35.58L178.831 26.3819Z" fill="#EB9481"/>
<path d="M160.065 17.8099C157.684 21.3375 156.017 26.6288 157.719 30.5179C157.732 30.5413 157.735 30.5689 157.728 30.5945C157.72 30.6201 157.703 30.6418 157.679 30.6546C157.656 30.6675 157.628 30.6705 157.603 30.6631C157.577 30.6557 157.556 30.6383 157.543 30.6149C155.162 26.7082 157.031 20.5173 159.351 17.5101C159.792 16.928 160.682 16.928 160.065 17.8099Z" fill="#263238"/>
<path d="M232.114 140.648C221.426 135.56 190.806 125.162 169.888 120.109C151.165 115.603 131.817 122.102 113.112 128.381C101.286 132.35 90.1211 136.098 79.2915 137.094C36.7933 141.01 22.9124 110.814 21.9688 109.526L29.8176 111.484L31.2021 102.718C31.9958 103.794 42.3845 128.981 78.2509 125.647C87.7488 124.765 98.2962 121.238 109.47 117.481C128.774 110.999 150.654 103.653 172.578 108.927C194.263 114.139 227.537 124.501 235.324 129.589L232.114 140.648Z" fill="#7678ED"/>
<path d="M83.6133 362.54L91.8589 361.05C91.8589 361.05 83.0401 352.055 88.4637 346.516C93.8873 340.978 101.983 345.873 101.983 345.873C101.983 345.873 100.722 332.706 110.908 329.955C121.094 327.203 130.045 346.878 130.045 346.878C130.045 346.878 131.544 342.257 139.146 344.074C146.748 345.89 152.753 356.244 152.753 356.244L309.033 362.461" fill="white"/>
<path d="M83.6133 362.54L91.8501 361.015V361.076C90.0467 359.201 88.579 357.029 87.5112 354.656C86.9753 353.461 86.6759 352.173 86.6293 350.864C86.5979 349.535 87.0072 348.232 87.7934 347.16C88.1802 346.631 88.6338 346.153 89.1427 345.74C89.6492 345.319 90.2026 344.958 90.7919 344.664C91.9764 344.097 93.2707 343.796 94.584 343.782C97.2109 343.791 99.7908 344.48 102.071 345.784L101.851 345.925C101.715 343.944 101.845 341.954 102.239 340.008C102.607 338.05 103.343 336.18 104.408 334.496C105.225 333.234 106.29 332.152 107.54 331.316C108.789 330.481 110.197 329.909 111.675 329.637C112.674 329.472 113.695 329.502 114.682 329.725C116.638 330.213 118.451 331.156 119.974 332.477C121.491 333.753 122.871 335.183 124.092 336.745C126.515 339.87 128.585 343.254 130.265 346.834H129.895C130.4 345.66 131.324 344.716 132.488 344.188C133.622 343.678 134.86 343.439 136.103 343.491C138.571 343.546 140.977 344.265 143.07 345.573C145.127 346.887 146.983 348.491 148.582 350.335C150.2 352.152 151.649 354.112 152.912 356.191L152.797 356.12L309.077 362.478L152.789 356.393H152.718V356.332C151.46 354.271 150.014 352.331 148.397 350.538C146.813 348.724 144.974 347.149 142.938 345.864C140.894 344.593 138.545 343.898 136.139 343.853C134.952 343.806 133.771 344.038 132.69 344.532C131.626 345.018 130.78 345.882 130.318 346.957L130.142 347.381L129.948 346.975C128.262 343.434 126.192 340.089 123.775 337.001C122.58 335.457 121.226 334.044 119.735 332.785C118.273 331.501 116.53 330.577 114.647 330.087C113.675 329.863 112.668 329.833 111.684 329.999C110.734 330.169 109.812 330.466 108.941 330.88C107.183 331.718 105.693 333.028 104.638 334.664C103.593 336.312 102.869 338.144 102.503 340.061C102.11 341.974 101.971 343.931 102.089 345.881V346.155L101.851 346.022C99.6213 344.736 97.0963 344.049 94.5222 344.029C93.2408 344.049 91.9795 344.35 90.8271 344.911C89.6817 345.478 88.6827 346.302 87.9081 347.319C87.156 348.34 86.7594 349.579 86.7793 350.846C86.8066 352.131 87.0821 353.397 87.5906 354.577C88.6298 356.945 90.0643 359.119 91.8325 361.006L91.8854 361.059H91.8149L83.6133 362.54Z" fill="#263238"/>
<path d="M187.746 133.664C183.337 133.84 178.927 133.928 174.518 133.999C170.109 134.069 165.699 134.069 161.29 134.105C156.88 134.14 152.471 134.105 148.061 133.999L141.438 133.875C139.234 133.805 137.029 133.761 134.824 133.664C137.029 133.567 139.234 133.523 141.438 133.443L148.061 133.32C152.471 133.249 156.88 133.258 161.29 133.223C165.699 133.187 170.109 133.223 174.518 133.329C178.927 133.434 183.328 133.478 187.746 133.664Z" fill="#263238"/>
<path d="M255.88 29.1333C251.471 29.3097 247.061 29.3979 242.652 29.4685C238.242 29.539 233.833 29.5302 229.424 29.5655C225.014 29.6008 220.605 29.5655 216.195 29.4685L209.572 29.345C207.367 29.2745 205.163 29.2304 202.949 29.1333C205.163 29.0275 207.359 28.9834 209.572 28.9129L216.195 28.7894C220.605 28.7189 225.014 28.7189 229.424 28.6924C233.833 28.6659 238.242 28.6924 242.652 28.7894C247.061 28.8864 251.462 28.9481 255.88 29.1333Z" fill="#263238"/>
<path d="M262.83 34.4776C259.938 34.6628 257.054 34.7422 254.161 34.8127C251.269 34.8833 248.385 34.9097 245.501 34.9185C242.617 34.9274 239.716 34.9185 236.832 34.8215L232.502 34.6981C231.064 34.6187 229.618 34.5834 228.172 34.4776C229.618 34.3806 231.064 34.3365 232.502 34.2659L236.841 34.1425C239.725 34.0631 242.617 34.0455 245.51 34.0366C248.402 34.0278 251.286 34.0366 254.17 34.1425C257.054 34.2483 259.938 34.3012 262.83 34.4776Z" fill="#263238"/>
<path d="M73.876 197.892C70.0045 198.068 66.1242 198.156 62.2527 198.227C58.3812 198.297 54.5009 198.297 50.6294 198.333C46.7579 198.368 42.8776 198.333 38.9973 198.227L33.1945 198.103C31.2543 198.033 29.3141 197.989 27.3828 197.892C29.3141 197.795 31.2543 197.751 33.1945 197.671L39.0061 197.548C42.8864 197.477 46.7579 197.486 50.6382 197.451C54.5185 197.415 58.39 197.451 62.2615 197.557C66.133 197.662 70.0045 197.715 73.876 197.892Z" fill="#263238"/>
<path d="M99.4952 189.946C95.6149 190.122 91.7434 190.21 87.8631 190.281C83.9828 190.351 80.1113 190.351 76.2398 190.387C72.3683 190.422 68.488 190.387 64.6077 190.281L58.796 190.157C56.8559 190.087 54.9245 190.043 52.9844 189.946C54.9245 189.84 56.8559 189.805 58.796 189.725L64.6077 189.602C68.488 189.531 72.3595 189.54 76.2398 189.505C80.1201 189.47 83.9916 189.505 87.8631 189.602C91.7346 189.699 95.6149 189.778 99.4952 189.946Z" fill="#263238"/>
<path d="M195.693 145.014C189.52 145.199 183.346 145.278 177.173 145.349L158.654 145.455L140.134 145.358L130.892 145.234C127.805 145.155 124.718 145.119 121.641 145.014C124.727 144.917 127.814 144.872 130.892 144.802L140.134 144.678L158.654 144.573L177.173 144.678C183.373 144.749 189.528 144.802 195.693 145.014Z" fill="#263238"/>
<path d="M290.328 346.666C285.865 346.852 281.403 346.931 276.941 347.001C272.478 347.072 268.007 347.072 263.545 347.107C259.082 347.143 254.62 347.107 250.158 347.001L243.455 346.878C241.224 346.807 238.993 346.763 236.762 346.666C238.993 346.569 241.224 346.525 243.455 346.446L250.158 346.322C254.62 346.261 259.082 346.261 263.545 346.225C268.007 346.19 272.478 346.225 276.941 346.331C281.403 346.437 285.865 346.481 290.328 346.666Z" fill="#263238"/>
<path d="M277.355 352.425C271.049 352.61 264.735 352.698 258.429 352.769L239.495 352.866L220.57 352.769L211.107 352.646C207.95 352.575 204.802 352.531 201.645 352.425C204.802 352.328 207.95 352.284 211.107 352.213L220.57 352.09L239.495 351.984L258.429 352.09C264.735 352.161 271.049 352.249 277.355 352.425Z" fill="#263238"/>
<path d="M157.868 137.967C152.577 138.144 147.224 138.232 141.906 138.302C136.588 138.373 131.262 138.364 125.944 138.408C120.626 138.452 115.299 138.408 109.973 138.302L101.992 138.179C99.346 138.108 96.7004 138.064 94.0547 137.967C96.7004 137.861 99.346 137.817 101.992 137.747L109.973 137.623C115.264 137.553 120.617 137.562 125.944 137.526C131.27 137.491 136.579 137.526 141.906 137.623C147.233 137.72 152.55 137.747 157.868 137.967Z" fill="#263238"/>
</svg>
