<svg width="124" height="124" viewBox="0 0 124 124" fill="none" xmlns="http://www.w3.org/2000/svg">
<path d="M0 62C0 27.7547 27.7547 0 62 0C96.2453 0 124 27.7547 124 62C124 96.2453 96.2453 124 62 124C27.7547 124 0 96.2453 0 62ZM42.3828 50.3992L53.7898 61.782L42.3828 73.3828C40.1305 75.6594 40.1305 79.3406 42.3828 81.3992C44.6594 83.8695 48.3406 83.8695 50.3992 81.3992L61.782 70.2102L73.3828 81.3992C75.6594 83.8695 79.3406 83.8695 81.3992 81.3992C83.8695 79.3406 83.8695 75.6594 81.3992 73.3828L70.2102 61.782L81.3992 50.3992C83.8695 48.3406 83.8695 44.6594 81.3992 42.3828C79.3406 40.1305 75.6594 40.1305 73.3828 42.3828L61.782 53.7898L50.3992 42.3828C48.3406 40.1305 44.6594 40.1305 42.3828 42.3828C40.1305 44.6594 40.1305 48.3406 42.3828 50.3992Z" fill="#D00000"/>
</svg>
