<svg width="23" height="18" viewBox="0 0 23 18" fill="none" xmlns="http://www.w3.org/2000/svg">
<path d="M11.4964 11.25C13.5596 11.25 15.2016 9.61312 15.2016 7.59375C15.2016 5.57438 13.529 3.9375 11.4964 3.9375C9.43323 3.9375 7.79125 5.57438 7.79125 7.59375C7.75891 9.61172 9.43359 11.25 11.4964 11.25ZM13.2933 12.375H9.70672C6.88562 12.375 4.6 14.4738 4.6 17.0613C4.6 17.5816 5.05641 18 5.62062 18H17.3794C17.9436 18 18.4 17.5816 18.4 17.0613C18.4 14.4738 16.1144 12.375 13.2933 12.375ZM18.4 5.625C19.9877 5.625 21.275 4.3657 21.275 2.8125C21.275 1.2593 19.9884 0 18.4 0C16.8123 0 15.525 1.2593 15.525 2.8125C15.525 4.3657 16.8116 5.625 18.4 5.625ZM6.60891 7.59375C6.60891 7.40218 6.64421 7.22004 6.66673 7.03441C6.27469 6.82383 5.84344 6.75 5.38703 6.75H3.16537C1.41738 6.75 0 8.21953 0 10.0301C0 10.3922 0.283439 10.6875 0.633219 10.6875H7.80275C7.06891 9.85078 6.60891 8.77852 6.60891 7.59375ZM4.6 5.625C6.18772 5.625 7.475 4.3657 7.475 2.8125C7.475 1.2593 6.18844 0 4.6 0C3.01228 0 1.725 1.2593 1.725 2.8125C1.725 4.3657 3.01228 5.625 4.6 5.625ZM19.8339 6.75H17.6115C17.1515 6.75 16.7174 6.85677 16.3228 7.03969C16.3444 7.22461 16.3803 7.40391 16.3803 7.59375C16.3803 8.77887 15.921 9.85113 15.1886 10.6875H22.3653C22.7161 10.6875 23 10.3922 23 10.0301C23 8.21953 21.5841 6.75 19.8339 6.75Z" fill="#212121"/>
</svg>
