<svg width="25" height="25" viewBox="0 0 25 25" fill="none" xmlns="http://www.w3.org/2000/svg">
<path fill-rule="evenodd" clip-rule="evenodd" d="M4.04078 0.800049H3.95078C3.53858 0.800049 3.18398 0.800049 2.87078 0.873849C2.38593 0.989706 1.94261 1.23753 1.58996 1.58987C1.2373 1.94221 0.989075 2.3853 0.872781 2.87005C0.800781 3.18325 0.800781 3.53605 0.800781 3.95005V8.45005C0.800781 8.86225 0.800781 9.21685 0.874581 9.53005C0.990438 10.0149 1.23826 10.4582 1.5906 10.8109C1.94294 11.1635 2.38603 11.4118 2.87078 11.528C3.18398 11.6 3.53678 11.6 3.95078 11.6H8.45078C8.86298 11.6 9.21758 11.6 9.53078 11.5262C10.0156 11.4104 10.459 11.1626 10.8116 10.8102C11.1643 10.4579 11.4125 10.0148 11.5288 9.53005C11.6008 9.21685 11.6008 8.86405 11.6008 8.45005V3.95005C11.6008 3.53785 11.6008 3.18325 11.527 2.87005C11.4111 2.38519 11.1633 1.94188 10.811 1.58922C10.4586 1.23657 10.0155 0.988342 9.53078 0.872049C9.21758 0.800049 8.86478 0.800049 8.45078 0.800049H4.04078ZM16.6408 0.800049H16.5508C16.1386 0.800049 15.784 0.800049 15.4708 0.873849C14.9859 0.989706 14.5426 1.23753 14.19 1.58987C13.8373 1.94221 13.5891 2.3853 13.4728 2.87005C13.4008 3.18325 13.4008 3.53605 13.4008 3.95005V8.45005C13.4008 8.86225 13.4008 9.21685 13.4746 9.53005C13.5904 10.0149 13.8383 10.4582 14.1906 10.8109C14.5429 11.1635 14.986 11.4118 15.4708 11.528C15.784 11.6 16.1368 11.6 16.5508 11.6H21.0508C21.463 11.6 21.8176 11.6 22.1308 11.5262C22.6156 11.4104 23.059 11.1626 23.4116 10.8102C23.7643 10.4579 24.0125 10.0148 24.1288 9.53005C24.2008 9.21685 24.2008 8.86405 24.2008 8.45005V3.95005C24.2008 3.53785 24.2008 3.18325 24.127 2.87005C24.0111 2.38519 23.7633 1.94188 23.411 1.58922C23.0586 1.23657 22.6155 0.988342 22.1308 0.872049C21.8176 0.800049 21.4648 0.800049 21.0508 0.800049H16.6408ZM3.95078 13.4H8.45078C8.86298 13.4 9.21758 13.4001 9.53078 13.4739C10.0156 13.5897 10.459 13.8375 10.8116 14.1899C11.1643 14.5422 11.4125 14.9853 11.5288 15.47C11.6008 15.7832 11.6008 16.136 11.6008 16.55V21.05C11.6008 21.4622 11.6008 21.8169 11.527 22.1301C11.4111 22.6149 11.1633 23.0582 10.811 23.4109C10.4586 23.7635 10.0155 24.0118 9.53078 24.128C9.21758 24.2001 8.86478 24.2001 8.45078 24.2001H3.95078C3.53858 24.2001 3.18398 24.2 2.87078 24.1262C2.38593 24.0104 1.94261 23.7626 1.58996 23.4102C1.2373 23.0579 0.989075 22.6148 0.872781 22.1301C0.800781 21.8169 0.800781 21.464 0.800781 21.05V16.55C0.800781 16.1378 0.800781 15.7832 0.874581 15.47C0.990438 14.9852 1.23826 14.5419 1.5906 14.1892C1.94294 13.8366 2.38603 13.5883 2.87078 13.472C3.18398 13.4001 3.53678 13.4 3.95078 13.4ZM16.6408 13.4H16.5508C16.1386 13.4 15.784 13.4001 15.4708 13.4739C14.9859 13.5897 14.5426 13.8375 14.19 14.1899C13.8373 14.5422 13.5891 14.9853 13.4728 15.47C13.4008 15.7832 13.4008 16.136 13.4008 16.55V21.05C13.4008 21.4622 13.4008 21.8169 13.4746 22.1301C13.5904 22.6149 13.8383 23.0582 14.1906 23.4109C14.5429 23.7635 14.986 24.0118 15.4708 24.128C15.784 24.2018 16.1386 24.2019 16.5508 24.2019H21.0508C21.463 24.2019 21.8176 24.2018 22.1308 24.128C22.6153 24.0119 23.0582 23.7639 23.4106 23.4116C23.7629 23.0593 24.0108 22.6164 24.127 22.1318C24.2008 21.8186 24.2008 21.4641 24.2008 21.0519V16.55C24.2008 16.1378 24.2008 15.7832 24.127 15.47C24.0111 14.9852 23.7633 14.5419 23.411 14.1892C23.0586 13.8366 22.6155 13.5883 22.1308 13.472C21.8176 13.4001 21.4648 13.4 21.0508 13.4H16.6408Z" fill="#F18701"/>
</svg>
