<svg width="27" height="27" viewBox="0 0 27 27" fill="none" xmlns="http://www.w3.org/2000/svg">
<path fill-rule="evenodd" clip-rule="evenodd" d="M5.04078 1.80005H4.95078C4.53858 1.80005 4.18398 1.80005 3.87078 1.87385C3.38593 1.98971 2.94261 2.23753 2.58996 2.58987C2.2373 2.94221 1.98907 3.3853 1.87278 3.87005C1.80078 4.18325 1.80078 4.53605 1.80078 4.95005V9.45005C1.80078 9.86225 1.80078 10.2168 1.87458 10.53C1.99044 11.0149 2.23826 11.4582 2.5906 11.8109C2.94294 12.1635 3.38603 12.4118 3.87078 12.528C4.18398 12.6 4.53678 12.6 4.95078 12.6H9.45078C9.86298 12.6 10.2176 12.6 10.5308 12.5262C11.0156 12.4104 11.459 12.1626 11.8116 11.8102C12.1643 11.4579 12.4125 11.0148 12.5288 10.53C12.6008 10.2168 12.6008 9.86405 12.6008 9.45005V4.95005C12.6008 4.53785 12.6008 4.18325 12.527 3.87005C12.4111 3.38519 12.1633 2.94188 11.811 2.58922C11.4586 2.23657 11.0155 1.98834 10.5308 1.87205C10.2176 1.80005 9.86478 1.80005 9.45078 1.80005H5.04078ZM17.6408 1.80005H17.5508C17.1386 1.80005 16.784 1.80005 16.4708 1.87385C15.9859 1.98971 15.5426 2.23753 15.19 2.58987C14.8373 2.94221 14.5891 3.3853 14.4728 3.87005C14.4008 4.18325 14.4008 4.53605 14.4008 4.95005V9.45005C14.4008 9.86225 14.4008 10.2168 14.4746 10.53C14.5904 11.0149 14.8383 11.4582 15.1906 11.8109C15.5429 12.1635 15.986 12.4118 16.4708 12.528C16.784 12.6 17.1368 12.6 17.5508 12.6H22.0508C22.463 12.6 22.8176 12.6 23.1308 12.5262C23.6156 12.4104 24.059 12.1626 24.4116 11.8102C24.7643 11.4579 25.0125 11.0148 25.1288 10.53C25.2008 10.2168 25.2008 9.86405 25.2008 9.45005V4.95005C25.2008 4.53785 25.2008 4.18325 25.127 3.87005C25.0111 3.38519 24.7633 2.94188 24.411 2.58922C24.0586 2.23657 23.6155 1.98834 23.1308 1.87205C22.8176 1.80005 22.4648 1.80005 22.0508 1.80005H17.6408ZM4.95078 14.4H9.45078C9.86298 14.4 10.2176 14.4001 10.5308 14.4739C11.0156 14.5897 11.459 14.8375 11.8116 15.1899C12.1643 15.5422 12.4125 15.9853 12.5288 16.47C12.6008 16.7832 12.6008 17.136 12.6008 17.55V22.05C12.6008 22.4622 12.6008 22.8169 12.527 23.1301C12.4111 23.6149 12.1633 24.0582 11.811 24.4109C11.4586 24.7635 11.0155 25.0118 10.5308 25.128C10.2176 25.2001 9.86478 25.2001 9.45078 25.2001H4.95078C4.53858 25.2001 4.18398 25.2 3.87078 25.1262C3.38593 25.0104 2.94261 24.7626 2.58996 24.4102C2.2373 24.0579 1.98907 23.6148 1.87278 23.1301C1.80078 22.8169 1.80078 22.464 1.80078 22.05V17.55C1.80078 17.1378 1.80078 16.7832 1.87458 16.47C1.99044 15.9852 2.23826 15.5419 2.5906 15.1892C2.94294 14.8366 3.38603 14.5883 3.87078 14.472C4.18398 14.4001 4.53678 14.4 4.95078 14.4ZM17.6408 14.4H17.5508C17.1386 14.4 16.784 14.4001 16.4708 14.4739C15.9859 14.5897 15.5426 14.8375 15.19 15.1899C14.8373 15.5422 14.5891 15.9853 14.4728 16.47C14.4008 16.7832 14.4008 17.136 14.4008 17.55V22.05C14.4008 22.4622 14.4008 22.8169 14.4746 23.1301C14.5904 23.6149 14.8383 24.0582 15.1906 24.4109C15.5429 24.7635 15.986 25.0118 16.4708 25.128C16.784 25.2018 17.1386 25.2019 17.5508 25.2019H22.0508C22.463 25.2019 22.8176 25.2018 23.1308 25.128C23.6153 25.0119 24.0582 24.7639 24.4106 24.4116C24.7629 24.0593 25.0108 23.6164 25.127 23.1318C25.2008 22.8186 25.2008 22.4641 25.2008 22.0519V17.55C25.2008 17.1378 25.2008 16.7832 25.127 16.47C25.0111 15.9852 24.7633 15.5419 24.411 15.1892C24.0586 14.8366 23.6155 14.5883 23.1308 14.472C22.8176 14.4001 22.4648 14.4 22.0508 14.4H17.6408Z" fill="black"/>
</svg>
