<svg width="191" height="43" viewBox="0 0 191 43" fill="none" xmlns="http://www.w3.org/2000/svg">
<mask id="path-1-inside-1_435_3501" fill="white">
<ellipse cx="33.0367" cy="10.2286" rx="10.1842" ry="10.2555" transform="rotate(-90 33.0367 10.2286)"/>
</mask>
<ellipse cx="33.0367" cy="10.2286" rx="10.1842" ry="10.2555" transform="rotate(-90 33.0367 10.2286)" fill="#F18701"/>
<path d="M33.0367 14.0444C31.0609 14.0444 29.2922 12.428 29.2922 10.2286L57.2922 10.2286C57.2922 -3.21984 46.3404 -13.9556 33.0367 -13.9556V14.0444ZM29.2922 10.2286C29.2922 8.02932 31.0609 6.41284 33.0367 6.41284V34.4128C46.3404 34.4128 57.2922 23.6771 57.2922 10.2286L29.2922 10.2286ZM33.0367 6.41284C35.0125 6.41284 36.7812 8.02932 36.7812 10.2286H8.78125C8.78125 23.6771 19.733 34.4128 33.0367 34.4128V6.41284ZM36.7812 10.2286C36.7812 12.428 35.0125 14.0444 33.0367 14.0444V-13.9556C19.733 -13.9556 8.78125 -3.21984 8.78125 10.2286H36.7812Z" fill="#F18701" mask="url(#path-1-inside-1_435_3501)"/>
<mask id="path-3-inside-2_435_3501" fill="white">
<ellipse cx="33.0367" cy="32.8158" rx="10.1842" ry="10.2555" transform="rotate(-90 33.0367 32.8158)"/>
</mask>
<ellipse cx="33.0367" cy="32.8158" rx="10.1842" ry="10.2555" transform="rotate(-90 33.0367 32.8158)" fill="#7678ED"/>
<path d="M33.0367 36.6316C31.0609 36.6316 29.2922 35.0151 29.2922 32.8158H57.2922C57.2922 19.3673 46.3404 8.6316 33.0367 8.6316V36.6316ZM29.2922 32.8158C29.2922 30.6165 31.0609 29 33.0367 29V57C46.3404 57 57.2922 46.2643 57.2922 32.8158H29.2922ZM33.0367 29C35.0125 29 36.7812 30.6165 36.7812 32.8158H8.78125C8.78125 46.2643 19.733 57 33.0367 57V29ZM36.7812 32.8158C36.7812 35.0151 35.0125 36.6316 33.0367 36.6316V8.6316C19.733 8.6316 8.78125 19.3673 8.78125 32.8158H36.7812Z" fill="#7678ED" mask="url(#path-3-inside-2_435_3501)"/>
<mask id="path-5-inside-3_435_3501" fill="white">
<ellipse cx="55.818" cy="10.1842" rx="10.1842" ry="10.2555" transform="rotate(-90 55.818 10.1842)"/>
</mask>
<ellipse cx="55.818" cy="10.1842" rx="10.1842" ry="10.2555" transform="rotate(-90 55.818 10.1842)" fill="#F7B801"/>
<path d="M55.818 14C53.8422 14 52.0735 12.3835 52.0735 10.1842L80.0735 10.1842C80.0735 -3.26427 69.1217 -14 55.818 -14V14ZM52.0735 10.1842C52.0735 7.98489 53.8422 6.36841 55.818 6.36841V34.3684C69.1217 34.3684 80.0735 23.6327 80.0735 10.1842L52.0735 10.1842ZM55.818 6.36841C57.7938 6.36841 59.5625 7.98489 59.5625 10.1842H31.5625C31.5625 23.6327 42.5143 34.3684 55.818 34.3684V6.36841ZM59.5625 10.1842C59.5625 12.3835 57.7938 14 55.818 14V-14C42.5143 -14 31.5625 -3.26427 31.5625 10.1842H59.5625Z" fill="#F7B801" mask="url(#path-5-inside-3_435_3501)"/>
<mask id="path-7-inside-4_435_3501" fill="white">
<ellipse cx="10.2555" cy="32.8158" rx="10.1842" ry="10.2555" transform="rotate(-90 10.2555 32.8158)"/>
</mask>
<ellipse cx="10.2555" cy="32.8158" rx="10.1842" ry="10.2555" transform="rotate(-90 10.2555 32.8158)" fill="#18124D"/>
<path d="M10.2555 36.6316C8.27968 36.6316 6.51097 35.0151 6.51097 32.8158H34.511C34.511 19.3673 23.5592 8.6316 10.2555 8.6316L10.2555 36.6316ZM6.51097 32.8158C6.51097 30.6165 8.27968 29 10.2555 29V57C23.5592 57 34.511 46.2643 34.511 32.8158H6.51097ZM10.2555 29C12.2313 29 14 30.6165 14 32.8158H-14C-14 46.2643 -3.04822 57 10.2555 57V29ZM14 32.8158C14 35.0151 12.2313 36.6316 10.2555 36.6316L10.2555 8.6316C-3.04822 8.6316 -14 19.3673 -14 32.8158H14Z" fill="#18124D" mask="url(#path-7-inside-4_435_3501)"/>
<path d="M87.7545 34.2821C86.039 34.2821 84.5017 34.0056 83.1427 33.4525C81.7836 32.8993 80.6919 32.0807 79.8676 30.9966C79.0655 29.9125 78.6422 28.6072 78.5977 27.0806H84.6799C84.7691 27.9434 85.0698 28.6072 85.5823 29.0718C86.0947 29.5143 86.7631 29.7355 87.5874 29.7355C88.434 29.7355 89.1024 29.5475 89.5925 29.1713C90.0827 28.7731 90.3278 28.231 90.3278 27.5452C90.3278 26.9699 90.1272 26.4943 89.7262 26.1181C89.3475 25.742 88.8685 25.4323 88.2892 25.1889C87.7322 24.9455 86.9302 24.669 85.883 24.3592C84.368 23.8946 83.1315 23.43 82.1735 22.9654C81.2155 22.5008 80.3911 21.8149 79.7005 20.9078C79.0098 20.0007 78.6645 18.817 78.6645 17.3568C78.6645 15.1886 79.4554 13.496 81.0373 12.2792C82.6191 11.0402 84.6799 10.4207 87.2198 10.4207C89.8042 10.4207 91.8873 11.0402 93.4692 12.2792C95.051 13.496 95.8976 15.1996 96.009 17.39H89.8265C89.7819 16.6377 89.5034 16.0514 88.991 15.631C88.4786 15.1885 87.8213 14.9673 87.0193 14.9673C86.3286 14.9673 85.7716 15.1554 85.3483 15.5315C84.925 15.8855 84.7134 16.4054 84.7134 17.0913C84.7134 17.8435 85.0698 18.4298 85.7828 18.8502C86.4957 19.2706 87.6097 19.7241 89.1247 20.2108C90.6397 20.7197 91.865 21.2065 92.8008 21.6711C93.7588 22.1357 94.5831 22.8105 95.2738 23.6955C95.9645 24.5805 96.3098 25.7199 96.3098 27.1137C96.3098 28.4412 95.9645 29.647 95.2738 30.7311C94.6054 31.8152 93.6251 32.6781 92.3329 33.3197C91.0407 33.9613 89.5146 34.2821 87.7545 34.2821Z" fill="#F18701"/>
<path d="M111.223 34.0498L105.541 26.2841V34.0498H99.8266V9.49145H105.541V23.0649L111.189 15.5315H118.241L110.487 24.8238L118.307 34.0498H111.223Z" fill="#F18701"/>
<path d="M123.359 13.6066C122.357 13.6066 121.532 13.319 120.886 12.7438C120.262 12.1464 119.95 11.4163 119.95 10.5534C119.95 9.66845 120.262 8.93833 120.886 8.36309C121.532 7.76572 122.357 7.46704 123.359 7.46704C124.339 7.46704 125.142 7.76572 125.765 8.36309C126.411 8.93833 126.734 9.66845 126.734 10.5534C126.734 11.4163 126.411 12.1464 125.765 12.7438C125.142 13.319 124.339 13.6066 123.359 13.6066ZM126.2 15.5315V34.0498H120.485V15.5315H126.2Z" fill="#F18701"/>
<path d="M136.056 9.49145V34.0498H130.341V9.49145H136.056Z" fill="#F18701"/>
<path d="M145.912 9.49145V34.0498H140.197V9.49145H145.912Z" fill="#F18701"/>
<path d="M152.927 13.6066C151.925 13.6066 151.1 13.319 150.454 12.7438C149.83 12.1464 149.518 11.4163 149.518 10.5534C149.518 9.66845 149.83 8.93833 150.454 8.36309C151.1 7.76572 151.925 7.46704 152.927 7.46704C153.908 7.46704 154.71 7.76572 155.333 8.36309C155.98 8.93833 156.303 9.66845 156.303 10.5534C156.303 11.4163 155.98 12.1464 155.333 12.7438C154.71 13.319 153.908 13.6066 152.927 13.6066ZM155.768 15.5315V34.0498H150.053V15.5315H155.768Z" fill="#F18701"/>
<path d="M169.267 20.244H166.192V34.0498H160.477V20.244H158.405V15.5315H160.477V15.0005C160.477 12.7217 161.135 10.9959 162.449 9.82332C163.764 8.62859 165.691 8.03122 168.231 8.03122C168.654 8.03122 168.966 8.04228 169.166 8.06441V12.8765C168.075 12.8101 167.306 12.965 166.86 13.3411C166.415 13.7173 166.192 14.3921 166.192 15.3655V15.5315H169.267V20.244Z" fill="#F18701"/>
<path d="M191.001 15.5315L179.304 42.8444H173.155L177.433 33.4193L169.846 15.5315H176.229L180.541 27.1137L184.818 15.5315H191.001Z" fill="#F18701"/>
</svg>
