<svg width="686" height="156" viewBox="0 0 686 156" fill="none" xmlns="http://www.w3.org/2000/svg">
<path d="M118.63 7.16111C135.102 7.16111 148.455 20.5142 148.455 36.9859C148.455 53.4576 135.102 66.8107 118.63 66.8107C102.158 66.8107 88.8047 53.4576 88.8047 36.9859C88.8047 20.5142 102.158 7.16111 118.63 7.16111Z" fill="#F18701" stroke="#F18701" stroke-width="14"/>
<path d="M118.63 88.833C135.102 88.833 148.455 102.186 148.455 118.658C148.455 135.129 135.102 148.483 118.63 148.483C102.158 148.483 88.8047 135.129 88.8047 118.658C88.8047 102.186 102.158 88.833 118.63 88.833Z" fill="#7678ED" stroke="#7678ED" stroke-width="14"/>
<path d="M200.432 6.99998C216.904 6.99998 230.257 20.353 230.257 36.8248C230.257 53.2965 216.904 66.6495 200.432 66.6495C183.96 66.6495 170.607 53.2965 170.607 36.8248C170.607 20.353 183.96 6.99998 200.432 6.99998Z" fill="#F7B801" stroke="#F7B801" stroke-width="14"/>
<path d="M36.825 88.833C53.2969 88.833 66.65 102.186 66.65 118.658C66.65 135.129 53.2969 148.483 36.825 148.483C20.3531 148.483 7 135.129 7 118.658C7 102.186 20.3531 88.833 36.825 88.833Z" fill="white" stroke="white" stroke-width="14"/>
<path d="M315.103 123.96C308.943 123.96 303.423 122.96 298.543 120.96C293.663 118.96 289.743 116 286.783 112.08C283.903 108.16 282.383 103.44 282.223 97.9201H304.063C304.383 101.04 305.463 103.44 307.303 105.12C309.143 106.72 311.543 107.52 314.503 107.52C317.543 107.52 319.943 106.84 321.703 105.48C323.463 104.04 324.343 102.08 324.343 99.6001C324.343 97.5201 323.623 95.8001 322.183 94.4401C320.823 93.0801 319.103 91.9601 317.023 91.0801C315.023 90.2001 312.143 89.2001 308.383 88.0801C302.943 86.4001 298.503 84.7201 295.063 83.0401C291.623 81.3601 288.663 78.8801 286.183 75.6001C283.703 72.3201 282.463 68.0401 282.463 62.7601C282.463 54.9201 285.303 48.8001 290.983 44.4001C296.663 39.9201 304.063 37.6801 313.183 37.6801C322.463 37.6801 329.943 39.9201 335.623 44.4001C341.303 48.8001 344.343 54.9601 344.743 62.8801H322.543C322.383 60.1601 321.383 58.0401 319.543 56.5201C317.703 54.9201 315.343 54.1201 312.463 54.1201C309.983 54.1201 307.983 54.8001 306.463 56.1601C304.943 57.4401 304.183 59.3201 304.183 61.8001C304.183 64.5201 305.463 66.6401 308.023 68.1601C310.583 69.6801 314.583 71.3201 320.023 73.0801C325.463 74.9201 329.863 76.6801 333.223 78.3601C336.663 80.0401 339.623 82.4801 342.103 85.6801C344.583 88.8801 345.823 93.0001 345.823 98.0401C345.823 102.84 344.583 107.2 342.103 111.12C339.703 115.04 336.183 118.16 331.543 120.48C326.903 122.8 321.423 123.96 315.103 123.96Z" fill="#F18701"/>
<path d="M399.371 123.12L378.971 95.0401V123.12H358.451V34.3201H378.971V83.4001L399.251 56.1601H424.571L396.731 89.7601L424.811 123.12H399.371Z" fill="#F18701"/>
<path d="M442.95 49.2001C439.35 49.2001 436.39 48.1601 434.07 46.0801C431.83 43.9201 430.71 41.2801 430.71 38.1601C430.71 34.9601 431.83 32.3201 434.07 30.2401C436.39 28.0801 439.35 27.0001 442.95 27.0001C446.47 27.0001 449.35 28.0801 451.59 30.2401C453.91 32.3201 455.07 34.9601 455.07 38.1601C455.07 41.2801 453.91 43.9201 451.59 46.0801C449.35 48.1601 446.47 49.2001 442.95 49.2001ZM453.15 56.1601V123.12H432.63V56.1601H453.15Z" fill="#F18701"/>
<path d="M488.541 34.3201V123.12H468.021V34.3201H488.541Z" fill="#F18701"/>
<path d="M523.932 34.3201V123.12H503.412V34.3201H523.932Z" fill="#F18701"/>
<path d="M549.122 49.2001C545.522 49.2001 542.562 48.1601 540.242 46.0801C538.002 43.9201 536.882 41.2801 536.882 38.1601C536.882 34.9601 538.002 32.3201 540.242 30.2401C542.562 28.0801 545.522 27.0001 549.122 27.0001C552.642 27.0001 555.522 28.0801 557.762 30.2401C560.082 32.3201 561.242 34.9601 561.242 38.1601C561.242 41.2801 560.082 43.9201 557.762 46.0801C555.522 48.1601 552.642 49.2001 549.122 49.2001ZM559.322 56.1601V123.12H538.802V56.1601H559.322Z" fill="#F18701"/>
<path d="M607.793 73.2001H596.753V123.12H576.233V73.2001H568.793V56.1601H576.233V54.2401C576.233 46.0001 578.593 39.7601 583.313 35.5201C588.033 31.2001 594.953 29.0401 604.073 29.0401C605.593 29.0401 606.713 29.0801 607.433 29.1601V46.5601C603.513 46.3201 600.753 46.8801 599.153 48.2401C597.553 49.6001 596.753 52.0401 596.753 55.5601V56.1601H607.793V73.2001Z" fill="#F18701"/>
<path d="M685.835 56.1601L643.835 154.92H621.755L637.115 120.84L609.875 56.1601H632.795L648.275 98.0401L663.635 56.1601H685.835Z" fill="#F18701"/>
</svg>
