<svg width="28" height="26" viewBox="0 0 28 26" fill="none" xmlns="http://www.w3.org/2000/svg">
<path d="M27.2222 22.1098H23.3333V2.50462C23.3333 1.12276 22.2882 0 21 0H7C5.71181 0 4.66667 1.12276 4.66667 2.50462V22.1098H0.777778C0.346354 22.1098 0 22.4602 0 22.8994V24.4787C0 24.9179 0.346354 25.2683 0.777778 25.2683H27.2222C27.6536 25.2683 28 24.9167 28 24.4787V22.8994C28 22.4602 27.6549 22.1098 27.2222 22.1098ZM18.6667 14.2134C17.8101 14.2134 17.1111 13.5037 17.1111 12.6341C17.1111 11.7646 17.8101 11.0549 18.6667 11.0549C19.5232 11.0549 20.2222 11.7646 20.2222 12.6341C20.2222 13.5037 19.5222 14.2134 18.6667 14.2134Z" fill="#212121"/>
</svg>
