<?xml version="1.0" encoding="iso-8859-1"?>
<!-- Generator: Adobe Illustrator 19.0.0, SVG Export Plug-In . SVG Version: 6.00 Build 0)  -->
<svg version="1.1" id="Layer_1" xmlns="http://www.w3.org/2000/svg" xmlns:xlink="http://www.w3.org/1999/xlink" x="0px" y="0px"
	 viewBox="0 0 512 512" style="enable-background:new 0 0 512 512;" xml:space="preserve">
<path style="fill:#515BE0;" d="M507.246,364.672c2.185,2.411,0.871,6.287-2.326,6.901l-35.912,6.894l-6.565,1.26
	c0,0-2.639,25.317-4.091,39.212c-0.365,3.494-4.618,5.007-7.106,2.527c-21.806-21.751-99.092-93.516-195.246-121.186
	c0,0,11.18-8.025,35.846-13.056c12.268-2.51,27.89-4.276,47.134-3.943c3.838,0.065,7.816,0.205,11.945,0.453
	C409.695,287.208,474.3,328.318,507.246,364.672z"/>
<g>
	<path style="fill:#6E76E5;" d="M222.576,286.664c0,0-12.476-197.35-160.29-197.35c-146.988,0-4.784,197.356,127.445,197.356
		L222.576,286.664z"/>
	<path style="fill:#6E76E5;" d="M488.576,191.046c-34.412,48.304-101.556,95.628-166.305,95.628h-32.849
		c0,0,1.801-28.407,12.107-63.677C318.379,165.32,357.989,89.31,449.711,89.31C524.724,89.31,524.422,140.706,488.576,191.046z"/>
</g>
<g>
	<path style="fill:#515BE0;" d="M76.71,89.973c-4.661-0.43-9.463-0.658-14.424-0.658c-146.988,0-4.784,197.356,127.445,197.356
		l32.846-0.007c0,0-0.1-1.577-0.386-4.436C106.102,270.225-9.363,117.782,76.71,89.973z"/>
	<path style="fill:#515BE0;" d="M256,300.28c-96.719,27.835-173.518,99.384-195.246,121.162c-2.485,2.49-6.747,0.974-7.112-2.525
		l-4.084-39.189l-16.937-3.253L7.11,371.578c-3.206-0.616-4.518-4.514-2.31-6.918c32.997-35.941,97.962-73.027,156.276-80.926
		c17.044-2.305,34.844-0.473,50.357,2.693C236.756,291.587,256,300.28,256,300.28z"/>
	<path style="fill:#515BE0;" d="M488.576,191.046c-34.412,48.304-101.556,95.628-166.305,95.628h-32.849
		c0,0,1.801-28.407,12.107-63.677C387.419,263.212,454.939,221.08,488.576,191.046z"/>
	<path style="fill:#515BE0;" d="M214.466,294.752c-3.402,0-6.566-2.162-7.681-5.566l0,0c-0.067-0.203-6.925-20.585-27.198-48.066
		C160.885,215.768,126.594,179,69.45,147.806c-3.919-2.139-5.36-7.048-3.22-10.964c2.141-3.915,7.053-5.357,10.972-3.217
		c60.117,32.819,96.214,71.733,115.911,98.6c21.571,29.425,28.749,51.041,29.044,51.946c1.383,4.244-0.941,8.802-5.186,10.183
		C216.139,294.624,215.296,294.752,214.466,294.752z"/>
	<path style="fill:#515BE0;" d="M290.749,294.752c-0.83,0-1.673-0.129-2.505-0.399c-4.246-1.382-6.568-5.939-5.186-10.183
		c0.295-0.906,7.473-22.52,29.044-51.946c19.696-26.866,55.794-65.781,115.911-98.6c3.921-2.137,8.832-0.697,10.972,3.217
		c2.14,3.916,0.699,8.825-3.22,10.964c-109.759,59.918-137.067,140.558-137.33,141.366
		C297.325,292.584,294.155,294.752,290.749,294.752z"/>
</g>
<g>
	<path style="fill:#444DBD;" d="M256,300.28c-96.719,27.835-173.518,99.384-195.246,121.162c-2.485,2.49-6.747,0.974-7.112-2.525
		l-4.084-39.189c0,0,70.603-69.989,161.873-93.302C236.756,291.587,256,300.28,256,300.28z"/>
	<path style="fill:#444DBD;" d="M462.442,379.728c0,0-2.635,25.284-4.088,39.184c-0.366,3.501-4.624,5.013-7.111,2.522
		c-21.734-21.778-98.532-93.323-195.243-121.154c0,0,11.18-8.025,35.846-13.056C414.658,315.125,462.442,379.728,462.442,379.728z"
		/>
</g>
<path style="fill:#FFE666;" d="M292.208,289.552c-15.968,12.129-36.208,14.747-36.208,14.747s-20.24-2.618-36.208-14.747
	c0,0-23.272-48.636-10.77-70.903c12.522-22.266,46.977-18.771,46.977-18.771s34.455-3.497,46.977,18.771
	C315.48,240.916,292.208,289.552,292.208,289.552z"/>
<path style="fill:#E6B930;" d="M279.747,280.571c0,0-20.24-2.618-36.208-14.747c0,0-18.623-38.926-13.594-63.074
	c-8.079,2.611-16.115,7.353-20.921,15.899c-12.502,22.268,10.77,70.903,10.77,70.903c15.968,12.13,36.208,14.747,36.208,14.747
	s20.24-2.618,36.208-14.747c0,0,2.69-5.624,5.749-13.917C287.911,279.511,279.747,280.571,279.747,280.571z"/>
<g>
</g>
<g>
</g>
<g>
</g>
<g>
</g>
<g>
</g>
<g>
</g>
<g>
</g>
<g>
</g>
<g>
</g>
<g>
</g>
<g>
</g>
<g>
</g>
<g>
</g>
<g>
</g>
<g>
</g>
</svg>
