<svg width="160" height="160" viewBox="0 0 160 160" fill="none" xmlns="http://www.w3.org/2000/svg">
<path d="M95.664 49.6C95.8933 49.1159 96.0231 48.5908 96.0456 48.0556C96.0682 47.5204 95.983 46.9862 95.7951 46.4846C95.6073 45.983 95.3206 45.5242 94.9521 45.1355C94.5836 44.7468 94.1408 44.436 93.6499 44.2216C93.1591 44.0073 92.6301 43.8937 92.0946 43.8876C91.559 43.8816 91.0276 43.9831 90.532 44.1863C90.0364 44.3894 89.5866 44.6901 89.2094 45.0703C88.8322 45.4506 88.5352 45.9028 88.336 46.4L60.336 110.4C60.1067 110.884 59.9769 111.409 59.9544 111.944C59.9318 112.48 60.017 113.014 60.2049 113.515C60.3927 114.017 60.6794 114.476 61.0479 114.865C61.4164 115.253 61.8592 115.564 62.3501 115.778C62.8409 115.993 63.3699 116.106 63.9055 116.112C64.4411 116.118 64.9724 116.017 65.468 115.814C65.9636 115.611 66.4134 115.31 66.7906 114.93C67.1678 114.549 67.4648 114.097 67.664 113.6L95.664 49.6ZM54.832 61.168C55.2045 61.5396 55.5 61.981 55.7017 62.4669C55.9034 62.9529 56.0071 63.4739 56.0071 64C56.0071 64.5261 55.9034 65.0471 55.7017 65.5331C55.5 66.019 55.2045 66.4604 54.832 66.832L41.656 80L54.832 93.168C55.5831 93.9191 56.0051 94.9378 56.0051 96C56.0051 97.0622 55.5831 98.0809 54.832 98.832C54.0809 99.5831 53.0622 100.005 52 100.005C50.9378 100.005 49.9191 99.5831 49.168 98.832L33.168 82.832C32.7955 82.4604 32.5 82.019 32.2983 81.5331C32.0966 81.0471 31.9928 80.5261 31.9928 80C31.9928 79.4739 32.0966 78.9529 32.2983 78.4669C32.5 77.981 32.7955 77.5396 33.168 77.168L49.168 61.168C49.5396 60.7955 49.981 60.5 50.4669 60.2983C50.9529 60.0966 51.4739 59.9929 52 59.9929C52.5261 59.9929 53.0471 60.0966 53.5331 60.2983C54.019 60.5 54.4604 60.7955 54.832 61.168ZM105.168 66.832C104.417 66.0809 103.995 65.0622 103.995 64C103.995 62.9378 104.417 61.9191 105.168 61.168C105.919 60.4169 106.938 59.9949 108 59.9949C109.062 59.9949 110.081 60.4169 110.832 61.168L126.832 77.168C127.205 77.5396 127.5 77.981 127.702 78.4669C127.903 78.9529 128.007 79.4739 128.007 80C128.007 80.5261 127.903 81.0471 127.702 81.5331C127.5 82.019 127.205 82.4604 126.832 82.832L110.832 98.832C110.081 99.5831 109.062 100.005 108 100.005C106.938 100.005 105.919 99.5831 105.168 98.832C104.417 98.0809 103.995 97.0622 103.995 96C103.995 94.9378 104.417 93.9191 105.168 93.168L118.344 80L105.168 66.832ZM80 16C63.0261 16 46.7475 22.7428 34.7452 34.7452C22.7428 46.7475 16 63.0261 16 80C16 96.9739 22.7428 113.253 34.7452 125.255C46.7475 137.257 63.0261 144 80 144C96.9739 144 113.253 137.257 125.255 125.255C137.257 113.253 144 96.9739 144 80C144 63.0261 137.257 46.7475 125.255 34.7452C113.253 22.7428 96.9739 16 80 16ZM24 80C24 72.646 25.4485 65.364 28.2627 58.5697C31.077 51.7755 35.2019 45.6021 40.402 40.402C45.6021 35.2019 51.7755 31.077 58.5697 28.2627C65.364 25.4485 72.646 24 80 24C87.354 24 94.636 25.4485 101.43 28.2627C108.225 31.077 114.398 35.2019 119.598 40.402C124.798 45.6021 128.923 51.7755 131.737 58.5697C134.552 65.364 136 72.646 136 80C136 94.8521 130.1 109.096 119.598 119.598C109.096 130.1 94.8521 136 80 136C65.1479 136 50.9041 130.1 40.402 119.598C29.9 109.096 24 94.8521 24 80Z" fill="#F18701"/>
</svg>
