<svg width="160" height="160" viewBox="0 0 160 160" fill="none" xmlns="http://www.w3.org/2000/svg">
<path d="M98.5706 102.857C101.981 102.857 105.251 104.212 107.662 106.623C110.073 109.034 111.428 112.304 111.428 115.714V124.297L111.382 124.914C109.611 137.069 98.6963 142.909 80.382 142.909C62.1363 142.909 51.0449 137.137 48.6506 125.126L48.5706 124.286V115.714C48.5706 112.304 49.9252 109.034 52.3364 106.623C54.7475 104.212 58.0178 102.857 61.4277 102.857H98.5706ZM98.5706 111.429H61.4277C60.2911 111.429 59.201 111.88 58.3973 112.684C57.5935 113.488 57.142 114.578 57.142 115.714V123.829C58.742 130.686 65.9992 134.337 80.382 134.337C94.7592 134.337 101.696 130.731 102.856 123.96V115.714C102.856 114.578 102.405 113.488 101.601 112.684C100.797 111.88 99.7072 111.429 98.5706 111.429ZM104.251 68.5657L135.713 68.5714C139.123 68.5714 142.394 69.926 144.805 72.3372C147.216 74.7484 148.571 78.0186 148.571 81.4286V90.0114L148.525 90.6286C146.753 102.783 135.839 108.623 117.525 108.623L115.725 108.606C114.038 104.538 110.962 101.201 107.045 99.1886C109.988 99.76 113.473 100.051 117.525 100.051C131.902 100.051 138.839 96.4457 139.999 89.6743V81.4286C139.999 80.2919 139.548 79.2018 138.744 78.3981C137.94 77.5944 136.85 77.1429 135.713 77.1429H105.713C105.713 74.1371 105.199 71.2457 104.251 68.5657ZM24.2849 68.5714L55.7477 68.5657C54.9408 70.8485 54.4618 73.2341 54.3249 75.6514L54.2849 77.1429H24.2849C23.1482 77.1429 22.0581 77.5944 21.2544 78.3981C20.4507 79.2018 19.9992 80.2919 19.9992 81.4286V89.5429C21.5992 96.4 28.8563 100.051 43.2392 100.051C46.7934 100.051 49.8906 99.8286 52.5649 99.3943C48.8246 101.427 45.8941 104.68 44.262 108.611L43.2334 108.623C24.9934 108.623 13.902 102.851 11.5077 90.84L11.4277 90V81.4286C11.4277 78.0186 12.7823 74.7484 15.1935 72.3372C17.6047 69.926 20.875 68.5714 24.2849 68.5714ZM79.9992 57.1429C85.3035 57.1429 90.3906 59.25 94.1413 63.0007C97.892 66.7515 99.9992 71.8385 99.9992 77.1429C99.9992 82.4472 97.892 87.5343 94.1413 91.285C90.3906 95.0357 85.3035 97.1429 79.9992 97.1429C74.6948 97.1429 69.6078 95.0357 65.857 91.285C62.1063 87.5343 59.9992 82.4472 59.9992 77.1429C59.9992 71.8385 62.1063 66.7515 65.857 63.0007C69.6078 59.25 74.6948 57.1429 79.9992 57.1429ZM79.9992 65.7143C76.9681 65.7143 74.0612 66.9184 71.9179 69.0616C69.7747 71.2049 68.5706 74.1118 68.5706 77.1429C68.5706 80.1739 69.7747 83.0808 71.9179 85.2241C74.0612 87.3673 76.9681 88.5714 79.9992 88.5714C83.0302 88.5714 85.9371 87.3673 88.0804 85.2241C90.2236 83.0808 91.4277 80.1739 91.4277 77.1429C91.4277 74.1118 90.2236 71.2049 88.0804 69.0616C85.9371 66.9184 83.0302 65.7143 79.9992 65.7143ZM117.142 22.8571C122.446 22.8571 127.533 24.9643 131.284 28.715C135.035 32.4657 137.142 37.5528 137.142 42.8571C137.142 48.1615 135.035 53.2486 131.284 56.9993C127.533 60.75 122.446 62.8571 117.142 62.8571C111.838 62.8571 106.751 60.75 103 56.9993C99.2491 53.2486 97.142 48.1615 97.142 42.8571C97.142 37.5528 99.2491 32.4657 103 28.715C106.751 24.9643 111.838 22.8571 117.142 22.8571ZM42.8563 22.8571C48.1606 22.8571 53.2477 24.9643 56.9984 28.715C60.7492 32.4657 62.8563 37.5528 62.8563 42.8571C62.8563 48.1615 60.7492 53.2486 56.9984 56.9993C53.2477 60.75 48.1606 62.8571 42.8563 62.8571C37.552 62.8571 32.4649 60.75 28.7142 56.9993C24.9634 53.2486 22.8563 48.1615 22.8563 42.8571C22.8563 37.5528 24.9634 32.4657 28.7142 28.715C32.4649 24.9643 37.552 22.8571 42.8563 22.8571ZM117.142 31.4286C114.111 31.4286 111.204 32.6327 109.061 34.7759C106.918 36.9192 105.713 39.8261 105.713 42.8571C105.713 45.8882 106.918 48.7951 109.061 50.9384C111.204 53.0816 114.111 54.2857 117.142 54.2857C120.173 54.2857 123.08 53.0816 125.223 50.9384C127.367 48.7951 128.571 45.8882 128.571 42.8571C128.571 39.8261 127.367 36.9192 125.223 34.7759C123.08 32.6327 120.173 31.4286 117.142 31.4286ZM42.8563 31.4286C39.8253 31.4286 36.9184 32.6327 34.7751 34.7759C32.6318 36.9192 31.4277 39.8261 31.4277 42.8571C31.4277 45.8882 32.6318 48.7951 34.7751 50.9384C36.9184 53.0816 39.8253 54.2857 42.8563 54.2857C45.8873 54.2857 48.7943 53.0816 50.9375 50.9384C53.0808 48.7951 54.2849 45.8882 54.2849 42.8571C54.2849 39.8261 53.0808 36.9192 50.9375 34.7759C48.7943 32.6327 45.8873 31.4286 42.8563 31.4286Z" fill="#F18701"/>
</svg>
