<svg width="634" height="888" viewBox="0 0 634 888" fill="none" xmlns="http://www.w3.org/2000/svg">
<g filter="url(#filter0_d_663_285)">
<path d="M71.3834 343.002C71.3834 341.333 71.602 336.901 71.602 335.053C71.602 326.965 68.7205 323.308 61.1888 323.129C57.6316 322.911 55.5449 320.804 55.5449 317.823C55.5436 317.096 55.6912 316.377 55.9785 315.709C56.2658 315.041 56.6868 314.439 57.2155 313.94C57.7443 313.441 58.3695 313.056 59.0529 312.808C59.7362 312.56 60.4631 312.454 61.1888 312.498C68.7205 312.18 71.602 308.523 71.602 300.435C71.602 298.547 71.3834 294.115 71.3834 292.486C71.3834 281.755 75.9144 274.879 93.0844 271.123C94.2671 270.801 95.5279 270.946 96.6074 271.526C97.6869 272.106 98.5028 273.078 98.8873 274.242C99.2718 275.406 99.1956 276.672 98.6743 277.782C98.153 278.891 97.2264 279.758 96.0852 280.204C85.334 283.523 83.784 286.961 83.784 294.493C83.784 296.699 84.0026 300.455 84.0026 302.68C84.0026 311.325 79.7896 315.538 72.4764 317.863C79.9088 320.288 84.0026 324.401 84.0026 333.026C84.0026 335.371 83.784 338.988 83.784 341.233C83.784 348.765 85.334 352.203 96.0852 355.522C97.2264 355.968 98.153 356.836 98.6743 357.945C99.1956 359.054 99.2718 360.321 98.8873 361.484C98.5028 362.648 97.6869 363.62 96.6074 364.2C95.5279 364.781 94.2671 364.925 93.0844 364.604C75.9144 360.729 71.3834 353.853 71.3834 343.002Z" fill="#EBEBEB"/>
<path d="M136.285 292.367C136.285 294.036 136.066 298.467 136.066 300.316C136.066 308.503 139.047 312.06 146.579 312.378C147.304 312.334 148.031 312.439 148.715 312.686C149.398 312.933 150.024 313.317 150.553 313.815C151.083 314.313 151.504 314.914 151.793 315.581C152.081 316.248 152.23 316.968 152.23 317.694C152.23 318.421 152.081 319.14 151.793 319.807C151.504 320.474 151.083 321.076 150.553 321.574C150.024 322.072 149.398 322.456 148.715 322.703C148.031 322.95 147.304 323.055 146.579 323.01C139.047 323.229 136.066 326.885 136.066 334.934C136.066 336.822 136.285 341.253 136.285 342.883C136.285 353.733 131.734 360.609 114.584 364.365C113.875 364.598 113.12 364.657 112.383 364.537C111.646 364.417 110.949 364.122 110.351 363.675C109.752 363.229 109.27 362.645 108.945 361.973C108.62 361.301 108.461 360.561 108.483 359.814C108.45 358.811 108.747 357.825 109.329 357.006C109.91 356.188 110.744 355.583 111.702 355.283C122.334 351.965 123.884 348.527 123.884 340.995C123.884 338.769 123.666 335.033 123.666 332.788C123.666 324.163 127.859 319.95 135.172 317.625C127.759 315.18 123.666 311.087 123.666 302.442C123.666 300.117 123.884 296.48 123.884 294.254C123.884 286.723 122.334 283.285 111.702 279.966C110.553 279.54 109.612 278.688 109.074 277.587C108.537 276.486 108.444 275.22 108.814 274.052C109.185 272.884 109.991 271.903 111.065 271.313C112.139 270.723 113.399 270.57 114.584 270.884C131.734 274.759 136.285 281.635 136.285 292.367Z" fill="#EBEBEB"/>
<path d="M349.64 198.727C350.25 199.336 350.734 200.059 351.064 200.855C351.394 201.651 351.564 202.505 351.564 203.367C351.564 204.229 351.394 205.082 351.064 205.879C350.734 206.675 350.25 207.398 349.64 208.007C348.417 209.186 346.789 209.854 345.09 209.875C343.332 209.88 341.64 209.211 340.36 208.007L311.386 178.655C311.251 178.604 311.132 178.519 311.042 178.407C310.951 178.295 310.891 178.162 310.869 178.019C310.773 177.939 310.666 177.872 310.551 177.821C310.408 177.56 310.308 177.278 310.253 176.986C310.17 176.953 310.097 176.899 310.042 176.829C309.986 176.759 309.949 176.677 309.935 176.588C309.836 176.37 309.836 176.072 309.736 175.972C309.637 175.873 309.518 175.555 309.518 175.456V174.72C309.518 174.522 309.518 174.422 309.518 174.104C309.518 173.786 309.518 173.687 309.518 173.588V172.892C309.518 172.693 309.736 172.574 309.736 172.475C309.736 172.375 309.736 171.958 309.935 171.66C310.134 171.362 309.935 171.541 309.935 171.441C309.935 171.342 310.253 170.726 310.452 170.527C310.452 170.499 310.457 170.47 310.468 170.444C310.479 170.417 310.495 170.393 310.516 170.373C310.536 170.352 310.56 170.336 310.587 170.325C310.613 170.314 310.641 170.309 310.67 170.309C310.809 170.02 311.021 169.773 311.286 169.593L340.261 140.202C341.515 139.017 343.175 138.356 344.901 138.356C346.626 138.356 348.287 139.017 349.541 140.202C350.151 140.811 350.635 141.534 350.965 142.33C351.295 143.126 351.465 143.98 351.465 144.842C351.465 145.704 351.295 146.557 350.965 147.354C350.635 148.15 350.151 148.873 349.541 149.482L325.098 174.124L349.64 198.727Z" fill="#EBEBEB"/>
<path d="M375.93 202.045L401.188 141.931C401.485 141.241 401.914 140.616 402.452 140.093C402.991 139.569 403.627 139.157 404.325 138.88C405.023 138.603 405.769 138.467 406.52 138.479C407.27 138.491 408.011 138.651 408.7 138.95C409.372 139.237 409.981 139.655 410.491 140.179C411.002 140.703 411.403 141.323 411.673 142.002C411.942 142.682 412.075 143.409 412.063 144.14C412.05 144.871 411.894 145.592 411.602 146.263L386.343 206.477C385.892 207.496 385.154 208.362 384.219 208.969C383.284 209.576 382.192 209.898 381.077 209.895C380.393 209.89 379.718 209.748 379.09 209.478C378.382 209.214 377.735 208.808 377.188 208.286C376.642 207.764 376.208 207.136 375.912 206.441C375.617 205.745 375.466 204.997 375.469 204.241C375.472 203.486 375.629 202.738 375.93 202.045Z" fill="#EBEBEB"/>
<path d="M43.4217 613.409L69.9517 612.873L83.0279 612.634C87.38 612.634 91.7122 612.634 96.0445 612.634L95.1502 613.509L95.0508 591.271L96.0445 592.265L69.7927 592.046C61.009 592.046 52.2451 591.828 43.4813 591.728L44.0178 591.172C44.0178 594.828 43.839 598.485 43.7595 602.181L43.4217 613.409ZM43.4217 613.409L43.1236 602.42C43.1236 598.704 42.905 594.948 42.8652 591.192V590.655H43.4217C52.1855 590.655 60.9494 590.337 69.7331 590.337L96.0445 590.218H97.0381V591.212L96.9189 613.449V614.343H96.0445C91.6129 614.343 87.1614 614.343 82.7298 614.244L69.4946 614.065L43.4217 613.409Z" fill="#EBEBEB"/>
<path d="M43.4217 114.149L69.9517 113.592L83.0279 113.374C87.38 113.374 91.7122 113.374 96.0445 113.254L95.1502 114.149L95.0508 91.911L96.0445 92.9047L69.7927 92.7854C61.009 92.7854 52.2451 92.547 43.4813 92.4476L44.0178 91.911C44.0178 95.5477 43.839 99.2043 43.7595 102.92L43.4217 114.149ZM43.4217 114.149L43.1236 103.139C43.1236 99.4428 42.905 95.6868 42.8652 91.911V91.4142H43.4217C52.1855 91.4142 60.9494 91.0963 69.7331 91.0764L96.0445 90.9572H97.0381V91.9508L96.9189 114.188V115.083H96.0445C91.6129 115.083 87.1614 115.083 82.7298 114.963L69.4946 114.745L43.4217 114.149Z" fill="#EBEBEB"/>
<path d="M14.1476 142.189L40.6776 141.632L53.7538 141.414C58.106 141.414 62.4183 141.414 66.7704 141.295L65.8762 142.189V119.951L66.8698 120.945L40.3795 120.826C31.5958 120.826 22.832 120.587 14.0682 120.488L14.6047 119.951C14.6047 123.588 14.4259 127.245 14.3464 130.961L14.1476 142.189ZM14.1476 142.189L13.7701 131.16C13.7701 127.463 13.5515 123.707 13.5117 119.931V119.395H14.1476C22.9115 119.296 31.6753 119.077 40.459 119.057L66.7704 118.938H67.7641V119.931L67.6448 142.169V143.083H66.7704C62.319 143.083 57.8874 143.083 53.4558 142.964L40.2206 142.745L14.1476 142.189Z" fill="#EBEBEB"/>
<path d="M495.484 263.333L468.954 263.889L455.877 264.108C451.525 264.108 447.193 264.108 442.861 264.108L443.755 263.233L443.854 285.471L442.861 284.477L469.172 284.596C477.956 284.596 486.72 284.815 495.484 284.914L494.947 285.471C494.947 281.834 495.126 278.158 495.205 274.461L495.484 263.333ZM495.484 263.333L495.782 274.322C495.782 278.038 496 281.794 496.04 285.57V286.166H495.484C486.72 286.266 477.956 286.484 469.172 286.484L442.861 286.623H441.867V285.63L441.986 263.392V262.498H442.861C447.292 262.498 451.744 262.498 456.175 262.617L469.411 262.836L495.484 263.333Z" fill="#EBEBEB"/>
<path d="M466.132 235.292L439.602 235.849L426.526 236.067C422.174 236.067 417.842 236.067 413.51 236.067L414.404 235.193L414.503 257.43L413.51 256.437L439.821 256.556C448.585 256.556 457.369 256.775 466.132 256.874L465.596 257.43C465.596 253.794 465.755 250.117 465.854 246.421L466.132 235.292ZM466.132 235.292L466.411 246.282C466.51 249.998 466.649 253.754 466.669 257.53V258.066H466.113C457.349 258.066 448.565 258.384 439.801 258.384L413.49 258.523H412.496V257.53L412.615 235.292V234.497H413.589C418.021 234.497 422.472 234.497 426.904 234.617L440.139 234.835L466.132 235.292Z" fill="#EBEBEB"/>
<path d="M579.345 0H577.357V190.002H579.345V0Z" fill="#C7C7C7"/>
<path d="M496.082 269.314L502.7 283.861H654.03L660.628 269.314L596.2 224.72H560.509L496.082 269.314Z" fill="#EBEBEB"/>
<path d="M556.035 181.755L560.507 224.72H596.198L600.669 181.755H556.035Z" fill="#DBDBDB"/>
<path d="M496.082 269.314L502.7 283.861H654.03L660.628 269.314H496.082Z" fill="#DBDBDB"/>
<path d="M95.0092 808.956H93.022V559.554L39.9023 487.059V350.931H41.8896V486.403L95.0092 558.899V808.956Z" fill="#EBEBEB"/>
<path d="M40.8955 352.004C39.7627 352.008 38.6542 351.676 37.7104 351.049C36.7666 350.423 36.03 349.531 35.5937 348.485C35.1575 347.44 35.0413 346.288 35.2599 345.177C35.4785 344.065 36.022 343.044 36.8216 342.241C37.6213 341.439 38.641 340.892 39.7518 340.669C40.8625 340.447 42.0143 340.559 43.0613 340.992C44.1082 341.424 45.0033 342.158 45.633 343.099C46.2628 344.041 46.599 345.148 46.599 346.281C46.599 347.796 45.9987 349.248 44.9297 350.321C43.8607 351.394 42.41 351.999 40.8955 352.004ZM40.8955 342.565C40.1549 342.561 39.4299 342.777 38.8125 343.186C38.195 343.595 37.7131 344.178 37.4279 344.862C37.1426 345.545 37.067 346.298 37.2105 347.025C37.354 347.751 37.7102 348.419 38.2339 348.943C38.7576 349.466 39.4251 349.823 40.1517 349.966C40.8783 350.11 41.6311 350.034 42.3146 349.749C42.9981 349.463 43.5814 348.982 43.9904 348.364C44.3994 347.747 44.6157 347.022 44.6117 346.281C44.6065 345.297 44.2133 344.355 43.5175 343.659C42.8217 342.963 41.8795 342.57 40.8955 342.565Z" fill="#EBEBEB"/>
<path d="M81.3198 808.956H79.3325V568.318L26.2129 495.803V400.593H28.2002V495.167L81.3198 567.662V808.956Z" fill="#EBEBEB"/>
<path d="M27.2018 401.686C26.0699 401.686 24.9633 401.35 24.0221 400.721C23.0809 400.093 22.3474 399.199 21.9142 398.153C21.481 397.107 21.3677 395.956 21.5885 394.846C21.8093 393.736 22.3544 392.716 23.1548 391.916C23.9553 391.115 24.9751 390.57 26.0853 390.349C27.1955 390.129 28.3463 390.242 29.3921 390.675C30.4379 391.108 31.3317 391.842 31.9606 392.783C32.5895 393.724 32.9252 394.831 32.9252 395.963C32.9252 397.481 32.3222 398.936 31.2488 400.01C30.1755 401.083 28.7198 401.686 27.2018 401.686ZM27.2018 392.247C26.4621 392.247 25.739 392.466 25.1242 392.878C24.5093 393.289 24.0305 393.874 23.7483 394.557C23.4661 395.241 23.3933 395.994 23.5391 396.719C23.6849 397.444 24.0427 398.11 24.5672 398.631C25.0916 399.153 25.7592 399.507 26.4852 399.649C27.2113 399.791 27.9631 399.714 28.6454 399.429C29.3277 399.143 29.9098 398.661 30.3179 398.044C30.7261 397.427 30.9418 396.702 30.9379 395.963C30.9379 395.473 30.8411 394.988 30.6531 394.536C30.4651 394.084 30.1896 393.673 29.8424 393.328C29.4953 392.983 29.0832 392.709 28.6301 392.524C28.1769 392.338 27.6915 392.244 27.2018 392.247Z" fill="#EBEBEB"/>
<path d="M108.185 478.255H106.197V808.956H108.185V478.255Z" fill="#EBEBEB"/>
<path d="M107.192 479.249C106.06 479.249 104.954 478.913 104.012 478.284C103.071 477.656 102.338 476.762 101.904 475.716C101.471 474.67 101.358 473.519 101.579 472.409C101.8 471.299 102.345 470.279 103.145 469.479C103.945 468.678 104.965 468.133 106.076 467.912C107.186 467.691 108.336 467.805 109.382 468.238C110.428 468.671 111.322 469.405 111.951 470.346C112.58 471.287 112.915 472.394 112.915 473.526C112.915 475.044 112.312 476.499 111.239 477.573C110.166 478.646 108.71 479.249 107.192 479.249ZM107.192 469.809C106.452 469.809 105.729 470.029 105.114 470.44C104.5 470.852 104.021 471.437 103.739 472.12C103.456 472.804 103.384 473.556 103.529 474.282C103.675 475.007 104.033 475.673 104.557 476.194C105.082 476.716 105.749 477.07 106.475 477.212C107.201 477.354 107.953 477.277 108.636 476.991C109.318 476.706 109.9 476.224 110.308 475.607C110.716 474.99 110.932 474.265 110.928 473.526C110.928 473.036 110.831 472.551 110.643 472.099C110.455 471.647 110.18 471.236 109.833 470.891C109.485 470.546 109.073 470.272 108.62 470.087C108.167 469.901 107.682 469.807 107.192 469.809Z" fill="#EBEBEB"/>
<path d="M120.886 808.956H118.898V640.635L119.018 640.416L154.967 572.611V450.911H156.955V573.108L156.835 573.326L120.886 641.132V808.956Z" fill="#EBEBEB"/>
<path d="M155.94 451.904C154.808 451.904 153.702 451.568 152.76 450.94C151.819 450.311 151.086 449.417 150.652 448.371C150.219 447.325 150.106 446.175 150.327 445.064C150.548 443.954 151.093 442.934 151.893 442.134C152.694 441.333 153.713 440.788 154.824 440.567C155.934 440.347 157.085 440.46 158.13 440.893C159.176 441.326 160.07 442.06 160.699 443.001C161.328 443.942 161.663 445.049 161.663 446.181C161.663 447.699 161.06 449.155 159.987 450.228C158.914 451.301 157.458 451.904 155.94 451.904ZM155.94 442.465C155.2 442.465 154.477 442.684 153.862 443.096C153.248 443.507 152.769 444.092 152.487 444.776C152.204 445.459 152.132 446.212 152.277 446.937C152.423 447.662 152.781 448.328 153.305 448.85C153.83 449.371 154.497 449.725 155.224 449.867C155.95 450.009 156.701 449.932 157.384 449.647C158.066 449.361 158.648 448.879 159.056 448.262C159.464 447.645 159.68 446.921 159.676 446.181C159.676 445.691 159.579 445.206 159.391 444.754C159.203 444.302 158.928 443.891 158.581 443.546C158.234 443.201 157.822 442.927 157.368 442.742C156.915 442.556 156.43 442.462 155.94 442.465Z" fill="#EBEBEB"/>
<path d="M133.501 808.956H131.514V647.888L131.633 647.65L174.021 572.69V492.623H176.009V573.207L175.889 573.445L133.501 648.405V808.956Z" fill="#EBEBEB"/>
<path d="M175.118 493.617C173.985 493.617 172.878 493.281 171.936 492.651C170.994 492.021 170.261 491.126 169.828 490.079C169.396 489.032 169.284 487.88 169.506 486.77C169.728 485.659 170.275 484.639 171.078 483.84C171.88 483.04 172.902 482.496 174.013 482.278C175.125 482.059 176.276 482.175 177.322 482.612C178.367 483.048 179.26 483.785 179.886 484.728C180.513 485.672 180.845 486.781 180.841 487.913C180.836 489.428 180.231 490.879 179.158 491.948C178.085 493.017 176.632 493.617 175.118 493.617ZM175.118 484.177C174.379 484.177 173.657 484.397 173.042 484.807C172.428 485.218 171.949 485.801 171.666 486.484C171.383 487.166 171.309 487.918 171.454 488.642C171.598 489.367 171.954 490.033 172.476 490.555C172.999 491.078 173.664 491.434 174.389 491.578C175.114 491.722 175.865 491.648 176.548 491.365C177.23 491.082 177.814 490.604 178.224 489.989C178.635 489.375 178.854 488.652 178.854 487.913C178.854 486.923 178.46 485.972 177.76 485.272C177.059 484.571 176.109 484.177 175.118 484.177Z" fill="#EBEBEB"/>
<path d="M423.525 879.822C644.723 879.822 824.039 865.533 824.039 847.907C824.039 830.28 644.723 815.991 423.525 815.991C202.328 815.991 23.0117 830.28 23.0117 847.907C23.0117 865.533 202.328 879.822 423.525 879.822Z" fill="#EBEBEB"/>
<path d="M34.918 809.274H275.616L227.623 530.103H47.6365L34.918 809.274Z" fill="#DBDBDB"/>
<path d="M34.918 809.274H56.0227L67.8668 530.103H47.6365L34.918 809.274Z" fill="#A6A6A6"/>
<path d="M7.67188 810.367L111.646 809.87L215.599 809.692L423.527 809.374L631.455 809.692L735.409 809.87L839.382 810.367L735.409 810.844L631.455 811.023L423.527 811.341L215.599 811.023L111.646 810.844L7.67188 810.367Z" fill="#263238"/>
<path d="M457.349 806.79H443.08V816.11H457.349V806.79Z" fill="#455A64"/>
<path d="M475.874 806.174H461.605V815.494H475.874V806.174Z" fill="#455A64"/>
<path d="M494.372 805.558H480.104V814.878H494.372V805.558Z" fill="#455A64"/>
<path d="M512.897 804.942H498.629V814.262H512.897V804.942Z" fill="#455A64"/>
<path d="M531.396 804.326H517.127V813.646H531.396V804.326Z" fill="#455A64"/>
<path d="M549.915 803.71H535.646V813.03H549.915V803.71Z" fill="#455A64"/>
<path d="M568.419 803.094H554.15V812.414H568.419V803.094Z" fill="#455A64"/>
<path d="M586.939 802.478H572.67V811.798H586.939V802.478Z" fill="#455A64"/>
<path d="M605.442 801.862H591.174V811.182H605.442V801.862Z" fill="#455A64"/>
<path d="M608.937 821.456H439.582V810.129L608.937 805.399V821.456Z" fill="#37474F"/>
<path d="M774.24 776.743H494.672L539.127 568.596H818.696L774.24 776.743Z" fill="#455A64"/>
<path d="M784.572 776.743H505.004L549.459 568.596H829.047L784.572 776.743Z" fill="#37474F"/>
<path d="M701.526 831.094H564.027V820.423L701.526 815.971V831.094Z" fill="#455A64"/>
<path d="M738.927 831.074H665.1L620.625 714.462H694.452L738.927 831.074Z" fill="#455A64"/>
<path d="M751.067 831.074H677.24L632.785 714.462H706.612L751.067 831.074Z" fill="#263238"/>
<path d="M470.784 833.936H329.013C316.91 833.936 334.418 799.497 378.575 786.242C422.732 772.987 484.715 821.019 470.784 833.936Z" fill="#37474F"/>
<path d="M415.162 833.936C415.298 830.015 415.966 826.131 417.149 822.39C418.298 818.614 419.899 814.99 421.919 811.599C423.945 808.189 426.478 805.107 429.431 802.458C432.355 799.821 435.718 797.716 439.367 796.238C437.837 797.47 436.108 798.344 434.717 799.695L432.531 801.544L430.544 803.531C427.908 806.275 425.6 809.316 423.668 812.593C421.708 815.864 420.026 819.294 418.64 822.847C417.222 826.457 416.06 830.163 415.162 833.936Z" fill="#263238"/>
<path d="M431.955 801.166C440.355 803.928 448.307 807.898 455.564 812.951C459.251 815.487 462.591 818.493 465.5 821.893C466.927 823.628 468.16 825.514 469.177 827.517C470.15 829.526 470.717 831.708 470.846 833.936C470.358 831.817 469.504 829.8 468.322 827.974C467.179 826.15 465.847 824.451 464.348 822.907C461.311 819.818 457.984 817.029 454.411 814.58C450.894 812.036 447.177 809.771 443.441 807.525C441.573 806.412 439.666 805.339 437.738 804.286C435.81 803.233 433.903 802.199 431.955 801.166Z" fill="#263238"/>
<path d="M224.602 400.056C217.846 386.96 193.641 359.775 164.806 374.321C123.689 395.088 140.462 480.759 125.974 512.873C99.7426 571.061 111.368 618.318 145.609 616.966C184.003 615.436 208.446 567.086 184.102 483.7C168.86 431.555 177.246 404.21 188.077 402.958C198.907 401.706 208.287 413.292 208.287 413.292L224.602 400.056Z" fill="#263238"/>
<path d="M221.7 395.227C217.763 389.347 213.133 383.963 207.908 379.19C202.625 374.267 196.37 370.503 189.546 368.141C182.509 365.768 174.905 365.664 167.805 367.843C160.77 370.007 154.362 373.839 149.125 379.011C144.056 384.29 140.173 390.591 137.738 397.493C135.367 404.252 133.773 411.259 132.988 418.379C131.665 432.453 131.925 446.632 133.763 460.648C133.486 446.66 134.25 432.671 136.049 418.796C137.103 412.012 138.848 405.353 141.255 398.924C143.586 392.56 147.229 386.758 151.947 381.893C156.717 377.134 162.547 373.573 168.958 371.499C175.33 369.388 182.195 369.277 188.632 371.181C195.207 373.168 201.33 376.422 206.656 380.76C209.443 382.881 212.098 385.171 214.605 387.616C217.01 390.001 219.395 392.584 221.7 395.227Z" fill="#263238"/>
<path d="M176.412 454.766C178.241 463.192 181.003 471.379 183.447 479.646C185.892 487.913 188.535 496.081 190.82 504.348C193.105 512.615 195.113 520.922 196.543 529.328C198.085 537.677 198.81 546.156 198.71 554.646C198.718 563.034 197.14 571.347 194.059 579.149C190.662 586.838 185.955 593.878 180.148 599.955C174.347 606.097 167.177 610.781 159.223 613.628C155.227 615.075 151.057 615.984 146.822 616.331C144.692 616.49 142.553 616.49 140.423 616.331C138.277 616.288 136.148 615.933 134.104 615.277C138.183 616.802 142.531 617.478 146.882 617.265C151.262 617.168 155.611 616.5 159.819 615.277C164.042 614.038 168.095 612.275 171.881 610.031C175.657 607.742 179.164 605.035 182.334 601.963C185.505 598.893 188.374 595.526 190.9 591.907L192.728 589.165L194.457 586.343C195.608 584.425 196.63 582.434 197.517 580.381C200.875 572.179 202.629 563.409 202.684 554.546C202.923 536.919 198.888 519.769 193.781 503.295C191.218 495.028 188.296 486.9 185.295 478.832C182.295 470.763 179.095 463.033 176.412 454.766Z" fill="#263238"/>
<path d="M227.146 399.599C226.569 395.625 222.794 390.975 220.091 390.716C217.388 390.458 199.721 402.024 198.946 407.23C198.171 412.437 207.432 415.18 207.432 415.18L227.146 399.599Z" fill="#F18701"/>
<path d="M228.873 584.554C287.477 620.027 369.869 656.414 398.665 651.028C421.995 646.696 509.355 583.183 513.707 579.487C524.458 570.405 473.187 489.265 460.21 496.916C443.855 506.534 381.495 567.106 374.4 567.126C367.007 567.126 314.246 560.071 253.713 551.228C211.881 545.286 192.506 562.615 228.873 584.554Z" fill="#AD6359"/>
<path d="M474.877 469.492C488.887 462.337 504.348 453.017 520.723 451.149C537.098 449.281 553.493 469.034 554.308 475.195C555.122 481.355 554.109 520.664 537.793 522.889C521.478 525.115 527.38 494.193 526.307 490.894C525.234 487.596 524.061 483.343 521.021 484.058C517.98 484.774 467.504 517.524 467.504 517.524L474.877 469.492Z" fill="#AD6359"/>
<path d="M476.229 471.598C477.143 471.479 518.577 448.407 534.932 446.539C551.288 444.671 567.722 464.424 568.537 470.585C569.352 476.745 568.318 516.053 552.003 518.279C535.688 520.505 541.61 489.583 540.536 486.284C539.463 482.985 538.271 478.732 535.23 479.448C532.19 480.163 481.713 512.913 481.713 512.913L476.229 471.598Z" fill="#AD6359"/>
<path d="M546.2 516.888C543.835 514.583 542.981 510.747 542.226 507.607C541.416 504.172 541.148 500.632 541.431 497.114C541.952 494.062 542.218 490.971 542.226 487.874C541.799 484.853 540.616 481.989 538.788 479.547C537.238 477.421 534.932 478.534 532.985 479.547C530.095 481.103 527.307 482.842 524.638 484.754C521.717 486.741 518.855 488.728 515.974 490.715C512.914 492.691 509.981 494.854 507.19 497.194C506.992 497.373 507.19 497.75 507.449 497.611C510.128 496.139 512.728 494.527 515.239 492.782C518.14 490.914 521.061 489.073 524.003 487.258C526.745 485.568 529.408 483.74 532.19 482.091C533.164 481.514 535.091 480.103 536.324 480.243C537.556 480.382 538.629 483.323 539.026 484.217C540.102 487.06 540.316 490.156 539.642 493.12C539.179 496.15 539.013 499.219 539.145 502.281C539.235 505.176 539.847 508.031 540.954 510.707C542.301 513.057 543.922 515.238 545.783 517.206C545.982 517.563 546.459 517.146 546.2 516.888Z" fill="#263238"/>
<path d="M430.162 521.319C430.162 521.319 469.907 474.082 478.214 464.643C494.927 445.704 570.125 402.62 581.055 399.977C591.985 397.334 598.941 419.512 548.186 450.314C521.378 466.55 518.496 483.522 520.245 492.484C521.994 501.447 532.844 517.126 548.067 514.682C563.289 512.238 570.085 488.847 583.718 484.456C597.351 480.064 591.548 506.932 583.718 523.028C575.888 539.125 559.434 553.692 546.954 560.409C534.474 567.126 496.159 590.019 496.159 590.019L430.162 521.319Z" fill="#AD6359"/>
<path d="M565.42 501.487C560.293 506.693 554.57 513.291 547.078 514.563C539.586 515.835 533.604 511.522 529.193 505.66C524.781 499.797 521.601 492.743 522.396 485.191C523.282 478.394 526.111 471.997 530.544 466.769C535.967 460.409 542.286 454.873 549.304 450.334C549.602 450.116 549.304 449.679 548.926 449.877C542.348 453.852 521.8 465.775 520.011 485.509C519.276 493.597 522.555 500.274 527.086 506.355C531.259 511.959 537.022 517.126 544.375 516.749C553.457 516.272 560.273 507.945 565.917 501.646C566.136 501.367 565.679 501.228 565.42 501.487Z" fill="#263238"/>
<path d="M366.89 560.945L299.044 625.353C299.044 625.353 253.973 605.361 220.09 581.255C186.207 557.15 221.163 542.245 277.105 548.108C333.046 553.97 366.89 560.945 366.89 560.945Z" fill="#F18701"/>
<path d="M282.869 617.682L281.975 617.245C281.975 617.106 281.975 616.986 281.975 616.847C281.748 611.413 280.669 606.048 278.776 600.949C277.813 598.451 276.142 596.289 273.966 594.729C272.853 594.021 271.61 593.541 270.31 593.318C268.99 593.183 267.662 593.137 266.335 593.179C260.907 593.451 255.548 594.529 250.437 596.378C249.026 596.875 247.615 597.412 246.224 597.988L245.449 597.531C247.019 596.875 248.589 596.259 250.179 595.683C255.379 593.793 260.83 592.681 266.355 592.384C267.748 592.339 269.143 592.392 270.528 592.543C271.942 592.772 273.294 593.285 274.503 594.053C276.819 595.697 278.602 597.984 279.63 600.631C281.582 605.807 282.696 611.261 282.929 616.788L282.869 617.682ZM329.312 554.626L329.014 555.441C326.53 562.058 323.41 568.716 318.004 573.326C315.283 575.584 311.974 577.017 308.465 577.46C304.935 577.77 301.389 577.081 298.231 575.472C291.812 572.412 286.546 567.404 281.538 562.376C276.53 557.349 272.059 552.221 267.25 547.213H266.892C271.721 552.321 276.371 557.607 281.299 562.674C286.088 568.026 291.753 572.522 298.052 575.969C301.275 577.672 304.935 578.37 308.558 577.973C312.182 577.576 315.603 576.103 318.382 573.743C323.906 568.974 327.046 562.237 329.59 555.62C329.709 555.302 329.828 555.004 329.928 554.686L329.312 554.626ZM293.541 622.789C297.078 624.459 299.105 625.353 299.105 625.353C297.277 624.419 295.369 623.604 293.481 622.789H293.541Z" fill="white"/>
<path d="M282.254 613.548C295.947 598.664 310.692 584.713 325.676 571.1C329.902 567.245 334.228 563.489 338.653 559.833C338.679 559.817 338.709 559.809 338.739 559.812C338.769 559.815 338.797 559.827 338.82 559.847C338.842 559.867 338.857 559.894 338.863 559.924C338.869 559.954 338.865 559.984 338.852 560.011C331.857 567.285 324.563 574.3 317.31 581.335C310.056 588.37 302.723 595.405 295.251 602.261C291.038 606.136 286.845 610.011 282.533 613.807C282.433 614.065 282.076 613.727 282.254 613.548Z" fill="#263238"/>
<path opacity="0.1" d="M327.245 598.584L299.046 625.353C299.046 625.353 253.975 605.361 220.092 581.255C206.3 571.438 203.915 563.151 209.698 557.19L327.245 598.584Z" fill="black"/>
<path d="M322.693 809.632H95.8867C95.8867 809.632 145.151 619.371 190.739 565.794C191.752 564.562 192.726 563.41 193.879 562.317C194.097 562.058 194.276 561.88 194.495 561.661C198.022 557.885 202.135 554.704 206.677 552.241C207.472 551.804 208.267 551.407 209.101 551.029C226.669 542.961 245.21 549.658 258.604 561.105C262.857 564.741 310.929 627.3 315.181 651.147C318.858 672.193 304.629 694.867 304.629 694.867L322.693 809.632Z" fill="#F18701"/>
<path d="M270.507 686.66C260.88 687.591 251.335 689.232 241.95 691.568C237.28 692.801 232.709 694.251 228.138 695.801C225.853 696.556 223.568 697.252 221.262 697.948C218.873 698.728 216.397 699.215 213.89 699.398C213.855 699.41 213.824 699.433 213.803 699.464C213.781 699.494 213.77 699.53 213.77 699.567C213.77 699.604 213.781 699.641 213.803 699.671C213.824 699.701 213.855 699.724 213.89 699.736C216.269 699.846 218.653 699.786 221.024 699.557C223.31 699.254 225.573 698.803 227.8 698.206C232.53 696.994 237.22 695.563 241.95 694.231C251.489 691.688 261.008 689.144 270.725 687.296C271.163 687.375 271.043 686.62 270.507 686.66Z" fill="#263238"/>
<path d="M294.556 695.026C286.584 694.261 278.576 693.943 270.569 694.072C266.595 694.072 262.62 694.47 258.646 694.887C256.758 695.106 254.85 695.324 252.962 695.583C251.074 695.841 248.829 696.437 246.742 696.696C246.523 696.696 246.523 697.053 246.742 697.033C248.729 696.855 250.717 697.033 252.704 696.934L258.666 696.735C262.64 696.596 266.615 696.517 270.589 696.338C278.538 696 286.487 695.742 294.536 695.682C295.013 695.682 294.973 695.066 294.556 695.026Z" fill="#263238"/>
<g opacity="0.1">
<path opacity="0.1" d="M248.847 663.747C249.526 664.122 250.038 664.74 250.281 665.477C250.524 666.214 250.48 667.015 250.158 667.721C249.958 668.004 249.697 668.238 249.394 668.406C249.091 668.574 248.755 668.673 248.409 668.695C247.58 668.769 246.751 668.551 246.064 668.079L229.053 656.473C228.914 656.473 228.835 656.354 228.735 656.235H228.576C228.477 656.126 228.391 656.006 228.318 655.877C228.234 655.852 228.162 655.795 228.119 655.718C228.119 655.718 228 655.5 227.941 655.46C227.881 655.42 227.801 655.281 227.782 655.241L227.682 654.923C227.623 654.845 227.576 654.757 227.543 654.665C227.553 654.592 227.553 654.519 227.543 654.446L227.444 654.128C227.444 654.029 227.444 653.989 227.444 653.93C227.444 653.87 227.444 653.711 227.444 653.572C227.444 653.433 227.444 653.572 227.444 653.572C227.43 653.433 227.43 653.293 227.444 653.155V653.055C227.463 652.926 227.526 652.806 227.623 652.717L236.287 638.807C236.794 638.227 237.505 637.867 238.272 637.8C239.039 637.733 239.802 637.966 240.401 638.449C241.08 638.824 241.592 639.442 241.835 640.179C242.078 640.916 242.034 641.717 241.712 642.423L234.379 654.089L248.847 663.747Z" fill="black"/>
<path opacity="0.1" d="M260.967 664.085L263.63 637.018C263.679 636.7 263.801 636.397 263.985 636.133C264.17 635.869 264.413 635.651 264.695 635.495C264.977 635.34 265.291 635.251 265.613 635.236C265.935 635.221 266.256 635.28 266.551 635.408C267.224 635.59 267.817 635.993 268.235 636.551C268.653 637.109 268.872 637.791 268.856 638.489L266.193 665.595C266.126 666.046 265.905 666.46 265.569 666.767C265.232 667.075 264.8 667.257 264.345 667.284C264.031 667.349 263.706 667.349 263.391 667.284C262.675 667.121 262.04 666.711 261.596 666.126C261.153 665.541 260.93 664.818 260.967 664.085Z" fill="black"/>
<path opacity="0.1" d="M295.428 650.194C295.37 650.315 295.296 650.428 295.21 650.531L286.545 664.442C286.334 664.73 286.063 664.968 285.751 665.139C285.439 665.311 285.092 665.412 284.737 665.436C283.919 665.488 283.107 665.264 282.432 664.8C281.749 664.428 281.234 663.81 280.99 663.072C280.747 662.334 280.793 661.531 281.12 660.825L288.453 649.16L274.125 639.442C273.446 639.067 272.933 638.449 272.69 637.712C272.447 636.975 272.491 636.174 272.813 635.468C273.32 634.889 274.031 634.528 274.798 634.461C275.565 634.395 276.328 634.627 276.927 635.11L293.918 646.716C294.066 646.794 294.206 646.888 294.335 646.994C294.467 647.115 294.586 647.248 294.693 647.391C294.775 647.531 294.868 647.664 294.971 647.789C294.971 647.789 294.971 647.789 294.971 647.908L295.071 648.226L295.19 648.445C295.19 648.445 295.19 648.624 295.19 648.663V649.021C295.19 649.021 295.19 649.021 295.19 649.12C295.182 649.259 295.182 649.399 295.19 649.538C295.19 649.538 295.19 649.538 295.19 649.677L295.428 650.194Z" fill="black"/>
</g>
<path d="M309.476 725.59C309.162 725.782 308.837 725.955 308.503 726.107L306.515 726.982C305.879 727.26 305.204 727.439 304.528 727.677C303.231 728.107 301.902 728.433 300.554 728.651C297.77 729.04 294.937 728.857 292.227 728.114C290.885 727.666 289.629 726.994 288.511 726.127C287.429 725.215 286.485 724.151 285.709 722.967C284.193 720.624 283.059 718.055 282.35 715.356C280.979 710.011 280.186 704.535 279.985 699.021C279.985 698.067 279.985 697.033 279.985 696.159C279.985 695.801 279.985 695.444 279.985 695.086C279.707 685.408 280.184 675.75 280.701 666.112C281.297 655.162 282.092 644.252 282.33 633.282C282.33 628.473 282.45 623.644 282.171 618.854C282.171 618.636 282.171 618.417 282.171 618.199C282.171 617.98 282.171 617.344 282.171 616.907C281.944 611.473 280.865 606.108 278.972 601.009C278.009 598.511 276.338 596.349 274.163 594.789C273.05 594.08 271.807 593.601 270.506 593.378C269.186 593.243 267.858 593.196 266.532 593.239C261.103 593.51 255.745 594.589 250.633 596.438C247.157 597.684 243.747 599.11 240.419 600.711L239.644 601.068C233.384 604.089 227.343 607.587 221.361 611.144C211.941 616.748 202.681 622.63 192.943 627.718C189.624 629.427 186.266 631.056 182.828 632.487L182.43 632.666C180.947 633.275 179.436 633.852 177.9 634.395C172.72 636.306 167.278 637.412 161.763 637.674C158.725 637.736 155.696 637.334 152.78 636.481C152.78 636.342 152.78 636.223 152.939 636.104C155.81 636.904 158.784 637.272 161.763 637.197C167.2 636.904 172.561 635.785 177.661 633.878C179.151 633.342 180.642 632.765 182.113 632.169L182.53 631.99C185.968 630.539 189.326 628.93 192.625 627.201C202.303 622.113 211.544 616.211 220.964 610.567C226.786 607.11 232.688 603.672 238.849 600.631L239.604 600.254C243.108 598.554 246.696 597.035 250.355 595.703C255.556 593.813 261.006 592.701 266.532 592.404C267.925 592.359 269.319 592.412 270.705 592.563C272.118 592.791 273.471 593.305 274.679 594.073C276.995 595.717 278.778 598.004 279.806 600.651C281.758 605.827 282.872 611.281 283.105 616.808C283.105 617.384 283.105 617.96 283.205 618.536C283.224 618.748 283.224 618.961 283.205 619.172C283.483 623.882 283.483 628.592 283.403 633.282C283.185 644.272 282.43 655.142 281.833 666.151C281.337 675.372 280.86 684.593 281.039 693.794C281.039 694.152 281.039 694.51 281.039 694.867C281.039 696.239 281.039 697.59 281.178 698.961C281.357 704.406 282.123 709.817 283.463 715.098C284.14 717.71 285.226 720.199 286.682 722.47C287.423 723.58 288.312 724.583 289.325 725.451C290.347 726.309 291.51 726.982 292.763 727.439C295.35 728.152 298.054 728.335 300.713 727.975C302.059 727.765 303.388 727.453 304.687 727.041C305.323 726.803 305.959 726.624 306.674 726.365L308.503 725.531L309.695 724.915L309.476 725.59ZM315.001 650.313C310.603 654.725 306.443 659.368 302.541 664.224C294.83 673.743 287.815 683.778 280.681 693.794L279.787 695.066L277.144 698.802C272.255 705.698 267.307 712.614 262.06 719.251C261.921 719.43 261.782 719.629 261.623 719.807C258.165 724.16 254.588 728.392 250.773 732.427C245.963 737.673 240.599 742.384 234.775 746.477C233.341 747.516 231.848 748.471 230.304 749.338C228.793 750.292 227.184 751.047 225.614 751.862C222.525 753.54 218.948 754.088 215.499 753.412C212.093 752.536 208.967 750.806 206.417 748.384C203.8 745.994 201.449 743.329 199.402 740.435C195.315 734.612 191.7 728.472 188.591 722.073C182.212 709.315 176.787 696.099 171.183 682.983C165.764 669.751 159.62 656.828 152.78 644.272C152.085 643.059 151.37 641.867 150.634 640.675L150.217 641.708C150.833 642.702 151.429 643.695 152.005 644.729C158.807 657.263 164.904 670.167 170.268 683.381C175.912 696.477 181.357 709.692 187.776 722.47C190.931 728.907 194.586 735.086 198.706 740.952C200.8 743.88 203.198 746.578 205.86 749C208.521 751.517 211.786 753.303 215.34 754.187C218.959 754.891 222.71 754.315 225.952 752.558C227.561 751.743 229.191 750.968 230.701 750.014C232.211 749.06 233.762 748.146 235.232 747.113C241.076 742.955 246.471 738.2 251.329 732.923C255.105 728.949 258.682 724.656 262.1 720.324C262.259 720.145 262.398 719.947 262.537 719.768C267.823 713.071 272.772 706.115 277.68 699.16L279.826 696.119L280.701 694.847C287.895 684.593 295.009 674.299 302.899 664.562C306.701 659.817 310.754 655.28 315.041 650.969C315.1 650.75 315.061 650.531 315.001 650.313ZM206.099 793.853C197.236 782.685 188.531 771.317 178.933 760.745C169.334 750.173 158.703 740.197 145.686 733.997C142.42 732.524 139.001 731.417 135.491 730.698C133.732 730.333 131.954 730.067 130.165 729.903C128.38 729.77 126.589 729.737 124.8 729.803C122.803 729.842 120.811 730.015 118.838 730.32L118.719 730.678C120.692 730.369 122.684 730.196 124.681 730.161C126.457 730.112 128.234 730.152 130.006 730.28C131.77 730.458 133.521 730.737 135.253 731.115C138.732 731.839 142.118 732.952 145.348 734.434C158.226 740.614 168.818 750.63 178.357 761.123C187.895 771.616 196.6 782.983 205.443 794.25C209.537 799.417 213.67 804.584 217.943 809.632H218.857C214.584 804.465 210.332 799.159 206.099 793.853ZM315.08 761.262C313.709 764.918 312.378 768.555 311.106 772.212C306.555 784.751 302.163 797.351 296.976 809.632H297.97C303.117 797.45 307.489 784.97 312.04 772.55C313.173 769.449 314.325 766.329 315.478 763.229L315.08 761.262ZM294.353 781.135C294.174 780.101 294.015 779.048 293.797 777.995L293.081 774.894C292.664 772.907 292.008 770.801 291.432 768.754C288.955 760.631 285.548 752.823 281.277 745.483C275.909 736.292 269.666 727.64 262.636 719.649C262.467 719.48 262.307 719.3 262.16 719.112C258.185 714.521 254.012 710.11 249.799 705.758C237.875 693.655 225.475 682.228 213.551 670.245C207.589 664.283 201.786 658.123 196.262 651.724C194.871 650.134 193.5 648.524 192.168 646.895C190.837 645.265 189.505 643.616 188.194 641.907C185.996 638.885 184.074 635.673 182.45 632.308C182.351 632.153 182.271 631.986 182.212 631.811C182.064 631.555 181.931 631.289 181.814 631.016C178.316 623.316 176.461 614.971 176.369 606.514C176.315 598.057 177.603 589.646 180.185 581.593C180.483 580.619 180.821 579.606 181.159 578.672L180.702 579.387C180.45 580.103 180.211 580.818 179.986 581.534C177.349 589.598 176.008 598.029 176.012 606.514C176.077 615.025 177.911 623.43 181.397 631.195C181.516 631.474 181.636 631.732 181.775 631.99C181.833 632.169 181.92 632.337 182.033 632.487C183.661 635.887 185.582 639.139 187.776 642.205C189.008 643.934 190.34 645.583 191.751 647.213C193.162 648.842 194.434 650.472 195.825 652.062C201.349 658.48 207.172 664.621 213.114 670.643C225.037 682.566 237.498 694.112 249.282 706.195C253.535 710.567 257.708 715.058 261.683 719.668C261.861 719.847 262.001 720.026 262.16 720.205C269.122 728.126 275.298 736.705 280.601 745.821C284.846 753.159 288.234 760.96 290.697 769.072C291.253 771.059 291.889 773.046 292.306 775.173L293.022 778.253C293.221 779.286 293.38 780.34 293.578 781.373C295.551 790.976 294.147 800.965 289.604 809.652H290.558C295.008 800.883 296.339 790.86 294.333 781.234L294.353 781.135ZM305.561 628.115L304.468 627.578C297.394 624.2 290.18 621.199 282.907 618.338L282.032 617.98C275.733 615.496 269.393 613.091 263.113 610.607C256.198 607.845 249.322 605.003 242.645 601.744L240.121 600.472L239.326 600.055C233.792 597.256 228.541 593.928 223.646 590.119C217.708 585.659 212.801 579.972 209.259 573.445C207.526 570.19 206.268 566.703 205.523 563.092C204.871 559.762 204.683 556.358 204.966 552.977C204.679 553.134 204.401 553.307 204.131 553.493C203.919 556.752 204.126 560.025 204.747 563.231C205.53 566.918 206.828 570.477 208.603 573.803C212.206 580.409 217.188 586.163 223.209 590.675C228.027 594.359 233.168 597.598 238.571 600.353L239.346 600.75L242.347 602.261C249.063 605.54 255.959 608.362 262.875 611.104C269.254 613.628 275.693 616.033 282.072 618.556L282.946 618.894C290.14 621.716 297.255 624.657 304.23 627.996L306.019 628.85C305.86 628.83 305.701 628.552 305.561 628.274V628.115Z" fill="white"/>
<path d="M182.472 570.683C143.164 611.184 48.5703 764.183 77.7235 793.257C106.877 822.331 269.574 804.147 314.447 795.542C329.431 792.661 293.421 693.933 277.285 691.608C263.831 689.621 184.42 705.082 181.677 701.544C179.452 698.723 195.409 661.799 213.136 602.181C233.585 533.621 199.841 552.778 182.472 570.683Z" fill="#AD6359"/>
<path d="M354.252 678.452C388.035 678.89 396.66 684.196 425.376 669.41C444.215 659.713 458.504 667.582 445.845 685.626C425.138 715.137 381.418 723.742 365.401 722.351L354.252 678.452Z" fill="#AD6359"/>
<path d="M261.486 696.914C261.486 696.914 301.808 681.93 337.877 678.83C362.817 676.684 417.606 678.075 460.928 738.945C471.202 753.372 475.614 781.234 450.257 763.746C432.252 751.345 424.601 738.011 412.797 732.705C412.797 732.705 414.208 768.813 399.343 778.531C386.345 787.044 372.757 794.621 358.683 801.206C356.893 798.899 355.247 796.483 353.755 793.972C353.755 793.972 339.01 801.762 314.447 795.582L261.486 696.914Z" fill="#AD6359"/>
<path d="M361.921 680.579C372.513 688.329 394.671 705.141 408.026 725.193C422.851 747.45 445.406 794.35 428.852 805.121C416.71 813.07 406.535 795.88 406.535 795.88C406.535 795.88 411.762 817.223 399.242 821.973C387.835 826.285 380.741 812.553 380.741 812.553C380.741 812.553 381.694 826.047 369.91 828.094C355.721 830.538 355.999 801.862 339.525 791.925C335.908 789.7 361.921 680.579 361.921 680.579Z" fill="#AD6359"/>
<path d="M381.954 736.918C390.717 745.841 405.423 771.218 406.874 795.383C406.874 795.94 406.496 796.258 406.377 795.761C400.587 775.271 392.332 755.559 381.795 737.057C381.675 736.938 381.795 736.819 381.954 736.918Z" fill="#263238"/>
<path d="M359.936 752.538C366.713 761.023 380.683 787.832 381.319 812.394C381.319 812.931 380.902 813.229 380.782 812.732C376.054 791.982 368.987 771.834 359.717 752.677C359.712 752.649 359.715 752.621 359.726 752.595C359.737 752.57 359.756 752.548 359.779 752.533C359.803 752.518 359.83 752.51 359.858 752.511C359.886 752.512 359.913 752.521 359.936 752.538Z" fill="#263238"/>
<path d="M412.838 732.486C423.152 737.315 429.352 743.675 437.5 751.385C441.474 755.252 445.66 758.895 450.04 762.295C454.014 765.336 459.976 769.926 465.262 766.906C468.184 765.236 468.72 761.461 468.581 758.4C468.482 754.947 467.635 751.557 466.097 748.464C466.097 748.325 466.296 748.166 466.375 748.325C467.868 751.041 468.959 753.96 469.614 756.989C470.372 759.81 470.269 762.793 469.316 765.554C466.812 771.258 459.678 770.96 454.968 768.575C452.145 767.043 449.482 765.232 447.019 763.17C444.634 761.182 442.349 759.195 440.103 757.208C435.513 752.975 431.161 748.464 426.61 744.171C422.168 740.091 417.469 736.301 412.54 732.824C412.441 732.685 412.639 732.387 412.838 732.486Z" fill="#263238"/>
<path d="M429.648 773.881C427.8 767.303 416.592 739.382 412.577 732.705C412.561 732.671 412.557 732.632 412.567 732.595C412.576 732.558 412.599 732.526 412.63 732.505C412.661 732.483 412.699 732.473 412.737 732.477C412.774 732.481 412.81 732.498 412.836 732.526C420.03 741.787 430.304 765.018 432.43 772.271C434.556 779.525 436.802 788.567 435.65 796.118C433.94 807.386 426.131 808.38 423.289 808.499C419.921 808.592 416.624 807.525 413.949 805.478C410.846 802.85 408.31 799.619 406.496 795.979C406.397 795.801 406.635 795.622 406.755 795.801C409.974 800.828 415.797 806.214 422.037 806.333C423.412 806.41 424.789 806.21 426.086 805.746C427.383 805.282 428.574 804.562 429.588 803.63C431.672 801.174 432.801 798.048 432.768 794.827C432.923 787.718 431.868 780.636 429.648 773.881Z" fill="#263238"/>
<path d="M381.298 812.394C382.649 813.964 385.173 819.131 390.161 820.92C391.908 821.69 393.815 822.024 395.719 821.892C397.624 821.76 399.467 821.168 401.091 820.164C404.143 817.812 406.154 814.361 406.695 810.546C407.009 805.7 406.949 800.836 406.516 795.999C406.516 795.761 406.775 795.701 406.815 795.999C407.943 801.178 408.298 806.495 407.868 811.778C407.634 813.85 406.986 815.854 405.962 817.67C404.937 819.487 403.558 821.078 401.906 822.35C400.132 823.569 398.056 824.275 395.907 824.391C393.758 824.507 391.619 824.027 389.724 823.006C387.737 821.953 382.113 816.925 380.881 812.633C380.801 812.454 381.238 812.315 381.298 812.394Z" fill="#263238"/>
<path d="M340.977 790.057C342.544 791.484 343.944 793.084 345.15 794.827C346.501 796.575 347.773 798.404 349.025 800.232C351.482 803.985 353.547 807.98 355.186 812.156C356.895 816.329 358.326 820.9 361.644 824.079C363.202 825.688 365.227 826.766 367.432 827.158C369.636 827.551 371.909 827.238 373.926 826.265C376.045 825.151 377.715 823.34 378.655 821.138C379.797 818.765 380.472 816.195 380.643 813.567C380.643 813.525 380.659 813.484 380.689 813.454C380.719 813.424 380.76 813.408 380.802 813.408C380.844 813.408 380.884 813.424 380.914 813.454C380.944 813.484 380.961 813.525 380.961 813.567C381.017 815.929 380.844 818.292 380.444 820.621C379.912 822.73 378.836 824.662 377.324 826.226C375.726 827.727 373.746 828.758 371.6 829.207C369.455 829.655 367.227 829.504 365.162 828.769C360.591 827.179 357.67 823.125 355.702 818.833C353.517 814.123 351.847 809.234 349.443 804.624C348.171 802.2 346.939 799.755 345.468 797.43C343.998 795.105 342.05 792.919 340.679 790.336C340.579 790.137 340.778 789.898 340.977 790.057Z" fill="#263238"/>
<path d="M326.327 797.669C332.585 797.938 338.854 797.605 345.048 796.675C345.246 796.675 345.425 797.211 345.246 797.271C342.183 798.152 339.029 798.685 335.847 798.861C332.649 799.054 329.44 798.766 326.327 798.006C326.149 797.967 326.149 797.649 326.327 797.669Z" fill="#263238"/>
<path d="M100.38 735.566C110.179 729.258 120.42 723.666 131.024 718.834C141.513 714.066 152.34 710.081 163.416 706.91C169.716 705.042 176.095 703.472 182.454 701.882C182.479 701.873 182.504 701.87 182.53 701.874C182.555 701.877 182.58 701.886 182.601 701.901C182.622 701.915 182.639 701.935 182.651 701.958C182.663 701.98 182.669 702.006 182.669 702.031C182.669 702.057 182.663 702.082 182.651 702.105C182.639 702.128 182.622 702.147 182.601 702.162C182.58 702.177 182.555 702.186 182.53 702.189C182.504 702.192 182.479 702.189 182.454 702.18C171.335 705.395 160.413 709.257 149.744 713.746C139.145 718.105 128.586 722.643 118.067 727.359C112.105 730.042 106.342 733.003 100.519 735.884C100.489 735.873 100.461 735.856 100.437 735.834C100.413 735.812 100.394 735.785 100.381 735.755C100.368 735.726 100.361 735.694 100.361 735.661C100.361 735.629 100.368 735.596 100.38 735.566Z" fill="#263238"/>
<path d="M101.732 666.429L195.273 665.138C195.273 665.138 213.556 619.331 220.968 578.413C228.381 537.496 194.518 549.379 158.588 592.642C122.658 635.905 101.732 666.429 101.732 666.429Z" fill="#F18701"/>
<path d="M211.942 615.814C211.942 616.112 211.783 616.41 211.684 616.708C205.424 620.504 199.144 624.24 192.646 627.638C189.327 629.347 185.969 630.977 182.531 632.408L182.133 632.586C180.649 633.196 179.139 633.772 177.602 634.315C172.423 636.227 166.98 637.333 161.466 637.594C156.101 637.709 150.804 636.384 146.124 633.759L145.647 633.501L144.137 632.586C140.263 630.001 136.845 626.791 134.021 623.087L134.161 622.889C136.783 626.258 139.898 629.212 143.401 631.652C144.108 632.16 144.845 632.625 145.607 633.043L145.826 633.183C150.577 635.913 155.987 637.288 161.466 637.157C166.903 636.864 172.263 635.745 177.364 633.838C178.854 633.302 180.345 632.725 181.815 632.129L182.233 631.95C185.671 630.5 189.029 628.89 192.328 627.161C198.965 623.624 205.503 619.729 211.942 615.814ZM152.881 644.252C150.832 640.627 148.576 637.124 146.124 633.759L145.607 633.043C143.969 630.875 142.197 628.811 140.301 626.863C138.608 625.111 136.721 623.558 134.677 622.233L134.161 622.889C136.168 624.207 138.021 625.747 139.685 627.479C140.997 628.811 142.229 630.202 143.401 631.652L144.137 632.586C147.075 636.43 149.732 640.482 152.086 644.709C155.941 651.485 159.359 658.48 162.578 665.595H163.612C160.333 658.321 156.835 651.167 152.881 644.252ZM196.263 651.823C194.872 650.233 193.5 648.624 192.169 646.994C190.837 645.365 189.506 643.715 188.194 642.006C185.997 638.984 184.075 635.772 182.451 632.408C182.352 632.252 182.272 632.085 182.213 631.911C182.064 631.654 181.932 631.388 181.815 631.116C178.316 623.415 176.462 615.07 176.37 606.613C176.316 598.157 177.604 589.745 180.186 581.693C182.093 575.654 184.499 569.785 187.38 564.145C187.291 564.191 187.21 564.252 187.141 564.324C184.283 569.886 181.89 575.676 179.987 581.633C177.35 589.697 176.009 598.128 176.012 606.613C176.078 615.124 177.912 623.529 181.398 631.295C181.517 631.573 181.636 631.831 181.775 632.09C181.833 632.268 181.921 632.436 182.034 632.586C183.661 635.987 185.583 639.238 187.777 642.304C189.009 644.033 190.341 645.682 191.752 647.312C193.162 648.942 194.434 650.571 195.825 652.161C196.819 653.314 197.813 654.446 198.826 655.579C198.826 655.4 198.965 655.221 199.045 655.023C198.131 653.969 197.197 652.896 196.263 651.823ZM209.259 573.684C207.527 570.428 206.269 566.942 205.523 563.33C204.944 560.36 204.731 557.33 204.887 554.308C204.617 554.386 204.352 554.479 204.092 554.586C203.953 557.563 204.173 560.545 204.748 563.469C205.531 567.157 206.829 570.716 208.604 574.042C211.314 579.104 214.885 583.657 219.156 587.495L219.335 586.681C215.261 582.953 211.854 578.558 209.259 573.684Z" fill="white"/>
<path d="M191.417 664.74C191.933 664.74 195.232 664.244 195.232 664.244C195.491 663.031 201.194 643.834 202.685 639.681C205.705 631.175 209.223 622.829 212.621 614.482C212.65 614.439 212.692 614.406 212.74 614.389C212.789 614.372 212.843 614.371 212.892 614.387C212.942 614.403 212.984 614.434 213.014 614.476C213.044 614.519 213.06 614.57 213.058 614.622C210.813 621.815 208.686 629.069 206.381 636.243C207.057 635.229 207.712 634.256 208.368 633.183C209.68 631.056 210.832 628.87 212.064 626.704C212.086 626.659 212.124 626.625 212.17 626.608C212.217 626.591 212.268 626.594 212.313 626.615C212.358 626.636 212.392 626.674 212.409 626.72C212.426 626.767 212.423 626.818 212.402 626.863C211.351 629.88 209.908 632.747 208.11 635.388C207.357 636.524 206.527 637.606 205.626 638.628C205.427 639.224 205.248 639.84 205.049 640.436C203.638 644.629 196.385 665.376 196.027 665.376H191.516C191.238 665.376 191.158 664.74 191.417 664.74Z" fill="#263238"/>
<path d="M117.21 648.624C137.4 647.511 157.69 647.789 177.921 648.484C183.644 648.683 189.367 649.014 195.091 649.478C195.25 649.478 195.269 649.736 195.091 649.736C185.015 650.094 174.9 650.015 164.805 650.015C154.709 650.015 144.515 650.015 134.38 649.617C128.656 649.438 122.953 649.279 117.23 649.001C117.189 648.99 117.153 648.967 117.126 648.934C117.1 648.902 117.085 648.862 117.082 648.82C117.08 648.778 117.091 648.736 117.114 648.701C117.137 648.666 117.17 648.639 117.21 648.624Z" fill="#263238"/>
<path d="M217.148 552.957C217.844 556.931 235.193 583.779 253.337 584.018C259.298 584.018 261.027 551.844 261.027 551.844L261.703 549.499L271.142 516.689L233.484 489.245L228.019 485.588C228.019 485.588 226.032 494.75 223.687 506.196C223.567 506.713 223.448 507.25 223.349 507.826C223.249 508.402 223.031 509.078 222.931 509.674C222.554 511.383 222.176 513.132 221.838 514.861C221.58 516.192 221.322 517.484 221.083 518.835C220.845 520.187 220.606 521.598 220.348 523.009C218.594 532.906 217.525 542.912 217.148 552.957Z" fill="#AD6359"/>
<path d="M223.689 506.117C226.499 515.673 231.355 524.504 237.919 531.995C244.484 539.486 252.601 545.459 261.706 549.499L271.145 516.689L233.487 489.245L228.022 485.588C228.022 485.588 226.034 494.67 223.689 506.117Z" fill="#263238"/>
<path d="M313.015 450.831C329.967 508.462 297.376 525.095 284.955 528.732C273.668 532.031 234.856 541.868 212.023 486.324C189.189 430.78 210.631 404.687 236.029 395.764C261.426 386.841 296.044 393.22 313.015 450.831Z" fill="#AD6359"/>
<path d="M301.948 443.279C300.575 443.422 299.196 443.495 297.815 443.498C296.368 443.787 294.867 443.591 293.542 442.942C293.168 442.654 292.898 442.251 292.776 441.794C292.654 441.338 292.686 440.854 292.867 440.418C293.36 439.612 294.056 438.951 294.887 438.5C295.717 438.05 296.652 437.827 297.596 437.854C299.515 437.627 301.449 438.123 303.022 439.245C303.365 439.523 303.621 439.894 303.758 440.314C303.895 440.733 303.908 441.184 303.794 441.611C303.68 442.037 303.446 442.422 303.118 442.718C302.791 443.014 302.384 443.209 301.948 443.279Z" fill="#263238"/>
<path d="M263.154 454.11C264.466 453.574 265.598 452.878 266.85 452.222C268.238 451.73 269.43 450.803 270.249 449.579C270.429 449.143 270.461 448.659 270.339 448.203C270.217 447.746 269.948 447.343 269.573 447.055C268.745 446.601 267.81 446.378 266.866 446.41C265.922 446.441 265.003 446.726 264.207 447.234C262.428 448.01 261.009 449.43 260.233 451.209C260.092 451.615 260.069 452.053 260.167 452.472C260.264 452.891 260.477 453.274 260.782 453.577C261.087 453.88 261.472 454.091 261.891 454.185C262.311 454.279 262.749 454.253 263.154 454.11Z" fill="#263238"/>
<path d="M273.826 466.073C273.826 465.934 273.568 466.352 273.627 466.511C274.919 470.386 275.734 475.056 272.574 477.401C272.574 477.401 272.574 477.679 272.574 477.619C276.807 475.732 275.674 469.551 273.826 466.073Z" fill="#263238"/>
<path d="M269.117 463.033C262.658 464.424 265.917 477.222 271.879 475.93C277.841 474.639 274.483 461.86 269.117 463.033Z" fill="#263238"/>
<path d="M266.771 464.325C265.837 465.338 265.062 466.888 263.751 467.365C262.439 467.842 260.71 466.868 259.379 465.855C259.239 465.736 259.16 465.855 259.2 466.054C259.776 468.518 261.366 470.783 264.088 470.485C266.811 470.187 267.725 467.604 267.725 464.98C267.725 464.503 267.149 463.927 266.771 464.325Z" fill="#263238"/>
<path d="M297.02 459.217C297.02 459.058 297.377 459.337 297.417 459.496C298.272 463.47 299.921 467.941 303.836 468.379C303.955 468.379 303.995 468.577 303.836 468.597C299.305 468.995 297.179 463.152 297.02 459.217Z" fill="#263238"/>
<path d="M299.54 454.209C305.82 452.222 309.476 464.841 303.654 466.729C297.831 468.617 294.353 455.918 299.54 454.209Z" fill="#263238"/>
<path d="M302.443 454.269C303.635 454.666 304.967 455.6 306.199 455.322C307.431 455.044 308.186 453.335 308.742 451.785C308.742 451.626 308.941 451.785 308.981 451.785C309.756 454.189 309.676 456.952 307.47 458.085C305.265 459.217 303.317 457.488 302.045 455.243C301.807 454.905 301.946 454.11 302.443 454.269Z" fill="#263238"/>
<path d="M282.532 499.579C283.684 500.314 284.916 501.407 286.387 501.228C287.876 500.897 289.279 500.254 290.501 499.34C290.525 499.328 290.552 499.323 290.578 499.325C290.605 499.328 290.631 499.338 290.652 499.355C290.673 499.372 290.689 499.394 290.697 499.42C290.705 499.446 290.706 499.473 290.699 499.499C290.296 500.41 289.651 501.193 288.835 501.764C288.019 502.335 287.063 502.672 286.069 502.738C285.193 502.707 284.346 502.414 283.637 501.897C282.929 501.38 282.392 500.662 282.095 499.837C282.075 499.618 282.432 499.479 282.532 499.579Z" fill="#263238"/>
<path d="M295.726 479.607C295.726 479.607 298.111 485.29 298.846 488.072C298.846 488.331 289.327 493.12 283.067 487.456C283.013 487.409 282.978 487.345 282.968 487.274C282.958 487.203 282.973 487.131 283.012 487.071C283.05 487.01 283.109 486.966 283.178 486.946C283.247 486.925 283.32 486.93 283.385 486.959C287.577 488.448 292.139 488.531 296.382 487.198C296.382 486.383 291.97 477.599 292.408 477.46C294.619 477.078 296.871 476.991 299.105 477.202C294.474 465.278 287.976 454.07 283.544 442.087C283.52 442.001 283.525 441.909 283.559 441.826C283.593 441.743 283.654 441.674 283.733 441.63C283.811 441.587 283.902 441.571 283.99 441.585C284.079 441.599 284.16 441.643 284.22 441.709C291.871 452.898 297.495 466.57 302.602 478.832C303.258 480.342 296.958 479.785 295.726 479.607Z" fill="#263238"/>
<path d="M295.647 488.152C294.837 490.564 293.428 492.731 291.554 494.452C290.489 495.342 289.179 495.889 287.798 496.022C284.777 496.26 283.823 493.736 283.585 491.391C283.433 490.144 283.433 488.883 283.585 487.635C287.447 489.093 291.675 489.274 295.647 488.152Z" fill="#263238"/>
<path d="M291.553 494.451C290.488 495.342 289.179 495.889 287.797 496.021C284.776 496.26 283.822 493.736 283.584 491.391C286.664 490.656 290.38 491.649 291.553 494.451Z" fill="#FF99BA"/>
<path d="M214.864 493.597C218.338 491.072 221.097 487.687 222.87 483.775C224.643 479.863 225.37 475.557 224.979 471.28C234.543 464.9 242.233 456.085 247.256 445.744C247.077 447.035 245.785 456.376 244.971 461.105C281.298 447.373 287.776 416.551 287.776 416.551C302.124 426.487 305.96 433.88 308.424 437.437C308.424 437.437 304.569 414.345 289.962 401.03C272.077 384.715 252.94 391.829 252.94 391.829C243.258 391.238 233.597 393.268 224.972 397.706C216.348 402.144 209.08 408.826 203.934 417.048C184.28 448.009 214.864 493.597 214.864 493.597Z" fill="#263238"/>
<path d="M272.495 449.778C267.051 454.161 260.983 457.704 254.49 460.291C254.49 460.291 254.49 460.291 254.49 460.291C264.539 455.524 273.054 448.041 279.073 438.689C281.636 434.703 283.685 430.41 285.174 425.911C286.982 421.054 287.806 415.886 287.598 410.708C287.598 410.629 287.629 410.553 287.685 410.497C287.741 410.442 287.817 410.41 287.896 410.41C287.975 410.41 288.051 410.442 288.107 410.497C288.163 410.553 288.194 410.629 288.194 410.708C288.937 415.805 288.823 420.991 287.856 426.05C286.674 431.019 284.6 435.732 281.736 439.961C279.147 443.692 276.042 447.037 272.515 449.897" fill="#263238"/>
<path d="M270.705 487.079C267.445 487.589 264.108 487.174 261.073 485.882C258.038 484.59 255.426 482.471 253.535 479.768C251.644 477.065 250.55 473.886 250.376 470.591C250.202 467.297 250.957 464.02 252.553 461.133C254.15 458.246 256.524 455.866 259.407 454.261C262.289 452.657 265.564 451.894 268.859 452.059C272.154 452.224 275.336 453.31 278.044 455.193C280.753 457.077 282.878 459.683 284.178 462.715C286.011 467.014 286.065 471.864 284.329 476.203C282.594 480.542 279.209 484.017 274.918 485.867C273.57 486.446 272.154 486.853 270.705 487.079ZM265.597 454.567C262.451 455.06 259.537 456.524 257.263 458.754C254.99 460.984 253.469 463.869 252.915 467.005C252.361 470.141 252.8 473.372 254.172 476.247C255.543 479.121 257.779 481.495 260.566 483.037C263.352 484.579 266.551 485.211 269.715 484.846C272.879 484.481 275.85 483.137 278.212 481.001C280.575 478.866 282.211 476.045 282.892 472.934C283.574 469.823 283.266 466.577 282.012 463.649C280.672 460.528 278.331 457.942 275.36 456.298C272.388 454.653 268.953 454.045 265.597 454.567Z" fill="#F18701"/>
<path d="M309.618 475.99C302.96 477.043 295.826 471.161 293.362 462.298C292.107 458.083 292.197 453.581 293.62 449.42C294.126 447.596 295.094 445.933 296.431 444.593C297.768 443.252 299.428 442.28 301.252 441.77C303.075 441.261 304.999 441.23 306.837 441.683C308.675 442.135 310.366 443.055 311.744 444.353C315.119 447.17 317.529 450.97 318.64 455.223C321.263 464.583 317.726 473.784 310.691 475.751L309.618 475.99ZM302.762 443.856C302.466 443.903 302.174 443.969 301.887 444.055C300.474 444.537 299.196 445.349 298.159 446.424C297.123 447.499 296.357 448.805 295.925 450.235C294.682 453.932 294.612 457.924 295.727 461.662C297.992 469.77 304.471 475.076 310.214 473.466C315.957 471.856 318.739 463.967 316.474 455.859C315.497 452.082 313.364 448.705 310.373 446.201C309.339 445.299 308.127 444.624 306.816 444.22C305.505 443.816 304.124 443.692 302.762 443.856Z" fill="#F18701"/>
<path d="M284.163 464.841L282.176 463.51C284.163 460.628 289.29 456.058 294.676 459.337L293.444 461.324C288.674 458.403 284.421 464.583 284.163 464.841Z" fill="#F18701"/>
<path d="M209.72 490.358L207.395 489.881C207.633 488.808 209.72 479.309 214.569 477.063C219.1 474.976 250.339 469.333 251.651 469.114L252.068 471.419C243.106 473.029 219.04 477.6 215.562 479.229C212.084 480.859 210.256 487.755 209.72 490.358Z" fill="#F18701"/>
<path d="M222.813 483.959C222.813 483.959 206.259 468.2 198.846 474.46C191.434 480.719 206.477 505.401 217.01 507.071C218.338 507.376 219.714 507.411 221.057 507.174C222.399 506.937 223.68 506.433 224.823 505.692C225.967 504.95 226.95 503.987 227.714 502.858C228.478 501.729 229.008 500.459 229.271 499.122L222.813 483.959Z" fill="#AD6359"/>
<path d="M203.279 481.435C203.253 481.445 203.231 481.463 203.215 481.486C203.2 481.509 203.191 481.536 203.191 481.564C203.191 481.592 203.2 481.619 203.215 481.642C203.231 481.665 203.253 481.683 203.279 481.693C210.711 483.084 215.6 488.728 219.475 494.809C216.912 492.683 213.851 491.848 210.95 494.968C210.791 495.127 210.95 495.386 211.208 495.306C212.337 494.679 213.631 494.416 214.914 494.551C216.198 494.686 217.409 495.213 218.382 496.061C219.983 497.51 221.428 499.122 222.694 500.87C223.152 501.407 224.185 500.87 223.807 500.195C223.804 500.148 223.804 500.102 223.807 500.056C222.118 491.272 212.877 480.402 203.279 481.435Z" fill="#263238"/>
<path d="M209.699 557.19C212.084 560.23 214.528 563.151 217.112 566.073C219.695 568.994 222.279 571.776 225.061 574.419C230.605 579.666 236.547 584.733 243.503 587.654C246.862 589.222 250.587 589.841 254.274 589.443C255.139 589.399 255.988 589.184 256.769 588.808C257.551 588.433 258.249 587.906 258.824 587.257C259.982 585.848 260.871 584.238 261.448 582.507C262.602 578.882 263.271 575.12 263.435 571.319C263.802 567.486 263.802 563.626 263.435 559.793C264.207 563.605 264.554 567.49 264.468 571.379C264.471 575.302 263.936 579.207 262.878 582.984C262.348 584.964 261.4 586.808 260.096 588.39C259.4 589.226 258.533 589.904 257.553 590.377C256.591 590.803 255.574 591.09 254.532 591.231C250.505 591.75 246.412 591.145 242.708 589.483C239.11 587.857 235.726 585.795 232.632 583.342C229.542 580.922 226.645 578.264 223.968 575.393C218.614 569.818 213.834 563.72 209.699 557.19Z" fill="#263238"/>
<path d="M770.408 136.406H584.32V255.105H770.408V136.406Z" fill="white"/>
<path d="M771.577 256.357H583.145V135.233H771.577V256.357ZM585.489 254.012H769.312V137.598H585.489V254.012Z" fill="#EBEBEB"/>
<path d="M770.408 136.406H584.32V158.862H770.408V136.406Z" fill="#455A64"/>
<path d="M771.577 160.034H583.145V135.233H771.577V160.034ZM585.489 157.689H769.312V137.598H585.489V157.689Z" fill="#EBEBEB"/>
<path d="M605.383 147.813C605.379 148.928 605.045 150.017 604.423 150.943C603.8 151.868 602.917 152.589 601.886 153.013C600.854 153.437 599.72 153.546 598.626 153.326C597.533 153.106 596.529 152.567 595.742 151.777C594.954 150.987 594.419 149.981 594.203 148.887C593.987 147.792 594.099 146.659 594.527 145.628C594.955 144.598 595.678 143.718 596.606 143.099C597.534 142.48 598.624 142.149 599.74 142.149C600.482 142.149 601.218 142.296 601.904 142.58C602.59 142.865 603.213 143.283 603.737 143.809C604.262 144.335 604.677 144.96 604.959 145.647C605.242 146.334 605.386 147.07 605.383 147.813Z" fill="#F18701"/>
<path d="M628.454 147.813C628.45 148.928 628.115 150.017 627.493 150.943C626.87 151.868 625.988 152.589 624.956 153.013C623.924 153.437 622.79 153.546 621.697 153.326C620.603 153.106 619.599 152.567 618.812 151.777C618.025 150.987 617.489 149.981 617.273 148.887C617.057 147.792 617.17 146.659 617.598 145.628C618.025 144.598 618.749 143.718 619.676 143.099C620.604 142.48 621.694 142.149 622.81 142.149C623.553 142.149 624.288 142.296 624.974 142.58C625.66 142.865 626.283 143.283 626.808 143.809C627.332 144.335 627.747 144.96 628.03 145.647C628.312 146.334 628.456 147.07 628.454 147.813Z" fill="#EBEBEB"/>
<path d="M616.432 203.257C616.577 197.265 619.058 191.567 623.347 187.379C627.635 183.191 633.39 180.844 639.385 180.841C644.603 180.806 649.682 182.52 653.812 185.71C654.52 186.306 654.971 187.152 655.071 188.072C655.171 188.992 654.913 189.915 654.35 190.65C653.787 191.384 652.963 191.873 652.048 192.016C651.134 192.158 650.2 191.942 649.44 191.413C646.6 189.115 643.037 187.897 639.385 187.975C635.245 187.997 631.262 189.563 628.216 192.367C625.322 195.255 623.687 199.169 623.665 203.257C623.662 205.281 624.063 207.285 624.845 209.151C625.626 211.018 626.772 212.71 628.216 214.128C631.265 217.004 635.292 218.616 639.484 218.639C643.134 218.698 646.69 217.482 649.539 215.201C650.312 214.679 651.249 214.46 652.172 214.584C653.096 214.709 653.941 215.169 654.547 215.877C655.101 216.635 655.343 217.576 655.225 218.507C655.107 219.438 654.637 220.289 653.911 220.884C649.781 224.074 644.702 225.788 639.484 225.753C633.451 225.801 627.644 223.464 623.327 219.251C619.009 215.038 616.531 209.289 616.432 203.257Z" fill="#EBEBEB"/>
<path d="M179.949 390.001H75.4785V436.94H179.949V390.001Z" fill="#7678ED"/>
<path d="M106.559 415.537H102.226V423.287C102.226 423.815 102.017 424.32 101.644 424.693C101.272 425.065 100.766 425.275 100.239 425.275C99.7122 425.275 99.2067 425.065 98.834 424.693C98.4613 424.32 98.252 423.815 98.252 423.287V402.381C98.252 401.854 98.4613 401.349 98.834 400.976C99.2067 400.604 99.7122 400.394 100.239 400.394H106.559C107.582 400.342 108.605 400.498 109.565 400.853C110.526 401.208 111.404 401.755 112.147 402.461C112.89 403.166 113.481 404.015 113.885 404.957C114.289 405.898 114.498 406.912 114.498 407.936C114.498 408.96 114.289 409.974 113.885 410.915C113.481 411.856 112.89 412.705 112.147 413.411C111.404 414.116 110.526 414.663 109.565 415.019C108.605 415.374 107.582 415.53 106.559 415.478V415.537ZM102.226 411.563H106.559C107.058 411.6 107.559 411.533 108.031 411.368C108.503 411.202 108.936 410.941 109.302 410.601C109.669 410.26 109.961 409.848 110.161 409.389C110.361 408.931 110.464 408.436 110.464 407.936C110.464 407.436 110.361 406.941 110.161 406.482C109.961 406.024 109.669 405.611 109.302 405.271C108.936 404.931 108.503 404.669 108.031 404.504C107.559 404.338 107.058 404.272 106.559 404.309H102.226V411.563Z" fill="white"/>
<path d="M118.883 423.287V402.381C118.883 401.854 119.092 401.349 119.465 400.976C119.838 400.604 120.343 400.394 120.87 400.394C121.397 400.394 121.903 400.604 122.275 400.976C122.648 401.349 122.857 401.854 122.857 402.381V410.847H131.999V402.381C131.999 401.854 132.208 401.349 132.581 400.976C132.954 400.604 133.459 400.394 133.986 400.394C134.513 400.394 135.019 400.604 135.391 400.976C135.764 401.349 135.973 401.854 135.973 402.381V423.287C135.973 423.815 135.764 424.32 135.391 424.693C135.019 425.065 134.513 425.275 133.986 425.275C133.459 425.275 132.954 425.065 132.581 424.693C132.208 424.32 131.999 423.815 131.999 423.287V414.742H122.857V423.287C122.857 423.815 122.648 424.32 122.275 424.693C121.903 425.065 121.397 425.275 120.87 425.275C120.343 425.275 119.838 425.065 119.465 424.693C119.092 424.32 118.883 423.815 118.883 423.287Z" fill="white"/>
<path d="M152.147 415.537H147.795V423.287C147.795 423.815 147.585 424.32 147.213 424.693C146.84 425.065 146.335 425.275 145.808 425.275C145.281 425.275 144.775 425.065 144.402 424.693C144.03 424.32 143.82 423.815 143.82 423.287V402.381C143.82 401.854 144.03 401.349 144.402 400.976C144.775 400.604 145.281 400.394 145.808 400.394H152.127C153.15 400.342 154.173 400.498 155.134 400.853C156.094 401.208 156.973 401.755 157.715 402.461C158.458 403.166 159.049 404.015 159.453 404.957C159.858 405.898 160.066 406.912 160.066 407.936C160.066 408.96 159.858 409.974 159.453 410.915C159.049 411.856 158.458 412.705 157.715 413.411C156.973 414.116 156.094 414.663 155.134 415.019C154.173 415.374 153.15 415.53 152.127 415.478L152.147 415.537ZM147.795 411.563H152.147C152.646 411.6 153.147 411.533 153.619 411.368C154.091 411.202 154.524 410.941 154.89 410.601C155.257 410.26 155.549 409.848 155.749 409.389C155.949 408.931 156.052 408.436 156.052 407.936C156.052 407.436 155.949 406.941 155.749 406.482C155.549 406.024 155.257 405.611 154.89 405.271C154.524 404.931 154.091 404.669 153.619 404.504C153.147 404.338 152.646 404.272 152.147 404.309H147.795V411.563Z" fill="white"/>
<path d="M400.673 245.069H214.586V363.769H400.673V245.069Z" fill="white"/>
<path d="M401.847 364.941H213.414V243.897H401.847V364.941ZM215.759 362.596H399.502V246.242H215.759V362.596Z" fill="#EBEBEB"/>
<path d="M400.673 245.069H214.586V267.526H400.673V245.069Z" fill="#455A64"/>
<path d="M401.847 268.698H213.414V243.897H401.847V268.698ZM215.759 266.293H399.502V246.242H215.759V266.293Z" fill="#EBEBEB"/>
<path d="M235.653 256.457C235.653 257.573 235.322 258.664 234.702 259.592C234.082 260.52 233.2 261.244 232.169 261.671C231.138 262.098 230.003 262.21 228.908 261.992C227.813 261.774 226.808 261.237 226.018 260.447C225.229 259.658 224.691 258.652 224.474 257.558C224.256 256.463 224.368 255.328 224.795 254.297C225.222 253.266 225.945 252.384 226.874 251.764C227.802 251.144 228.893 250.813 230.009 250.813C231.506 250.813 232.941 251.407 234 252.466C235.058 253.524 235.653 254.96 235.653 256.457Z" fill="#F18701"/>
<path d="M258.725 256.457C258.725 257.573 258.394 258.664 257.774 259.592C257.154 260.52 256.272 261.244 255.241 261.671C254.21 262.098 253.075 262.21 251.98 261.992C250.885 261.774 249.88 261.237 249.091 260.447C248.301 259.658 247.764 258.652 247.546 257.558C247.328 256.463 247.44 255.328 247.867 254.297C248.294 253.266 249.018 252.384 249.946 251.764C250.874 251.144 251.965 250.813 253.081 250.813C253.822 250.813 254.556 250.959 255.241 251.242C255.926 251.526 256.548 251.942 257.072 252.466C257.596 252.99 258.012 253.612 258.296 254.297C258.579 254.982 258.725 255.715 258.725 256.457Z" fill="#EBEBEB"/>
<path d="M281.796 256.456C281.8 257.578 281.471 258.676 280.85 259.611C280.229 260.545 279.345 261.274 278.309 261.705C277.273 262.136 276.133 262.25 275.032 262.032C273.932 261.814 272.921 261.274 272.128 260.481C271.334 259.688 270.795 258.677 270.577 257.576C270.359 256.476 270.473 255.335 270.904 254.3C271.335 253.264 272.064 252.38 272.998 251.759C273.933 251.138 275.03 250.809 276.152 250.813C277.649 250.813 279.085 251.407 280.143 252.466C281.202 253.524 281.796 254.96 281.796 256.456Z" fill="white"/>
<path d="M249.326 312.001C249.446 305.993 251.917 300.271 256.208 296.065C260.5 291.859 266.27 289.504 272.279 289.505C277.503 289.473 282.587 291.187 286.727 294.374C287.421 294.975 287.86 295.82 287.951 296.735C288.043 297.65 287.78 298.565 287.218 299.292C286.656 300.019 285.837 300.504 284.929 300.646C284.02 300.789 283.092 300.578 282.335 300.057C279.49 297.767 275.931 296.55 272.279 296.619C268.092 296.637 264.07 298.25 261.031 301.13C259.592 302.552 258.447 304.245 257.663 306.11C256.878 307.975 256.47 309.977 256.46 312.001C256.458 314.029 256.862 316.037 257.647 317.907C258.432 319.777 259.582 321.472 261.031 322.891C264.077 325.757 268.097 327.361 272.279 327.382C275.965 327.459 279.561 326.235 282.434 323.924C283.208 323.405 284.147 323.188 285.071 323.317C285.994 323.445 286.838 323.909 287.442 324.62C287.993 325.377 288.236 326.316 288.121 327.245C288.007 328.175 287.544 329.026 286.826 329.628C282.687 332.814 277.602 334.528 272.378 334.496C266.348 334.539 260.543 332.2 256.227 327.988C251.911 323.776 249.431 318.031 249.326 312.001Z" fill="#EBEBEB"/>
<path d="M309.281 315.856H300.319C299.866 315.856 299.417 315.766 298.999 315.592C298.58 315.418 298.2 315.163 297.881 314.842C297.561 314.521 297.308 314.139 297.137 313.72C296.965 313.3 296.878 312.851 296.881 312.398C296.891 311.489 297.257 310.621 297.899 309.978C298.542 309.336 299.41 308.97 300.319 308.96H309.202V300.276C309.269 299.376 309.674 298.534 310.336 297.92C310.997 297.306 311.867 296.965 312.769 296.965C313.672 296.965 314.541 297.306 315.202 297.92C315.864 298.534 316.269 299.376 316.336 300.276V308.96H325.219C326.128 308.97 326.996 309.336 327.639 309.978C328.281 310.621 328.647 311.489 328.657 312.398C328.66 312.851 328.573 313.3 328.401 313.72C328.23 314.139 327.977 314.521 327.657 314.842C327.338 315.163 326.958 315.418 326.54 315.592C326.121 315.766 325.672 315.856 325.219 315.856H316.416V324.54C316.349 325.44 315.944 326.282 315.282 326.896C314.62 327.51 313.751 327.851 312.849 327.851C311.946 327.851 311.077 327.51 310.415 326.896C309.754 326.282 309.349 325.44 309.281 324.54V315.856Z" fill="#EBEBEB"/>
<path d="M348.013 315.856H339.129C338.26 315.79 337.448 315.398 336.855 314.759C336.263 314.119 335.934 313.28 335.934 312.408C335.934 311.536 336.263 310.697 336.855 310.057C337.448 309.418 338.26 309.026 339.129 308.96H348.013V300.276C348.004 299.806 348.091 299.34 348.267 298.905C348.443 298.47 348.705 298.074 349.036 297.742C349.368 297.41 349.764 297.149 350.199 296.973C350.634 296.797 351.1 296.71 351.57 296.718C352.038 296.716 352.501 296.806 352.934 296.984C353.367 297.162 353.76 297.424 354.091 297.754C354.422 298.085 354.684 298.479 354.862 298.911C355.039 299.344 355.13 299.808 355.127 300.276V308.96H364.01C364.919 308.97 365.787 309.336 366.43 309.978C367.072 310.621 367.438 311.489 367.448 312.398C367.451 312.851 367.364 313.3 367.192 313.72C367.02 314.139 366.768 314.521 366.448 314.842C366.129 315.163 365.749 315.418 365.33 315.592C364.912 315.766 364.463 315.856 364.01 315.856H355.167V324.54C355.169 325.008 355.079 325.472 354.901 325.905C354.723 326.337 354.462 326.731 354.131 327.061C353.8 327.392 353.407 327.654 352.974 327.832C352.541 328.01 352.077 328.1 351.61 328.097C351.14 328.105 350.674 328.019 350.239 327.843C349.804 327.667 349.408 327.405 349.076 327.073C348.744 326.742 348.483 326.346 348.307 325.911C348.131 325.476 348.044 325.01 348.052 324.54L348.013 315.856Z" fill="#EBEBEB"/>
<g opacity="0.6">
<path opacity="0.6" d="M745.661 271.838H435.33V489.245H745.661V271.838Z" fill="white"/>
<path opacity="0.6" d="M746.854 490.417H434.158V270.646H746.854V490.417ZM436.523 488.072H744.549V273.01H436.523V488.072Z" fill="#EBEBEB"/>
<path opacity="0.6" d="M745.661 271.838H435.33V294.294H745.661V271.838Z" fill="#455A64"/>
<path opacity="0.6" d="M746.854 295.447H434.158V270.646H746.854V295.447ZM436.523 293.102H744.549V273.01H436.523V293.102Z" fill="#EBEBEB"/>
<path opacity="0.6" d="M456.415 283.225C456.415 284.345 456.083 285.44 455.461 286.372C454.838 287.303 453.954 288.029 452.919 288.458C451.884 288.886 450.745 288.998 449.647 288.78C448.548 288.561 447.539 288.022 446.747 287.23C445.955 286.438 445.415 285.429 445.197 284.33C444.978 283.231 445.09 282.092 445.519 281.058C445.948 280.023 446.674 279.138 447.605 278.516C448.536 277.893 449.631 277.561 450.752 277.561C452.254 277.561 453.694 278.158 454.756 279.22C455.819 280.282 456.415 281.723 456.415 283.225Z" fill="#F18701"/>
<path opacity="0.6" d="M479.488 283.225C479.488 284.345 479.155 285.44 478.533 286.372C477.911 287.303 477.026 288.029 475.991 288.458C474.956 288.886 473.818 288.998 472.719 288.78C471.62 288.561 470.611 288.022 469.819 287.23C469.027 286.438 468.488 285.429 468.269 284.33C468.05 283.231 468.163 282.092 468.591 281.058C469.02 280.023 469.746 279.138 470.677 278.516C471.609 277.893 472.704 277.561 473.824 277.561C475.326 277.561 476.767 278.158 477.829 279.22C478.891 280.282 479.488 281.723 479.488 283.225Z" fill="#EBEBEB"/>
<path opacity="0.6" d="M502.562 283.225C502.562 284.345 502.23 285.44 501.607 286.372C500.985 287.303 500.1 288.029 499.065 288.458C498.031 288.886 496.892 288.998 495.793 288.78C494.694 288.561 493.685 288.022 492.893 287.23C492.101 286.438 491.562 285.429 491.343 284.33C491.125 283.231 491.237 282.092 491.666 281.058C492.094 280.023 492.82 279.138 493.752 278.516C494.683 277.893 495.778 277.561 496.898 277.561C498.4 277.561 499.841 278.158 500.903 279.22C501.965 280.282 502.562 281.723 502.562 283.225Z" fill="white"/>
<path opacity="0.6" d="M471.417 338.928H459.414V343.32H471.417V338.928Z" fill="#EBEBEB"/>
<path opacity="0.6" d="M617.842 338.928H480.164V343.32H617.842V338.928Z" fill="#EBEBEB"/>
<path opacity="0.6" d="M648.009 338.928H625.215V343.32H648.009V338.928Z" fill="#F18701"/>
<path opacity="0.6" d="M483.423 350.673H471.42V355.065H483.423V350.673Z" fill="#EBEBEB"/>
<path opacity="0.6" d="M582.208 350.673H491.867V355.065H582.208V350.673Z" fill="#A6A6A6"/>
<path opacity="0.6" d="M566.451 385.867H480.164V390.259H566.451V385.867Z" fill="#A6A6A6"/>
<path opacity="0.6" d="M552.399 362.398H491.867V366.79H552.399V362.398Z" fill="#F18701"/>
<path opacity="0.6" d="M655.798 362.398H559.117V366.79H655.798V362.398Z" fill="#A6A6A6"/>
<path opacity="0.6" d="M595.565 397.592H480.164V401.984H595.565V397.592Z" fill="#F18701"/>
<path opacity="0.6" d="M645.464 350.673H587.893V355.065H645.464V350.673Z" fill="#EBEBEB"/>
<path opacity="0.6" d="M483.423 362.398H471.42V366.79H483.423V362.398Z" fill="#EBEBEB"/>
<path opacity="0.6" d="M471.417 374.142H459.414V378.534H471.417V374.142Z" fill="#A6A6A6"/>
<path opacity="0.6" d="M551.09 374.142H480.164V378.534H551.09V374.142Z" fill="#EBEBEB"/>
<path opacity="0.6" d="M648.007 385.867H571.338V390.259H648.007V385.867Z" fill="#EBEBEB"/>
<path opacity="0.6" d="M634.872 374.142H558.303V378.534H634.872V374.142Z" fill="#F18701"/>
<path opacity="0.6" d="M471.417 385.867H459.414V390.259H471.417V385.867Z" fill="#EBEBEB"/>
<path opacity="0.6" d="M471.417 397.592H459.414V401.984H471.417V397.592Z" fill="#EBEBEB"/>
<path opacity="0.6" d="M466.829 327.382C466.972 327.528 467.069 327.712 467.109 327.912C467.149 328.112 467.129 328.32 467.054 328.509C466.978 328.699 466.849 328.862 466.682 328.979C466.515 329.097 466.318 329.163 466.114 329.171C465.833 329.174 465.562 329.067 465.359 328.872L460.728 324.183C460.719 324.164 460.715 324.144 460.715 324.123C460.715 324.102 460.719 324.082 460.728 324.063C460.728 324.063 460.728 324.063 460.728 323.964C460.728 323.865 460.728 323.964 460.728 323.964V323.845C460.724 323.812 460.724 323.778 460.728 323.745V323.487C460.731 323.441 460.731 323.394 460.728 323.348C460.728 323.348 460.728 323.229 460.728 323.189C460.728 323.189 460.728 323.09 460.828 323.07L465.458 318.38C465.655 318.188 465.918 318.081 466.193 318.081C466.468 318.081 466.732 318.188 466.929 318.38C467.028 318.474 467.108 318.588 467.162 318.715C467.217 318.841 467.244 318.977 467.244 319.115C467.244 319.253 467.217 319.389 467.162 319.515C467.108 319.642 467.028 319.756 466.929 319.85L462.954 323.825L466.829 327.382Z" fill="#F18701"/>
<path opacity="0.6" d="M471.021 327.899L474.995 318.3C475.043 318.189 475.112 318.088 475.199 318.003C475.286 317.919 475.389 317.852 475.502 317.808C475.614 317.764 475.735 317.742 475.856 317.745C475.977 317.747 476.097 317.774 476.208 317.823C476.314 317.869 476.409 317.935 476.49 318.017C476.57 318.1 476.633 318.198 476.676 318.305C476.718 318.412 476.739 318.526 476.737 318.641C476.735 318.757 476.711 318.87 476.665 318.976L472.69 328.614C472.617 328.775 472.5 328.91 472.352 329.006C472.204 329.101 472.032 329.151 471.856 329.151C471.744 329.17 471.63 329.17 471.518 329.151C471.397 329.108 471.288 329.04 471.196 328.952C471.104 328.863 471.032 328.756 470.985 328.638C470.938 328.519 470.917 328.392 470.923 328.264C470.929 328.137 470.963 328.012 471.021 327.899Z" fill="#F18701"/>
<path opacity="0.6" d="M484.695 324.044V324.163L480.064 328.853C479.861 329.047 479.59 329.154 479.309 329.151C479.035 329.151 478.771 329.044 478.574 328.853C478.476 328.755 478.398 328.639 478.345 328.511C478.292 328.383 478.265 328.246 478.265 328.107C478.265 327.969 478.292 327.832 478.345 327.704C478.398 327.576 478.476 327.46 478.574 327.362L482.548 323.388L478.574 319.413C478.474 319.318 478.394 319.204 478.34 319.078C478.286 318.952 478.258 318.815 478.258 318.678C478.258 318.54 478.286 318.404 478.34 318.278C478.394 318.151 478.474 318.037 478.574 317.943C478.774 317.75 479.041 317.642 479.319 317.642C479.597 317.642 479.864 317.75 480.064 317.943L484.695 322.633C484.703 322.672 484.703 322.712 484.695 322.752C484.698 322.805 484.698 322.858 484.695 322.911C484.686 322.963 484.686 323.017 484.695 323.07V323.308V323.487C484.695 323.487 484.695 323.606 484.695 323.626C484.695 323.646 484.695 323.626 484.695 323.626V324.044Z" fill="#F18701"/>
</g>
<path d="M247.873 201.31H121.105V248.249H247.873V201.31Z" fill="#F18701"/>
<path d="M139.35 234.497V213.711C139.35 213.183 139.559 212.678 139.932 212.305C140.304 211.933 140.81 211.723 141.337 211.723C141.864 211.723 142.369 211.933 142.742 212.305C143.115 212.678 143.324 213.183 143.324 213.711V222.176H152.466V213.711C152.466 213.183 152.675 212.678 153.048 212.305C153.42 211.933 153.926 211.723 154.453 211.723C154.98 211.723 155.485 211.933 155.858 212.305C156.231 212.678 156.44 213.183 156.44 213.711V234.497C156.44 235.024 156.231 235.53 155.858 235.903C155.485 236.275 154.98 236.485 154.453 236.485C153.926 236.485 153.42 236.275 153.048 235.903C152.675 235.53 152.466 235.024 152.466 234.497V226.032H143.324V234.497C143.324 235.024 143.115 235.53 142.742 235.903C142.369 236.275 141.864 236.485 141.337 236.485C140.81 236.485 140.304 236.275 139.932 235.903C139.559 235.53 139.35 235.024 139.35 234.497Z" fill="white"/>
<path d="M179.511 215.678H173.887V234.497C173.887 235.024 173.678 235.53 173.305 235.902C172.933 236.275 172.427 236.485 171.9 236.485C171.373 236.485 170.868 236.275 170.495 235.902C170.122 235.53 169.913 235.024 169.913 234.497V215.658H164.349C163.822 215.658 163.316 215.449 162.943 215.076C162.571 214.703 162.361 214.198 162.361 213.671C162.361 213.144 162.571 212.638 162.943 212.266C163.316 211.893 163.822 211.683 164.349 211.683H179.412C179.939 211.683 180.445 211.893 180.817 212.266C181.19 212.638 181.399 213.144 181.399 213.671C181.405 214.184 181.212 214.68 180.86 215.055C180.508 215.429 180.025 215.652 179.511 215.678Z" fill="white"/>
<path d="M208.507 213.71V234.497C208.507 235.024 208.297 235.53 207.925 235.903C207.552 236.275 207.046 236.485 206.519 236.485C205.992 236.485 205.487 236.275 205.114 235.903C204.741 235.53 204.532 235.024 204.532 234.497V219.652L199.445 226.707C199.262 226.958 199.023 227.162 198.746 227.303C198.47 227.445 198.165 227.52 197.855 227.522C197.538 227.526 197.225 227.454 196.941 227.312C196.658 227.171 196.412 226.963 196.225 226.707L191.178 219.652V234.497C191.178 235.024 190.968 235.53 190.596 235.903C190.223 236.275 189.717 236.485 189.19 236.485C188.663 236.485 188.158 236.275 187.785 235.903C187.412 235.53 187.203 235.024 187.203 234.497V213.71C187.203 213.183 187.412 212.678 187.785 212.305C188.158 211.933 188.663 211.723 189.19 211.723C189.496 211.72 189.798 211.793 190.068 211.935C190.339 212.078 190.57 212.285 190.74 212.538L197.775 222.276L204.93 212.637C205.113 212.387 205.352 212.183 205.628 212.041C205.904 211.9 206.209 211.825 206.519 211.823C207.03 211.822 207.521 212.018 207.891 212.369C208.261 212.721 208.481 213.201 208.507 213.71Z" fill="white"/>
<path d="M217.053 234.497V213.711C217.053 213.183 217.262 212.678 217.635 212.305C218.007 211.933 218.513 211.723 219.04 211.723C219.567 211.723 220.073 211.933 220.445 212.305C220.818 212.678 221.027 213.183 221.027 213.711V232.51H230.586C231.113 232.51 231.619 232.719 231.991 233.092C232.364 233.465 232.573 233.97 232.573 234.497C232.573 235.024 232.364 235.53 231.991 235.903C231.619 236.275 231.113 236.485 230.586 236.485H219.04C218.513 236.485 218.007 236.275 217.635 235.903C217.262 235.53 217.053 235.024 217.053 234.497Z" fill="white"/>
<path d="M450.315 454.05H379.549V500.99H450.315V454.05Z" fill="#F7B801"/>
<path d="M398.765 482.071C399.116 483.129 399.83 484.03 400.782 484.611C401.733 485.192 402.86 485.417 403.962 485.245C405.064 485.074 406.069 484.517 406.799 483.673C407.529 482.83 407.935 481.755 407.947 480.64V467.007C408.072 466.602 408.325 466.248 408.666 465.997C409.007 465.745 409.42 465.609 409.845 465.609C410.269 465.609 410.682 465.745 411.023 465.997C411.365 466.248 411.617 466.602 411.742 467.007V480.58C411.746 482.607 411.025 484.569 409.708 486.11C408.391 487.651 406.566 488.669 404.564 488.982C402.561 489.294 400.513 488.879 398.789 487.812C397.066 486.744 395.782 485.096 395.169 483.164C395.088 482.932 395.056 482.686 395.073 482.441C395.09 482.196 395.156 481.957 395.267 481.738C395.378 481.519 395.532 481.325 395.72 481.167C395.908 481.009 396.126 480.891 396.361 480.819C396.601 480.736 396.855 480.703 397.108 480.722C397.361 480.741 397.607 480.811 397.832 480.928C398.057 481.045 398.256 481.207 398.417 481.403C398.577 481.6 398.696 481.827 398.765 482.071Z" fill="white"/>
<path d="M416.515 483.164C416.813 482.804 417.242 482.576 417.708 482.532C418.173 482.487 418.638 482.629 418.999 482.925C420.838 484.483 423.132 485.404 425.537 485.549C427.055 485.573 428.545 485.136 429.81 484.297C430.232 484.032 430.584 483.671 430.836 483.242C431.089 482.813 431.234 482.329 431.261 481.832C431.269 481.447 431.166 481.067 430.962 480.739C430.703 480.319 430.35 479.965 429.929 479.706C428.481 478.895 426.899 478.35 425.259 478.096C423.744 477.841 422.268 477.394 420.867 476.765C419.569 476.208 418.464 475.282 417.687 474.102C417.16 473.263 416.884 472.291 416.893 471.3C416.929 470.312 417.196 469.347 417.672 468.481C418.149 467.615 418.821 466.872 419.635 466.312C421.383 465.098 423.469 464.465 425.597 464.503C428.301 464.642 430.9 465.598 433.049 467.246C433.241 467.372 433.407 467.535 433.535 467.726C433.664 467.917 433.753 468.132 433.797 468.358C433.842 468.584 433.841 468.816 433.794 469.041C433.747 469.267 433.656 469.481 433.526 469.67C433.403 469.866 433.242 470.036 433.052 470.168C432.862 470.3 432.647 470.392 432.42 470.438C432.193 470.485 431.96 470.484 431.733 470.438C431.506 470.391 431.292 470.299 431.102 470.167C429.531 468.896 427.611 468.133 425.597 467.981C424.232 467.955 422.896 468.366 421.781 469.154C421.404 469.377 421.087 469.689 420.858 470.063C420.63 470.438 420.496 470.862 420.47 471.3C420.453 471.634 420.536 471.966 420.708 472.254C420.954 472.614 421.272 472.918 421.642 473.148C422.953 473.928 424.405 474.442 425.915 474.658C427.539 474.932 429.122 475.413 430.625 476.089C432.016 476.683 433.204 477.671 434.043 478.931C434.586 479.801 434.875 480.806 434.877 481.832C434.844 482.884 434.56 483.913 434.048 484.832C433.537 485.752 432.812 486.536 431.936 487.118C430.093 488.432 427.88 489.128 425.617 489.106C422.398 488.964 419.317 487.762 416.853 485.688C416.475 485.396 416.228 484.968 416.164 484.495C416.101 484.023 416.227 483.544 416.515 483.164Z" fill="white"/>
<path opacity="0.6" d="M139.048 787.335C139.048 787.335 182.49 767.323 182.49 740.495C182.49 713.667 126.151 696.378 126.151 675.412C126.151 654.446 150.714 642.086 150.714 642.086C150.714 642.086 111.902 655.36 111.902 681.831C111.902 708.301 149.044 726.326 152.602 743.198C157.53 766.707 139.048 787.335 139.048 787.335Z" fill="#DBDBDB"/>
<path opacity="0.6" d="M141.196 787.335C141.196 787.335 97.7344 771.596 97.7344 750.511C97.7344 729.426 154.093 715.813 154.093 699.339C154.093 682.864 129.511 673.146 129.511 673.146C129.511 673.146 168.342 683.56 168.342 704.426C168.342 725.292 125.675 739.62 122.635 756.572C119.634 773.185 141.196 787.335 141.196 787.335Z" fill="#DBDBDB"/>
<path d="M160.173 854.822H118.838V861.281H160.173V854.822Z" fill="#37474F"/>
<path d="M160.173 854.822H118.838V859.075H160.173V854.822Z" fill="#263238"/>
<path d="M69.7935 837.474C72.3109 841.187 75.8432 844.098 79.9693 845.86C84.0953 847.622 88.641 848.16 93.0643 847.41C94.4978 847.142 95.902 846.736 97.2575 846.198C99.3131 845.399 101.273 844.372 103.1 843.137L97.8536 835.347C96.8768 836.025 95.8389 836.61 94.7535 837.096C84.8172 841.567 78.6765 833.817 77.4444 832.028C71.7807 824.079 69.7537 805.876 75.4572 798.881C75.8347 798.364 77.4444 797.549 84.1614 798.881C85.3736 799.159 86.7846 799.477 88.3545 799.914C89.5779 800.329 90.8447 800.602 92.1303 800.729L92.2893 796.039L92.7464 791.389C92.3291 791.389 91.6534 791.111 90.7591 790.872C87.6844 789.958 84.541 789.293 81.3593 788.885C76.4707 788.368 71.423 788.885 68.1838 792.859C58.9032 804.386 62.679 827.497 69.7935 837.474Z" fill="#37474F"/>
<path d="M97.8326 835.367C96.8557 836.045 95.8178 836.63 94.7324 837.116L97.2364 846.217C99.2921 845.419 101.252 844.392 103.079 843.157L97.8326 835.367Z" fill="#263238"/>
<path d="M81.3984 788.944L84.1806 798.881C85.3928 799.159 86.8038 799.477 88.3737 799.914C89.5971 800.329 90.864 800.602 92.1496 800.729L92.3085 796.039L92.7656 791.389C92.3483 791.389 91.6726 791.111 90.7783 790.872C87.7084 789.979 84.5717 789.334 81.3984 788.944Z" fill="#263238"/>
<path d="M194.495 776.822C194.495 776.822 189.527 818.952 180.962 836.698C172.396 854.445 160.433 856.392 153.021 856.392H125.994C118.561 856.392 106.618 854.405 98.0528 836.698C89.4877 818.992 84.5195 776.822 84.5195 776.822H194.495Z" fill="#37474F"/>
<path d="M188.613 811.818C187.758 815.693 186.824 819.528 185.791 823.145H93.2243C92.1909 819.528 91.237 815.693 90.4023 811.818H188.613Z" fill="#455A64"/>
<path d="M184.517 827.438C183.881 829.425 183.226 831.412 182.53 833.101H96.4814C95.7859 831.353 95.1301 829.445 94.4941 827.438H184.517Z" fill="#455A64"/>
<path d="M190.739 801.166C190.401 803.014 190.043 804.902 189.646 806.83H89.3684C88.9709 804.843 88.6132 803.014 88.2754 801.166H190.739Z" fill="#455A64"/>
</g>
<defs>
<filter id="filter0_d_663_285" x="3.67188" y="0" width="850.975" height="887.822" filterUnits="userSpaceOnUse" color-interpolation-filters="sRGB">
<feFlood flood-opacity="0" result="BackgroundImageFix"/>
<feColorMatrix in="SourceAlpha" type="matrix" values="0 0 0 0 0 0 0 0 0 0 0 0 0 0 0 0 0 0 127 0" result="hardAlpha"/>
<feOffset dy="4"/>
<feGaussianBlur stdDeviation="2"/>
<feComposite in2="hardAlpha" operator="out"/>
<feColorMatrix type="matrix" values="0 0 0 0 0 0 0 0 0 0 0 0 0 0 0 0 0 0 0.25 0"/>
<feBlend mode="normal" in2="BackgroundImageFix" result="effect1_dropShadow_663_285"/>
<feBlend mode="normal" in="SourceGraphic" in2="effect1_dropShadow_663_285" result="shape"/>
</filter>
</defs>
</svg>
