<svg width="160" height="160" viewBox="0 0 160 160" fill="none" xmlns="http://www.w3.org/2000/svg">
<g clip-path="url(#clip0_663_567)">
<path d="M90.44 80.184C89.6325 80.0612 88.8168 79.9997 88 80H32C27.7565 80 23.6869 81.6857 20.6863 84.6863C17.6857 87.6869 16 91.7565 16 96V108C16 124.432 32.704 136 60 136C65.856 136 71.232 135.464 76.048 134.464C74.921 132.027 74.0212 129.491 73.36 126.888C68.9489 127.658 64.4776 128.03 60 128C36.632 128 24 119.256 24 108V96C24 93.8783 24.8429 91.8434 26.3431 90.3431C27.8434 88.8429 29.8783 88 32 88H82.056C84.496 85.04 87.312 82.416 90.44 80.184ZM116 72C121.304 72 126.391 69.8929 130.142 66.1421C133.893 62.3914 136 57.3043 136 52C136 46.6957 133.893 41.6086 130.142 37.8579C126.391 34.1071 121.304 32 116 32C110.696 32 105.609 34.1071 101.858 37.8579C98.1071 41.6086 96 46.6957 96 52C96 57.3043 98.1071 62.3914 101.858 66.1421C105.609 69.8929 110.696 72 116 72ZM104 52C104 48.8174 105.264 45.7652 107.515 43.5147C109.765 41.2643 112.817 40 116 40C119.183 40 122.235 41.2643 124.485 43.5147C126.736 45.7652 128 48.8174 128 52C128 55.1826 126.736 58.2348 124.485 60.4853C122.235 62.7357 119.183 64 116 64C112.817 64 109.765 62.7357 107.515 60.4853C105.264 58.2348 104 55.1826 104 52ZM88 44C88 36.5739 85.05 29.452 79.799 24.201C74.548 18.95 67.4261 16 60 16C52.5739 16 45.452 18.95 40.201 24.201C34.95 29.452 32 36.5739 32 44C32 51.4261 34.95 58.548 40.201 63.799C45.452 69.05 52.5739 72 60 72C67.4261 72 74.548 69.05 79.799 63.799C85.05 58.548 88 51.4261 88 44ZM40 44C40 38.6957 42.1071 33.6086 45.8579 29.8579C49.6086 26.1071 54.6957 24 60 24C65.3043 24 70.3914 26.1071 74.1421 29.8579C77.8929 33.6086 80 38.6957 80 44C80 49.3043 77.8929 54.3914 74.1421 58.1421C70.3914 61.8929 65.3043 64 60 64C54.6957 64 49.6086 61.8929 45.8579 58.1421C42.1071 54.3914 40 49.3043 40 44ZM152 116C152 125.548 148.207 134.705 141.456 141.456C134.705 148.207 125.548 152 116 152C106.452 152 97.2955 148.207 90.5442 141.456C83.7928 134.705 80 125.548 80 116C80 106.452 83.7928 97.2955 90.5442 90.5442C97.2955 83.7928 106.452 80 116 80C125.548 80 134.705 83.7928 141.456 90.5442C148.207 97.2955 152 106.452 152 116ZM134.832 101.168C134.46 100.795 134.019 100.5 133.533 100.298C133.047 100.097 132.526 99.9929 132 99.9929C131.474 99.9929 130.953 100.097 130.467 100.298C129.981 100.5 129.54 100.795 129.168 101.168L108 122.344L102.832 117.168C102.081 116.417 101.062 115.995 100 115.995C98.9378 115.995 97.9191 116.417 97.168 117.168C96.4169 117.919 95.9949 118.938 95.9949 120C95.9949 121.062 96.4169 122.081 97.168 122.832L105.168 130.832C105.54 131.205 105.981 131.5 106.467 131.702C106.953 131.903 107.474 132.007 108 132.007C108.526 132.007 109.047 131.903 109.533 131.702C110.019 131.5 110.46 131.205 110.832 130.832L134.832 106.832C135.205 106.46 135.5 106.019 135.702 105.533C135.903 105.047 136.007 104.526 136.007 104C136.007 103.474 135.903 102.953 135.702 102.467C135.5 101.981 135.205 101.54 134.832 101.168Z" fill="#F18701"/>
<g clip-path="url(#clip1_663_567)">
<path d="M152 116C152 125.548 148.207 134.705 141.456 141.456C134.705 148.207 125.548 152 116 152C106.452 152 97.2955 148.207 90.5442 141.456C83.7928 134.705 80 125.548 80 116C80 106.452 83.7928 97.2955 90.5442 90.5442C97.2955 83.7928 106.452 80 116 80C125.548 80 134.705 83.7928 141.456 90.5442C148.207 97.2955 152 106.452 152 116ZM134.832 101.168C134.46 100.795 134.019 100.5 133.533 100.298C133.047 100.097 132.526 99.9929 132 99.9929C131.474 99.9929 130.953 100.097 130.467 100.298C129.981 100.5 129.54 100.795 129.168 101.168L108 122.344L102.832 117.168C102.081 116.417 101.062 115.995 100 115.995C98.9378 115.995 97.9191 116.417 97.168 117.168C96.4169 117.919 95.9949 118.938 95.9949 120C95.9949 121.062 96.4169 122.081 97.168 122.832L105.168 130.832C105.54 131.205 105.981 131.5 106.467 131.702C106.953 131.903 107.474 132.007 108 132.007C108.526 132.007 109.047 131.903 109.533 131.702C110.019 131.5 110.46 131.205 110.832 130.832L134.832 106.832C135.205 106.46 135.5 106.019 135.702 105.533C135.903 105.047 136.007 104.526 136.007 104C136.007 103.474 135.903 102.953 135.702 102.467C135.5 101.981 135.205 101.54 134.832 101.168Z" fill="#18124D"/>
</g>
</g>
<defs>
<clipPath id="clip0_663_567">
<rect width="160" height="160" fill="white"/>
</clipPath>
<clipPath id="clip1_663_567">
<rect width="160" height="160" fill="white" transform="translate(34)"/>
</clipPath>
</defs>
</svg>
