<svg width="37" height="37" viewBox="0 0 37 37" fill="none" xmlns="http://www.w3.org/2000/svg">
<path fill-rule="evenodd" clip-rule="evenodd" d="M1.54102 4.37533C1.54102 3.62382 1.83955 2.90309 2.37095 2.37169C2.90235 1.84029 3.62309 1.54175 4.3746 1.54175H32.621C32.9934 1.54114 33.3623 1.614 33.7066 1.75615C34.0508 1.89829 34.3636 2.10694 34.6271 2.37014C34.8906 2.63335 35.0996 2.94594 35.2421 3.29002C35.3846 3.6341 35.4579 4.00291 35.4577 4.37533V32.6217C35.4581 32.9942 35.385 33.3632 35.2427 33.7074C35.1004 34.0517 34.8916 34.3645 34.6283 34.6279C34.365 34.8914 34.0523 35.1004 33.7081 35.2429C33.3639 35.3854 32.9951 35.4586 32.6226 35.4584H4.3746C4.00236 35.4584 3.63376 35.3851 3.28988 35.2426C2.94599 35.1001 2.63355 34.8912 2.37041 34.6279C2.10727 34.3646 1.89858 34.0521 1.75627 33.7081C1.61396 33.3642 1.54081 32.9955 1.54102 32.6233V4.37533ZM14.9658 14.4732H19.5585V16.7796C20.2214 15.4537 21.9172 14.2605 24.4656 14.2605C29.3511 14.2605 30.5089 16.9014 30.5089 21.7468V30.7224H25.5648V22.8507C25.5648 20.0911 24.9019 18.534 23.2184 18.534C20.8828 18.534 19.9115 20.2129 19.9115 22.8507V30.7224H14.9658V14.4732ZM6.48668 30.5112H11.4323V14.2605H6.48668V30.5097V30.5112ZM12.14 8.96025C12.1493 9.3837 12.0739 9.80475 11.9183 10.1987C11.7627 10.5926 11.53 10.9515 11.2338 11.2543C10.9376 11.5571 10.584 11.7976 10.1936 11.9619C9.80313 12.1261 9.38384 12.2107 8.96029 12.2107C8.53673 12.2107 8.11744 12.1261 7.72702 11.9619C7.33661 11.7976 6.98293 11.5571 6.68674 11.2543C6.39056 10.9515 6.15783 10.5926 6.00223 10.1987C5.84663 9.80475 5.77127 9.3837 5.7806 8.96025C5.7989 8.12907 6.14194 7.33809 6.73626 6.75672C7.33057 6.17535 8.1289 5.84981 8.96029 5.84981C9.79167 5.84981 10.59 6.17535 11.1843 6.75672C11.7786 7.33809 12.1217 8.12907 12.14 8.96025Z" fill="#3A72A7"/>
</svg>
