<svg width="59" height="59" viewBox="0 0 59 59" fill="none" xmlns="http://www.w3.org/2000/svg">
<circle cx="29.5" cy="29.5" r="29.5" fill="#18124D"/>
<g clip-path="url(#clip0_460_8340)">
<path d="M22.055 13.5886L28.2217 11.2425C29.0439 10.9299 29.9561 10.9299 30.7783 11.2425L36.945 13.5886C38.3389 14.1203 39.2639 15.4635 39.2639 16.9633V24.1937C39.3474 24.2195 39.4309 24.2452 39.5144 24.2195L45.6811 26.6236C47.075 27.1521 48 28.4991 48 29.9945V37.6773C48 39.1081 47.1585 40.4036 45.8481 40.9773L39.6814 43.6972C38.7628 44.1097 37.7094 44.1097 36.7908 43.6972L29.5 40.4874L22.2092 43.6972C21.2906 44.1097 20.2372 44.1097 19.3186 43.6972L13.1493 40.9773C11.8434 40.4036 11 39.1081 11 37.6773V29.9945C11 28.4991 11.9244 27.1521 13.3221 26.6236L19.4856 24.2195C19.5691 24.2452 19.6526 24.2195 19.7361 24.1937V16.9633C19.7361 15.4635 20.6611 14.1203 22.055 13.5886ZM29.6799 14.1351C29.5642 14.0906 29.378 14.0906 29.3201 14.1351L24.284 16.05L29.4422 18.0577L34.716 16.05L29.6799 14.1351ZM36.1806 24.5739V18.7989L30.8875 20.8357V26.5849L36.1806 24.5739ZM20.9438 27.1714C20.8281 27.1263 20.6418 27.1263 20.584 27.1714L15.5486 29.0857L20.7639 31.0902L25.9799 29.0857L20.9438 27.1714ZM22.1514 40.3456L27.4444 38.0124V31.8314L22.1514 33.8681V40.3456ZM33.0201 29.0857L38.2361 31.0902L43.4521 29.0857L38.416 27.1714C38.3003 27.1263 38.1141 27.1263 38.0563 27.1714L33.0201 29.0857ZM44.9167 37.6773V31.8314L39.6236 33.8681V40.3456L44.6083 38.1478C44.7946 38.064 44.9167 37.8835 44.9167 37.6773Z" fill="white"/>
</g>
<defs>
<clipPath id="clip0_460_8340">
<rect width="37" height="33" fill="white" transform="translate(11 11)"/>
</clipPath>
</defs>
</svg>
