<svg width="52" height="52" viewBox="0 0 52 52" fill="none" xmlns="http://www.w3.org/2000/svg">
<g filter="url(#filter0_d_413_2281)">
<circle cx="26" cy="22" r="22" fill="#ECECEC"/>
<g clip-path="url(#clip0_413_2281)">
<path d="M21.4696 12.7256L25.6363 11.1615C26.1918 10.9532 26.8082 10.9532 27.3637 11.1615L31.5304 12.7256C32.4722 13.0801 33.0972 13.9755 33.0972 14.9754V19.7957C33.1536 19.8128 33.2101 19.83 33.2665 19.8128L37.4332 21.4156C38.375 21.7679 39 22.666 39 23.6629V28.7847C39 29.7386 38.4314 30.6023 37.546 30.9847L33.3793 32.798C32.7587 33.073 32.0469 33.073 31.4262 32.798L26.5 30.6582L21.5738 32.798C20.9531 33.073 20.2413 33.073 19.6207 32.798L15.4523 30.9847C14.5699 30.6023 14 29.7386 14 28.7847V23.6629C14 22.666 14.6246 21.7679 15.569 21.4156L19.7335 19.8128C19.7899 19.83 19.8464 19.8128 19.9028 19.7957V14.9754C19.9028 13.9755 20.5278 13.0801 21.4696 12.7256ZM26.6215 13.09C26.5434 13.0603 26.4175 13.0603 26.3785 13.09L22.9757 14.3666L26.4609 15.705L30.0243 14.3666L26.6215 13.09ZM31.0139 20.0492V16.1992L27.4375 17.557V21.3898L31.0139 20.0492ZM20.7188 21.7808C20.6406 21.7507 20.5148 21.7507 20.4757 21.7808L17.0734 23.057L20.5972 24.3933L24.1215 23.057L20.7188 21.7808ZM21.5347 30.5636L25.1111 29.0082V24.8875L21.5347 26.2453V30.5636ZM28.8785 23.057L32.4028 24.3933L35.9271 23.057L32.5243 21.7808C32.4462 21.7507 32.3203 21.7507 32.2812 21.7808L28.8785 23.057ZM36.9167 28.7847V24.8875L33.3403 26.2453V30.5636L36.7083 29.0984C36.8342 29.0425 36.9167 28.9222 36.9167 28.7847Z" fill="#686868"/>
</g>
</g>
<defs>
<filter id="filter0_d_413_2281" x="0" y="0" width="52" height="52" filterUnits="userSpaceOnUse" color-interpolation-filters="sRGB">
<feFlood flood-opacity="0" result="BackgroundImageFix"/>
<feColorMatrix in="SourceAlpha" type="matrix" values="0 0 0 0 0 0 0 0 0 0 0 0 0 0 0 0 0 0 127 0" result="hardAlpha"/>
<feOffset dy="4"/>
<feGaussianBlur stdDeviation="2"/>
<feComposite in2="hardAlpha" operator="out"/>
<feColorMatrix type="matrix" values="0 0 0 0 0 0 0 0 0 0 0 0 0 0 0 0 0 0 0.25 0"/>
<feBlend mode="normal" in2="BackgroundImageFix" result="effect1_dropShadow_413_2281"/>
<feBlend mode="normal" in="SourceGraphic" in2="effect1_dropShadow_413_2281" result="shape"/>
</filter>
<clipPath id="clip0_413_2281">
<rect width="25" height="22" fill="white" transform="translate(14 11)"/>
</clipPath>
</defs>
</svg>
