<svg width="682" height="451" viewBox="0 0 682 451" fill="none" xmlns="http://www.w3.org/2000/svg">
<path d="M177.009 107.128H52.7637V22.7793H177.009V107.128ZM53.7448 106.154H176.028V23.7532H53.7448V106.154Z" fill="#EBEBEB"/>
<path d="M62.4759 28.2428C62.4759 28.7282 62.3309 29.2027 62.0593 29.6063C61.7876 30.0099 61.4015 30.3244 60.9497 30.5102C60.498 30.6959 60.0009 30.7445 59.5213 30.6498C59.0417 30.5551 58.6011 30.3214 58.2554 29.9782C57.9096 29.6349 57.6742 29.1976 57.5788 28.7216C57.4834 28.2455 57.5323 27.752 57.7194 27.3036C57.9066 26.8551 58.2235 26.4719 58.63 26.2022C59.0366 25.9325 59.5146 25.7886 60.0036 25.7886C60.6593 25.7886 61.2882 26.0471 61.7518 26.5074C62.2155 26.9677 62.4759 27.5919 62.4759 28.2428Z" fill="#A6A6A6"/>
<path d="M72.5815 28.2428C72.5834 28.731 72.4393 29.2087 72.1673 29.6153C71.8953 30.022 71.5077 30.3394 71.0538 30.5271C70.5998 30.7147 70.0999 30.7644 69.6175 30.6696C69.1351 30.5748 68.6919 30.34 68.3442 29.9948C67.9965 29.6496 67.7599 29.2097 67.6644 28.7308C67.5689 28.252 67.6189 27.7557 67.808 27.3051C67.9971 26.8545 68.3168 26.4698 68.7265 26.1998C69.1361 25.9298 69.6174 25.7867 70.1091 25.7886C70.7649 25.7886 71.3937 26.0472 71.8574 26.5074C72.321 26.9677 72.5815 27.5919 72.5815 28.2428Z" fill="#EBEBEB"/>
<path d="M82.6869 28.2428C82.6869 28.7282 82.5419 29.2027 82.2702 29.6063C81.9985 30.0099 81.6124 30.3244 81.1607 30.5102C80.7089 30.6959 80.2118 30.7445 79.7322 30.6498C79.2526 30.5551 78.8121 30.3214 78.4663 29.9782C78.1206 29.6349 77.8851 29.1976 77.7897 28.7216C77.6943 28.2455 77.7433 27.752 77.9304 27.3036C78.1175 26.8551 78.4344 26.4719 78.841 26.2022C79.2475 25.9325 79.7256 25.7886 80.2145 25.7886C80.8702 25.7886 81.4991 26.0471 81.9627 26.5074C82.4264 26.9677 82.6869 27.5919 82.6869 28.2428Z" fill="#7678ED"/>
<path d="M176.518 32.5376H53.2539V33.5115H176.518V32.5376Z" fill="#EBEBEB"/>
<path d="M45.2487 111.676C45.6807 111.412 46.1784 111.271 46.686 111.271C47.1936 111.271 47.6913 111.412 48.1233 111.676C48.3587 111.826 48.604 111.962 48.8591 112.085C49.1044 112.222 49.3595 112.348 49.6145 112.475C50.0735 112.681 50.4659 113.01 50.7481 113.424C51.0304 113.838 51.1916 114.322 51.2137 114.822L51.3216 118.328L62.8102 117.968L62.7023 114.471C62.6875 113.967 62.8145 113.468 63.0693 113.031C63.324 112.594 63.6963 112.236 64.1445 111.998C64.6485 111.73 65.1365 111.434 65.6063 111.111C66.0163 110.821 66.4998 110.65 67.0024 110.617C67.505 110.584 68.0068 110.691 68.4515 110.926L71.5517 112.582L76.987 102.522L73.8573 100.895C73.4136 100.658 73.0454 100.303 72.7941 99.8691C72.5428 99.4355 72.4183 98.941 72.4347 98.441C72.4446 97.8723 72.425 97.3034 72.3759 96.7367C72.3276 96.2367 72.4204 95.7332 72.644 95.2826C72.8675 94.832 73.2128 94.452 73.6415 94.1851L76.5847 92.3444L70.5314 82.6055L67.5195 84.4559C67.0904 84.7188 66.5962 84.858 66.092 84.858C65.5878 84.858 65.0935 84.7188 64.6645 84.4559C64.429 84.3131 64.1837 84.1767 63.9287 84.0469C63.6834 83.9105 63.4283 83.7839 63.1732 83.667C62.7121 83.4582 62.3184 83.1264 62.036 82.7086C61.7537 82.2907 61.5937 81.8032 61.574 81.3005L61.4661 77.8042L49.9776 78.1548L50.0855 81.6413C50.1005 82.1435 49.9745 82.64 49.7216 83.0751C49.4686 83.5103 49.0986 83.867 48.6531 84.1053C48.1527 84.378 47.672 84.6799 47.1912 85.0013C46.7793 85.2915 46.2943 85.4625 45.7902 85.4952C45.2861 85.5279 44.7827 85.4209 44.3363 85.1863L41.236 83.5404L35.8008 93.591L38.901 95.2466C39.347 95.4836 39.7169 95.8403 39.9684 96.276C40.22 96.7117 40.343 97.2088 40.3236 97.7106C40.3522 98.2878 40.4112 98.8632 40.5002 99.4344C40.5462 99.9341 40.4524 100.437 40.2291 100.887C40.0058 101.337 39.6616 101.717 39.2346 101.986L36.2913 103.827L42.3447 113.517L45.2487 111.676ZM48.1331 93.6689C49.0136 92.0428 50.3598 90.7123 52.0017 89.8452C53.6436 88.9782 55.5075 88.6137 57.358 88.7977C59.2085 88.9816 60.9626 89.7059 62.3986 90.8789C63.8347 92.0519 64.8884 93.621 65.4265 95.3882C65.9647 97.1553 65.9632 99.0411 65.4223 100.807C64.8814 102.574 63.8252 104.141 62.3873 105.312C60.9494 106.483 59.1942 107.204 57.3434 107.385C55.4927 107.566 53.6293 107.199 51.9888 106.33C49.7875 105.157 48.145 103.165 47.4221 100.791C46.6992 98.4173 46.9549 95.8557 48.1331 93.6689Z" fill="#EBEBEB"/>
<path d="M613.811 216.71C614.241 216.446 614.737 216.305 615.243 216.305C615.749 216.305 616.245 216.446 616.676 216.71L617.411 217.129L618.177 217.509C618.636 217.715 619.028 218.044 619.31 218.458C619.593 218.873 619.754 219.356 619.776 219.856L619.884 223.362L631.372 223.002L631.264 219.505C631.251 219.004 631.379 218.508 631.634 218.075C631.888 217.641 632.26 217.287 632.707 217.051C633.205 216.777 633.69 216.478 634.159 216.155C634.571 215.867 635.056 215.697 635.56 215.665C636.064 215.632 636.567 215.738 637.014 215.97L640.114 217.626L645.549 207.566L642.449 205.92C642.004 205.681 641.636 205.324 641.385 204.889C641.133 204.453 641.009 203.957 641.026 203.456C641.036 202.89 641.016 202.325 640.967 201.761C640.92 201.26 641.013 200.755 641.236 200.303C641.459 199.851 641.804 199.469 642.233 199.2L645.176 197.359L639.123 187.62L636.111 189.48C635.682 189.743 635.188 189.882 634.684 189.882C634.179 189.882 633.685 189.743 633.256 189.48L632.52 189.071C632.275 188.935 632.02 188.808 631.765 188.691C631.304 188.485 630.91 188.155 630.627 187.739C630.345 187.323 630.185 186.836 630.166 186.335L630.058 182.829L618.569 183.179L618.677 186.675C618.693 187.176 618.567 187.672 618.314 188.105C618.06 188.539 617.69 188.894 617.245 189.13C616.739 189.402 616.251 189.704 615.783 190.035C615.37 190.324 614.884 190.493 614.38 190.524C613.876 190.555 613.373 190.447 612.928 190.211L609.828 188.565L604.441 198.674L607.542 200.32C607.985 200.56 608.352 200.918 608.603 201.353C608.854 201.787 608.979 202.283 608.964 202.784C608.954 203.352 608.974 203.921 609.023 204.488C609.069 204.989 608.974 205.493 608.749 205.943C608.524 206.393 608.177 206.773 607.748 207.04L604.804 208.88L610.858 218.619L613.811 216.71ZM616.695 198.674C617.577 197.048 618.924 195.718 620.566 194.852C622.209 193.986 624.073 193.622 625.924 193.807C627.774 193.992 629.528 194.718 630.963 195.892C632.399 197.066 633.451 198.636 633.988 200.403C634.525 202.171 634.523 204.057 633.98 205.823C633.438 207.589 632.38 209.156 630.941 210.326C629.502 211.495 627.746 212.216 625.895 212.395C624.044 212.575 622.181 212.206 620.541 211.334C619.45 210.755 618.485 209.967 617.701 209.017C616.917 208.067 616.33 206.972 615.972 205.796C615.615 204.62 615.495 203.386 615.619 202.164C615.743 200.941 616.109 199.756 616.695 198.674Z" fill="#EBEBEB"/>
<path d="M68.422 141.516C68.7334 141.694 68.9895 141.954 69.1625 142.266C69.3355 142.579 69.4187 142.932 69.4031 143.289C69.4031 143.483 69.4031 143.678 69.4031 143.873C69.4031 144.068 69.4031 144.272 69.4031 144.467C69.423 144.821 69.3414 145.174 69.1678 145.484C68.9941 145.795 68.7356 146.05 68.422 146.22L66.2734 147.447L70.3057 154.372L72.4445 153.145C72.7475 152.978 73.0906 152.897 73.4366 152.911C73.7825 152.925 74.1181 153.033 74.4067 153.222C74.7403 153.437 75.0935 153.631 75.4466 153.816C75.7634 153.972 76.0303 154.212 76.2175 154.51C76.4046 154.807 76.5046 155.151 76.5062 155.501V157.946H84.6493V155.501C84.6509 155.151 84.7509 154.807 84.938 154.51C85.1252 154.212 85.3921 153.972 85.7089 153.816C86.0621 153.631 86.4054 153.437 86.69 153.222C86.979 153.034 87.3144 152.927 87.6601 152.913C88.0059 152.899 88.3488 152.979 88.6521 153.145L90.7909 154.372L94.8134 147.447L92.6648 146.22C92.3505 146.048 92.0915 145.791 91.9179 145.479C91.7443 145.167 91.6631 144.813 91.6837 144.457C91.6837 144.263 91.6837 144.068 91.6837 143.873C91.6837 143.678 91.6837 143.483 91.6837 143.289C91.6631 142.933 91.7443 142.579 91.9179 142.267C92.0915 141.955 92.3505 141.698 92.6648 141.526L94.8036 140.299L90.7811 133.374L88.6521 134.602C88.3419 134.772 87.9912 134.855 87.637 134.843C87.2829 134.831 86.9387 134.724 86.6409 134.533C86.3056 134.314 85.9584 134.112 85.6009 133.93C85.2835 133.775 85.0159 133.535 84.8287 133.237C84.6414 132.94 84.5419 132.596 84.5414 132.245V129.8H76.4866V132.245C76.4861 132.596 76.3866 132.94 76.1993 133.237C76.012 133.535 75.7445 133.775 75.427 133.93C75.0684 134.11 74.7211 134.311 74.3871 134.533C74.0949 134.715 73.7596 134.817 73.4152 134.829C73.0707 134.841 72.7292 134.762 72.4249 134.602L70.3155 133.423L66.2833 140.348L68.422 141.516ZM80.5778 137.319C81.8841 137.317 83.1616 137.7 84.2487 138.419C85.3358 139.138 86.1836 140.161 86.6849 141.358C87.1861 142.556 87.3183 143.874 87.0646 145.146C86.811 146.418 86.1829 147.587 85.2599 148.504C84.3369 149.422 83.1604 150.047 81.8793 150.301C80.5982 150.554 79.2701 150.425 78.0631 149.929C76.856 149.434 75.8242 148.593 75.0983 147.515C74.3723 146.437 73.9848 145.17 73.9848 143.873C73.9874 142.137 74.6825 140.473 75.9181 139.245C77.1537 138.016 78.8291 137.324 80.5778 137.319Z" fill="#EBEBEB"/>
<path d="M62.7323 241.525C62.7323 240.425 62.8794 237.493 62.8794 236.247C62.8794 230.9 60.9173 228.456 55.9431 228.339C53.5885 228.193 52.1855 226.8 52.1855 224.823C52.1855 222.846 53.5885 221.453 55.9431 221.307C60.9663 221.083 62.8794 218.736 62.8794 213.321C62.8794 212.075 62.7323 209.143 62.7323 208.043C62.7323 200.943 65.7639 196.356 77.2034 193.912C77.9813 193.732 78.799 193.848 79.4946 194.238C80.1902 194.628 80.7131 195.263 80.9598 196.017C81.2064 196.771 81.1589 197.59 80.8267 198.311C80.4944 199.032 79.9016 199.603 79.1656 199.911C72.0036 202.112 70.9734 204.381 70.9734 209.367C70.9734 210.828 71.1206 213.263 71.1206 214.782C71.1206 220.499 68.3147 223.284 63.4387 224.823C68.3441 226.43 71.1206 229.147 71.1206 234.854C71.1206 236.393 70.9734 238.808 70.9734 240.279C70.9734 245.255 71.9545 247.534 79.1656 249.726C79.9176 250.023 80.5276 250.593 80.8718 251.32C81.216 252.048 81.2687 252.878 81.0191 253.642C80.7694 254.406 80.2363 255.048 79.5277 255.437C78.8191 255.825 77.9881 255.932 77.2034 255.734C65.7639 253.212 62.7323 248.674 62.7323 241.525Z" fill="#EBEBEB"/>
<path d="M105.978 208.014C105.978 209.114 105.83 212.046 105.83 213.292C105.83 218.707 107.793 221.083 112.845 221.278C115.131 221.424 116.534 222.817 116.534 224.794C116.534 226.771 115.131 228.164 112.845 228.31C107.822 228.456 105.83 230.871 105.83 236.218C105.83 237.464 105.978 240.396 105.978 241.496C105.978 248.674 102.956 253.183 91.5163 255.705C90.7136 255.964 89.8404 255.895 89.0888 255.514C88.3372 255.133 87.7688 254.471 87.5086 253.675C87.2484 252.878 87.3177 252.011 87.7013 251.265C88.0849 250.519 88.7514 249.955 89.5541 249.696C96.6376 247.505 97.6776 245.226 97.6776 240.25C97.6776 238.779 97.5304 236.354 97.5304 234.825C97.5304 229.118 100.327 226.333 105.203 224.794C100.297 223.177 97.5304 220.47 97.5304 214.753C97.5304 213.214 97.6776 210.799 97.6776 209.338C97.6776 204.352 96.6376 202.083 89.5541 199.882C88.9157 199.684 88.3605 199.283 87.9741 198.741C87.5877 198.199 87.3913 197.546 87.4154 196.882C87.4034 196.39 87.5106 195.902 87.7279 195.46C87.9452 195.017 88.2663 194.633 88.6642 194.339C89.0621 194.045 89.5252 193.85 90.0147 193.771C90.5041 193.691 91.0056 193.73 91.4771 193.882C102.956 196.366 105.978 200.914 105.978 208.014Z" fill="#EBEBEB"/>
<path d="M582.248 91.799C582.824 92.338 583.222 93.0373 583.391 93.805C583.559 94.5728 583.49 95.3731 583.191 96.101C582.893 96.8289 582.38 97.4502 581.72 97.8834C581.06 98.3167 580.283 98.5416 579.491 98.5286C578.401 98.5498 577.345 98.1481 576.548 97.4086L558.888 79.6253C558.692 79.5669 558.633 79.4403 558.574 79.2552C558.515 79.204 558.449 79.1614 558.378 79.1286C558.295 78.9718 558.232 78.8048 558.192 78.6319C558.142 78.6083 558.099 78.5728 558.066 78.5286C558.034 78.4844 558.013 78.4329 558.005 78.3787C557.946 78.2521 557.946 78.0671 557.878 78.0087C557.809 77.9502 557.75 77.7554 557.75 77.697V77.2588C557.75 77.1322 557.691 77.0737 557.691 76.8789C557.691 76.6842 557.75 76.6355 557.75 76.5673V76.1388C557.75 76.0122 557.878 75.944 557.878 75.8856C557.878 75.8271 557.946 75.5739 558.005 75.3889C558.064 75.2038 558.064 75.3207 558.064 75.2623C558.064 75.2038 558.26 74.824 558.378 74.6974C558.378 74.6638 558.392 74.6316 558.416 74.6079C558.439 74.5842 558.472 74.5708 558.506 74.5708C558.595 74.3985 558.727 74.2511 558.888 74.1423L576.548 56.359C577.309 55.6375 578.321 55.2349 579.374 55.2349C580.426 55.2349 581.438 55.6375 582.199 56.359C582.579 56.7224 582.881 57.1581 583.087 57.64C583.294 58.1219 583.4 58.6402 583.4 59.1638C583.4 59.6875 583.294 60.2057 583.087 60.6877C582.881 61.1696 582.579 61.6052 582.199 61.9686L567.345 76.8789L582.248 91.799Z" fill="#EBEBEB"/>
<path d="M598.28 93.7955L613.673 57.4596C613.853 57.0405 614.116 56.6609 614.444 56.3427C614.773 56.0246 615.162 55.7741 615.589 55.6058C616.016 55.4374 616.472 55.3545 616.931 55.3618C617.39 55.369 617.843 55.4664 618.264 55.6482C618.673 55.8239 619.043 56.0781 619.353 56.3962C619.663 56.7142 619.907 57.0899 620.07 57.5016C620.233 57.9134 620.313 58.353 620.304 58.7954C620.296 59.2377 620.199 59.6741 620.021 60.0794L604.627 96.4738C604.353 97.0899 603.903 97.6129 603.333 97.9781C602.763 98.3433 602.098 98.5347 601.419 98.5287C600.988 98.5368 600.56 98.4538 600.163 98.2852C599.737 98.1209 599.348 97.8727 599.02 97.5554C598.693 97.2382 598.433 96.8585 598.257 96.4391C598.081 96.0197 597.992 95.5693 597.996 95.115C598 94.6607 598.096 94.2119 598.28 93.7955Z" fill="#EBEBEB"/>
<path d="M650.444 79.1286C650.444 79.1441 650.438 79.1589 650.427 79.1699C650.416 79.1809 650.401 79.187 650.385 79.187C650.253 79.3474 650.105 79.4942 649.943 79.6253L632.284 97.4085C631.52 98.1285 630.507 98.5299 629.453 98.5299C628.4 98.5299 627.387 98.1285 626.623 97.4085C626.25 97.0411 625.955 96.6041 625.753 96.1227C625.551 95.6413 625.447 95.1251 625.447 94.6037C625.447 94.0824 625.551 93.5661 625.753 93.0848C625.955 92.6034 626.25 92.1664 626.623 91.7989L641.516 76.8789L626.623 61.9686C626.25 61.6011 625.955 61.1641 625.753 60.6827C625.551 60.2014 625.447 59.6851 625.447 59.1638C625.447 58.6424 625.551 58.1262 625.753 57.6448C625.955 57.1635 626.25 56.7265 626.623 56.359C627.386 55.6368 628.399 55.2339 629.453 55.2339C630.507 55.2339 631.521 55.6368 632.284 56.359L649.943 74.1422C650.105 74.2701 650.253 74.4137 650.385 74.5708C650.444 74.5708 650.444 74.6974 650.444 74.6974C650.56 74.8789 650.665 75.0676 650.758 75.2622C650.758 75.3207 650.826 75.3207 650.826 75.3888C650.866 75.5806 650.929 75.767 651.013 75.944C651.013 76.0121 651.072 76.0121 651.072 76.1387V76.5672C651.072 76.6354 651.14 76.8205 651.14 76.8789C651.14 76.9373 651.072 77.1321 651.072 77.1905V77.697C651.072 77.7554 651.013 77.7554 651.013 77.8236C650.937 78.0038 650.875 78.1894 650.826 78.3787C650.826 78.4469 650.758 78.4469 650.758 78.5637C650.758 78.6806 650.571 78.8851 650.444 79.1286Z" fill="#EBEBEB"/>
<path d="M31.1973 303.075C229.495 302.472 451.929 302.472 650.266 303.075C451.968 303.669 229.535 303.669 31.1973 303.075Z" fill="#263238"/>
<path d="M650.739 158.52C627.82 189.334 603.921 225.086 598.103 263.701C598.035 264.285 598.976 264.48 599.084 263.896C601.719 253.36 605.106 243.024 609.219 232.965C624.289 228.845 639.074 225.466 646.991 210.624C655.056 195.363 654.035 175.466 652.495 158.842C652.446 157.975 651.229 157.926 650.739 158.52Z" fill="#7678ED"/>
<path d="M609.533 232.692C619.834 209.757 633.079 186.734 649.846 167.88C649.954 167.753 650.13 167.928 650.032 168.055C639.034 181.485 630.675 196.113 622.562 210.994C630.146 203.349 638.465 196.502 645.657 188.39C645.794 188.234 646.02 188.468 645.882 188.624C638.75 197.126 630.95 206.358 621.659 212.65C619.161 217.194 616.639 221.772 614.095 226.382C614.723 226.031 615.36 225.729 616.008 225.408C616.116 225.359 616.214 225.524 616.106 225.583C615.4 225.934 614.693 226.313 613.958 226.615C612.751 228.787 611.564 230.959 610.318 233.121C609.964 233.598 609.288 233.179 609.533 232.692Z" fill="#263238"/>
<path d="M617.166 224.687C623.33 221.256 629.212 217.348 634.757 213C634.905 212.883 635.12 213.088 634.973 213.214C629.591 217.841 623.688 221.834 617.382 225.115C617.137 225.261 616.882 224.852 617.166 224.687Z" fill="#263238"/>
<path d="M595.484 257.974C595.533 258.442 596.328 258.442 596.318 257.974C596.446 245.255 596.318 232.478 596.524 219.691C599.811 213.117 606.855 209.475 611.761 204.206C615.285 200.345 618.353 196.098 620.904 191.545C626.958 180.832 630.244 168.678 631.5 156.485C632.854 142.851 627.654 97.9736 621.876 99.5318C618.883 100.34 609.18 122.584 606.61 129.937C602.436 142.063 599.382 154.542 597.486 167.217C592.796 197.106 593.189 227.891 595.484 257.974Z" fill="#7678ED"/>
<path d="M595.395 203.096L595.454 203.037C596.151 186.939 599.81 170.685 603.224 155.073C606.913 138.254 611.22 122.409 619.903 107.411C619.938 107.355 619.993 107.315 620.057 107.299C620.122 107.283 620.19 107.293 620.247 107.325C620.304 107.358 620.346 107.412 620.364 107.475C620.383 107.538 620.375 107.606 620.344 107.664C614.524 119.329 610.02 131.597 606.913 144.243C607.502 143.338 608.208 142.481 608.816 141.624C609.052 141.283 609.621 141.624 609.385 141.945C608.603 143.302 607.69 144.581 606.658 145.763C606.625 145.793 606.585 145.814 606.54 145.821C603.538 157.839 601.39 170.168 599.545 182.41C599.682 182.254 599.81 182.079 599.947 181.933C599.969 181.916 599.996 181.907 600.024 181.907C600.052 181.907 600.079 181.916 600.101 181.933C600.123 181.949 600.139 181.972 600.147 181.999C600.155 182.025 600.153 182.053 600.144 182.079C599.908 182.488 599.653 182.888 599.408 183.297C598.427 189.52 597.612 195.733 596.749 201.898C607.914 192.422 617.46 181.251 622.836 167.49C622.841 167.48 622.848 167.471 622.858 167.465C622.868 167.458 622.879 167.455 622.89 167.455C622.902 167.455 622.913 167.458 622.922 167.465C622.932 167.471 622.94 167.48 622.944 167.49C617.676 181.758 609.366 194.448 596.572 203.115L595.866 208.082C595.817 208.423 595.268 208.335 595.268 208.004C595.268 206.534 595.346 205.083 595.405 203.592C595.369 203.562 595.34 203.524 595.319 203.482C595.299 203.44 595.288 203.393 595.287 203.346C595.286 203.299 595.295 203.253 595.314 203.209C595.333 203.166 595.36 203.128 595.395 203.096Z" fill="#263238"/>
<path d="M600.703 179.761C609.238 167.101 617.205 154.839 623.454 140.864C623.523 140.708 623.798 140.864 623.729 140.981C618.47 154.868 611.102 168.941 601.164 180.092C600.879 180.316 600.477 180.024 600.703 179.761Z" fill="#263238"/>
<path d="M611.996 137.738C615.528 131.534 619.257 125.486 622.592 119.156C622.68 118.981 622.926 119.156 622.847 119.302C620.124 125.914 616.669 132.205 612.546 138.059C612.31 138.381 611.79 138.098 611.996 137.738Z" fill="#263238"/>
<path d="M610.611 140.445C610.622 140.449 610.631 140.457 610.637 140.466C610.643 140.476 610.647 140.487 610.647 140.498C610.647 140.51 610.643 140.521 610.637 140.53C610.631 140.54 610.622 140.547 610.611 140.552C610.601 140.547 610.592 140.54 610.586 140.53C610.58 140.521 610.576 140.51 610.576 140.498C610.576 140.487 610.58 140.476 610.586 140.466C610.592 140.457 610.601 140.449 610.611 140.445Z" fill="#263238"/>
<path d="M586.812 221.181C586.639 229.613 585.636 238.009 583.82 246.249C583.947 247.154 584.075 248.06 584.212 248.995C586.826 239.892 588.341 230.512 588.725 221.054C588.803 220.923 588.844 220.773 588.844 220.621C588.844 220.468 588.803 220.319 588.725 220.187C589.119 207.499 588.202 194.805 585.988 182.303C582.014 158.929 573.341 136.481 556.918 118.951C556.782 118.836 556.621 118.754 556.448 118.71C556.275 118.666 556.095 118.662 555.92 118.698C555.745 118.733 555.581 118.808 555.439 118.916C555.298 119.024 555.183 119.163 555.103 119.321C548.471 136.053 550.786 156.027 556.437 172.72C559.511 181.745 563.897 190.275 569.456 198.041C575.049 205.939 582.23 212.591 586.812 221.181Z" fill="#7678ED"/>
<path d="M558.81 126.781C574.38 151.869 585.211 181.602 586.536 211.237C586.536 211.763 585.673 211.9 585.555 211.364C585.192 208.695 584.78 206.056 584.348 203.436C577.912 197.311 571.3 190.844 566.688 183.199C566.6 183.063 566.796 182.907 566.904 183.024C572.506 189.383 577.696 195.898 584.064 201.528C582.958 194.97 581.627 188.52 580.07 182.176C579.649 181.699 579.246 181.202 578.834 180.735C578.569 180.423 579.011 179.966 579.295 180.277L579.668 180.686C577.475 171.982 574.759 163.416 571.535 155.034C567.611 150.34 563.137 146.269 560.253 140.63C560.237 140.603 560.233 140.571 560.241 140.541C560.249 140.511 560.269 140.485 560.297 140.469C560.324 140.454 560.356 140.45 560.387 140.458C560.417 140.466 560.443 140.486 560.458 140.513C562.698 143.793 565.101 146.959 567.66 149.999C568.709 151.197 569.857 152.317 570.946 153.476C567.352 144.386 563.089 135.571 558.192 127.103C558.149 127.021 558.141 126.926 558.168 126.839C558.196 126.751 558.257 126.678 558.339 126.635C558.421 126.593 558.517 126.584 558.605 126.611C558.694 126.639 558.767 126.7 558.81 126.781Z" fill="#263238"/>
<path d="M561.961 157.771C566.994 164.5 572.753 170.908 577.403 177.862C577.541 178.057 577.246 178.261 577.08 178.105C571.065 172.515 565.983 164.87 561.618 157.975C561.461 157.702 561.814 157.527 561.961 157.771Z" fill="#263238"/>
<path d="M578.138 179.372L578.354 179.586C578.501 179.732 578.265 179.956 578.118 179.81L577.902 179.596C577.726 179.45 577.961 179.196 578.138 179.372Z" fill="#263238"/>
<path d="M534.421 174.999C535.667 187.903 542.505 203.319 550.844 213.263C554.514 217.586 559.052 221.102 564.168 223.586C569.936 226.42 575.941 229.683 581.955 232.01C584.788 239.176 586.895 246.605 588.244 254.186C588.44 253.543 588.626 252.871 588.822 252.238C584.986 219.574 563.697 191.642 536.452 173.713C536.239 173.576 535.991 173.503 535.737 173.502C535.483 173.502 535.234 173.573 535.021 173.709C534.807 173.844 534.636 174.038 534.53 174.266C534.424 174.495 534.386 174.749 534.421 174.999Z" fill="#7678ED"/>
<path d="M543.799 184.66C543.603 184.485 543.868 184.144 544.074 184.299C558.516 194.915 571.545 210.4 578.795 226.771C578.991 227.219 578.373 227.608 578.118 227.161C576.852 224.96 575.557 222.817 574.193 220.713C567.973 219.554 562.087 215.211 557.515 211.082C557.387 210.974 557.574 210.789 557.692 210.897C560.066 213.046 562.703 214.891 565.54 216.389C568.081 217.665 570.809 218.473 573.448 219.496C571.142 215.863 568.739 212.377 566.237 208.997C559.536 206.738 553.169 202.657 547.596 198.577C547.42 198.45 547.596 198.158 547.773 198.275C553.392 201.65 559.189 204.725 565.138 207.488C561.345 202.515 557.249 197.776 552.874 193.298C550.765 192.188 548.616 191.078 546.566 189.89C546.399 189.792 546.566 189.51 546.703 189.578C548.406 190.167 550.03 190.958 551.54 191.935C549.078 189.471 546.537 187.036 543.799 184.66Z" fill="#263238"/>
<path d="M544.408 195.937C544.778 196.155 545.129 196.403 545.458 196.677C545.556 196.765 545.458 196.892 545.321 196.853C544.944 196.673 544.58 196.468 544.232 196.239C544.045 196.112 544.222 195.82 544.408 195.937Z" fill="#263238"/>
<path d="M564.461 242.597H623.562L617.744 303.066H570.279L564.461 242.597Z" fill="#455A64"/>
<path d="M565.579 254.205L564.461 242.597H623.562L622.846 250.086L565.579 254.205Z" fill="#37474F"/>
<path d="M627.566 232.186H560.469V246.911H627.566V232.186Z" fill="#455A64"/>
<path d="M568.091 4.80127H113.346V306.757H568.091V4.80127Z" fill="#DBDBDB"/>
<path d="M564.785 8.48242H116.652V303.075H564.785V8.48242Z" fill="#263238"/>
<path d="M627.31 376.896H54.1172V397.816H627.31V376.896Z" fill="#C7C7C7"/>
<path d="M54.1172 376.897L113.346 306.757H568.082L627.31 376.897H54.1172Z" fill="#DBDBDB"/>
<path d="M568.062 338.554H115.082L138.304 306.757H544.839L568.062 338.554Z" fill="#263238"/>
<path d="M559.948 327.442H123.195L124.137 326.147H559.006L559.948 327.442Z" fill="#37474F"/>
<path d="M551.461 315.833H131.682L132.623 314.528H550.519L551.461 315.833Z" fill="#37474F"/>
<path d="M270.596 369.008L285.273 346.628H396.852L412.56 369.008H270.596Z" fill="#263238"/>
<path d="M382.753 385.301H300.39L298.35 376.896H384.803L382.753 385.301Z" fill="#DBDBDB"/>
<path d="M539.797 30.8628H141.641V281.114H539.797V30.8628Z" fill="#37474F"/>
<path d="M539.797 30.8628H141.641V40.4946H539.797V30.8628Z" fill="#7678ED"/>
<path d="M150.765 35.6737C150.765 36.0339 150.657 36.386 150.456 36.6855C150.254 36.985 149.968 37.2185 149.632 37.3563C149.297 37.4941 148.928 37.5302 148.572 37.4599C148.217 37.3897 147.89 37.2162 147.633 36.9615C147.376 36.7068 147.202 36.3823 147.131 36.029C147.06 35.6758 147.096 35.3096 147.235 34.9768C147.374 34.644 147.609 34.3596 147.911 34.1595C148.213 33.9594 148.568 33.8526 148.93 33.8526C149.172 33.8513 149.411 33.8975 149.634 33.9886C149.857 34.0796 150.06 34.2137 150.231 34.3831C150.401 34.5525 150.536 34.7537 150.628 34.9753C150.72 35.1968 150.766 35.4342 150.765 35.6737Z" fill="#C7C7C7"/>
<path d="M158.23 35.6737C158.23 36.0339 158.122 36.386 157.921 36.6855C157.719 36.985 157.433 37.2185 157.097 37.3563C156.762 37.4941 156.393 37.5302 156.037 37.4599C155.681 37.3897 155.354 37.2162 155.098 36.9615C154.841 36.7068 154.667 36.3823 154.596 36.029C154.525 35.6758 154.561 35.3096 154.7 34.9768C154.839 34.644 155.074 34.3596 155.376 34.1595C155.678 33.9594 156.032 33.8526 156.395 33.8526C156.636 33.8513 156.876 33.8975 157.099 33.9886C157.322 34.0796 157.525 34.2137 157.695 34.3831C157.866 34.5525 158.001 34.7537 158.093 34.9753C158.185 35.1968 158.231 35.4342 158.23 35.6737Z" fill="white"/>
<path d="M165.755 35.6737C165.755 36.0339 165.648 36.386 165.446 36.6855C165.244 36.985 164.958 37.2185 164.623 37.3563C164.287 37.4941 163.919 37.5302 163.563 37.4599C163.207 37.3897 162.88 37.2162 162.623 36.9615C162.367 36.7068 162.192 36.3823 162.121 36.029C162.05 35.6758 162.087 35.3096 162.226 34.9768C162.364 34.644 162.6 34.3596 162.901 34.1595C163.203 33.9594 163.558 33.8526 163.921 33.8526C164.162 33.8513 164.401 33.8975 164.624 33.9886C164.847 34.0796 165.05 34.2137 165.221 34.3831C165.391 34.5525 165.526 34.7537 165.618 34.9753C165.71 35.1968 165.757 35.4342 165.755 35.6737Z" fill="#455A64"/>
<path d="M178.284 83.2773H167.08V86.6568H178.284V83.2773Z" fill="#EBEBEB"/>
<path d="M439.814 83.2773H191.5V86.6568H439.814V83.2773Z" fill="#EBEBEB"/>
<path d="M467.981 83.2773H446.701V86.6568H467.981V83.2773Z" fill="#7678ED"/>
<path d="M178.284 99.2593H167.08V102.639H178.284V99.2593Z" fill="#EBEBEB"/>
<path d="M286.743 99.2593H202.418V102.639H286.743V99.2593Z" fill="#A6A6A6"/>
<path d="M475.692 163.205H443.797V166.584H475.692V163.205Z" fill="#A6A6A6"/>
<path d="M272.048 147.213H191.5V150.593H272.048V147.213Z" fill="#A6A6A6"/>
<path d="M258.929 115.25H202.418V118.63H258.929V115.25Z" fill="#7678ED"/>
<path d="M475.251 115.25H265.199V118.63H475.251V115.25Z" fill="#A6A6A6"/>
<path d="M436.508 163.205H191.5V166.584H436.508V163.205Z" fill="#7678ED"/>
<path d="M465.606 99.2593H292.041V102.639H465.606V99.2593Z" fill="#EBEBEB"/>
<path d="M178.284 115.25H167.08V118.63H178.284V115.25Z" fill="#EBEBEB"/>
<path d="M178.284 131.232H167.08V134.611H178.284V131.232Z" fill="#A6A6A6"/>
<path d="M257.704 131.232H191.5V134.611H257.704V131.232Z" fill="#EBEBEB"/>
<path d="M268.622 179.187H202.418V182.566H268.622V179.187Z" fill="#EBEBEB"/>
<path d="M439.892 195.178H262.285V198.557H439.892V195.178Z" fill="#EBEBEB"/>
<path d="M252.179 195.178H202.418V198.557H252.179V195.178Z" fill="#A6A6A6"/>
<path d="M467.971 147.213H276.6V150.593H467.971V147.213Z" fill="#EBEBEB"/>
<path d="M455.727 131.232H264.434V134.611H455.727V131.232Z" fill="#7678ED"/>
<path d="M178.284 147.213H167.08V150.593H178.284V147.213Z" fill="#EBEBEB"/>
<path d="M178.284 163.205H167.08V166.584H178.284V163.205Z" fill="#EBEBEB"/>
<path d="M178.284 179.187H167.08V182.566H178.284V179.187Z" fill="#A6A6A6"/>
<path d="M178.284 195.178H167.08V198.557H178.284V195.178Z" fill="#EBEBEB"/>
<path d="M178.284 209.689H167.08V213.068H178.284V209.689Z" fill="#EBEBEB"/>
<path d="M322.849 209.689H191.5V213.068H322.849V209.689Z" fill="#EBEBEB"/>
<path d="M174.027 67.6174L176.441 61.9104C176.468 61.8447 176.509 61.7852 176.56 61.7353C176.612 61.6854 176.672 61.6462 176.739 61.6199C176.806 61.5936 176.877 61.5807 176.949 61.5821C177.02 61.5835 177.091 61.5991 177.157 61.628C177.221 61.6546 177.28 61.6936 177.329 61.7429C177.379 61.7921 177.418 61.8506 177.444 61.9149C177.471 61.9791 177.484 62.048 177.484 62.1174C177.483 62.1869 177.469 62.2555 177.441 62.3194L175.018 68.0362C174.976 68.1326 174.906 68.2145 174.817 68.2717C174.728 68.3288 174.624 68.3587 174.518 68.3576C174.453 68.3712 174.386 68.3712 174.321 68.3576C174.25 68.3326 174.184 68.2926 174.129 68.2403C174.075 68.188 174.032 68.1245 174.004 68.0543C173.976 67.9841 173.964 67.9087 173.968 67.8333C173.972 67.7579 173.992 67.6843 174.027 67.6174Z" fill="#7678ED"/>
<path d="M182.209 65.309L182.14 65.387L179.354 68.1723C179.235 68.2854 179.077 68.3485 178.912 68.3485C178.748 68.3485 178.589 68.2854 178.471 68.1723C178.412 68.1152 178.365 68.047 178.333 67.9717C178.302 67.8965 178.285 67.8157 178.285 67.734C178.285 67.6524 178.302 67.5716 178.333 67.4964C178.365 67.4211 178.412 67.3529 178.471 67.2958L180.796 64.9584L178.461 62.6211C178.402 62.564 178.356 62.4958 178.324 62.4205C178.292 62.3453 178.275 62.2645 178.275 62.1828C178.275 62.1012 178.292 62.0204 178.324 61.9452C178.356 61.8699 178.402 61.8017 178.461 61.7446C178.58 61.6315 178.738 61.5684 178.902 61.5684C179.067 61.5684 179.225 61.6315 179.344 61.7446L182.12 64.5299L182.189 64.5981C182.207 64.6264 182.223 64.6556 182.238 64.6858C182.235 64.7149 182.235 64.7443 182.238 64.7734V64.8416V64.9195C182.237 64.9487 182.237 64.9779 182.238 65.0071L182.209 65.309Z" fill="#7678ED"/>
<path d="M331.679 202.258H330.148V220.499H331.679V202.258Z" fill="#EBEBEB"/>
<path d="M201.193 412.785C201.193 412.785 239.818 395.742 246.176 392.859C258.93 387.084 281.77 369.291 291.542 363.028C297.251 359.367 292.689 346.988 275.324 349.092C257.959 351.196 225.583 367.986 222.796 364.372C220.01 360.759 264.983 333.938 271.292 331.776C277.6 329.614 298.429 338.029 311.016 333.724C323.604 329.419 317.04 318.317 307.013 314.139C293.729 308.598 268.427 305.062 259.116 305.062C249.806 305.062 221.158 325.748 221.158 325.748C221.158 325.748 259.793 310.662 264.571 307.867C269.349 305.072 292.346 304.634 306.886 299.462C321.426 294.291 311.929 279.507 287.617 279.722C273.323 279.709 259.056 280.94 244.979 283.403C238.111 284.435 196.631 311.704 196.631 311.704C196.631 311.704 204.666 309.981 207.923 308.899C211.18 307.818 243.537 287.581 248.03 285.224C264.993 276.313 276.992 264.393 271.576 256.874C267.652 251.411 245.008 258.393 233.981 264.665C219.323 272.992 177.774 303.524 177.774 303.524L229.85 268.629C229.85 268.629 225.642 265.162 211.651 268.22C203.381 270.031 169.464 290.152 164.078 294.233C147.792 306.552 103.996 359.571 103.996 359.571L139.816 405.198L201.193 412.785Z" fill="#D3766A"/>
<path d="M180.208 302.306C192.491 292.119 202.508 280.637 228.654 268.22C228.742 268.22 228.654 267.957 228.556 267.976C209.915 272.709 192.324 287.756 179.805 301.76C179.393 302.277 179.717 302.705 180.208 302.306Z" fill="#263238"/>
<path d="M198.523 311.461C209.404 305.014 221.991 296.356 234.99 290.035C241.367 286.928 244.115 286.295 253.249 282.332C253.337 282.332 253.249 282.098 253.17 282.117C244.899 284.201 243.536 283.958 234.657 287.289C223.1 291.623 204.135 305.569 198.15 311.042C197.679 311.47 197.944 311.792 198.523 311.461Z" fill="#263238"/>
<path d="M218.627 324.842C230.4 320.128 244.695 311.665 256.841 307.77C259.882 306.796 264.532 306.173 271.488 306.173C271.861 306.173 272.322 305.764 271.439 305.608C265.553 304.536 259.715 304.634 256.085 305.608C244.175 308.909 225.083 319.866 218.333 324.365C217.803 324.735 218.009 325.095 218.627 324.842Z" fill="#263238"/>
<path d="M201.192 412.794L177.185 450.835H0L103.956 359.571L192.745 349.842L201.192 412.794Z" fill="#D3766A"/>
<path d="M177.185 450.834L183.533 440.764L50.9579 406.094L0 450.834H177.185Z" fill="#7678ED"/>
<path opacity="0.1" d="M177.185 450.834L183.533 440.764L50.9579 406.094L0 450.834H177.185Z" fill="black"/>
<path opacity="0.1" d="M1.14844 449.822L6.13238 445.439V450.825H1.14844V449.822Z" fill="black"/>
<path opacity="0.1" d="M175.9 438.768V450.825H170.916V437.463L175.9 438.768Z" fill="black"/>
<path opacity="0.1" d="M141.944 429.886L158.172 434.132H141.944V450.825H136.961V434.132H107.989V450.825H103.005V434.132H74.0333V450.825H69.0493V434.132H40.0875V450.825H35.1036V434.132H19.0137L24.6549 429.185H35.1036V420.011L40.0875 415.638V429.185H69.0493V410.827L74.0333 412.132V429.185H103.005V419.709L107.989 421.004V429.185H136.961V428.581L139.256 429.185H141.944V429.886Z" fill="black"/>
<path d="M27.6562 421.764L183.532 446.374L197.915 424.354L58.9531 393.774L27.6562 421.764Z" fill="#7678ED"/>
<path d="M464.763 392.703C464.763 392.703 429.562 375.368 422.959 373.108C409.734 368.57 389.445 349.598 379.104 344.3C373.07 341.203 376.416 328.445 393.909 328.884C411.402 329.322 430.808 343.687 431.671 342.245C434.035 338.35 393.615 320.304 387.139 318.755C380.664 317.207 360.434 322.475 347.484 319.388C334.533 316.301 339.998 304.634 349.573 299.511C362.259 292.694 387.404 291.895 396.666 290.999C405.927 290.103 436.449 307.974 436.449 307.974C436.449 307.974 396.538 296.648 391.505 294.34C386.472 292.032 363.544 293.775 348.573 290.016C333.601 286.256 341.626 270.635 365.84 268.532C380.07 267.167 394.393 267.043 408.645 268.161C415.62 268.532 459.505 291.72 459.505 291.72C459.505 291.72 451.342 290.746 447.996 290.006C444.651 289.266 410.479 272.184 405.809 270.265C388.042 262.951 374.954 252.238 379.644 244.262C383.058 238.419 406.231 243.24 417.808 248.421C433.211 255.316 477.517 281.738 477.517 281.738L418.505 250.67C418.505 250.67 421.222 245.109 429.65 245.918C459.76 248.839 484.503 267.597 490.262 271.151C507.666 281.864 556.397 330.461 556.397 330.461L525.925 376.897L464.763 392.703Z" fill="#D3766A"/>
<path d="M478.067 277.939C464.44 269.914 446.966 259.25 419.771 249.19C419.682 249.19 419.712 248.995 419.771 249.015C438.343 253.115 463.704 264.967 478.302 277.579C478.822 277.959 478.626 278.251 478.067 277.939Z" fill="#263238"/>
<path d="M457.601 291.583C446.151 286.217 432.779 278.796 419.23 273.742C412.578 271.258 409.792 270.888 400.315 267.811C400.217 267.811 400.266 267.577 400.374 267.596C408.811 268.882 410.135 268.502 419.299 270.976C431.219 274.19 451.449 286.256 457.934 291.135C458.444 291.515 458.209 291.866 457.601 291.583Z" fill="#263238"/>
<path d="M438.882 306.835C426.736 303.251 411.667 296.19 399.197 293.482C396.077 292.801 383.745 292.324 376.818 292.986C376.446 292.986 375.955 292.664 376.818 292.421C382.607 290.785 396.048 290.609 399.756 291.262C411.922 293.414 431.995 302.501 439.147 306.338C439.706 306.64 439.53 307.02 438.882 306.835Z" fill="#263238"/>
<path d="M681.426 450.99L556.396 330.461L477.761 333.87L464.762 392.703L500.307 450.99H681.426Z" fill="#D3766A"/>
<path d="M500.307 450.99L479.096 416.212L588.272 361.188L681.426 450.99H500.307Z" fill="#7678ED"/>
<path opacity="0.1" d="M500.307 450.99L479.096 416.212L588.272 361.188L681.426 450.99H500.307Z" fill="black"/>
<path opacity="0.1" d="M594.012 366.719H577.333L587.144 361.772H588.93L593.011 365.667L594.012 366.719ZM623.837 395.478H520.067V395.566L510.423 400.435H628.968L626.908 398.488L623.837 395.478ZM658.803 429.185H487.004L490.026 434.132H663.934L660.863 431.21L658.803 429.185ZM658.803 429.185L655.86 426.37V451H660.844V431.171L658.803 429.185ZM623.837 395.478L621.875 393.628V451H626.859V398.41L623.837 395.478ZM588.93 361.772L588.321 361.188L587.949 361.314V450.971H592.942V365.706L588.93 361.772ZM554.072 378.445V451H559.055V375.923L554.072 378.445ZM520.253 395.478H520.087V450.99H525.07V393.044L520.253 395.478ZM486.111 412.677V427.714L487.004 429.185L490.026 434.132L491.095 435.895V410.165L486.111 412.677Z" fill="black"/>
<path d="M470.709 413.125L489.634 440.764L622.091 387.356L586.203 355.48L470.709 413.125Z" fill="#7678ED"/>
</svg>
