<svg width="44" height="44" viewBox="0 0 44 44" fill="none" xmlns="http://www.w3.org/2000/svg">
<path d="M44 22C44 27.8348 41.6822 33.4305 37.5564 37.5564C33.4305 41.6822 27.8348 44 22 44C16.1652 44 10.5695 41.6822 6.44365 37.5564C2.31785 33.4305 0 27.8348 0 22C0 16.1652 2.31785 10.5695 6.44365 6.44365C10.5695 2.31785 16.1652 0 22 0C27.8348 0 33.4305 2.31785 37.5564 6.44365C41.6822 10.5695 44 16.1652 44 22ZM33.0825 13.6675C32.8861 13.4718 32.6522 13.3176 32.3948 13.2143C32.1374 13.1111 31.8619 13.0607 31.5846 13.0664C31.3074 13.072 31.0341 13.1335 30.7812 13.2472C30.5282 13.3609 30.3008 13.5244 30.1125 13.728L20.5618 25.8967L14.806 20.1383C14.415 19.7739 13.8979 19.5756 13.3636 19.585C12.8292 19.5944 12.3194 19.8109 11.9415 20.1888C11.5637 20.5667 11.3472 21.0765 11.3378 21.6108C11.3283 22.1451 11.5267 22.6623 11.891 23.0533L19.1675 30.3325C19.3635 30.5282 19.597 30.6824 19.8539 30.7858C20.1108 30.8893 20.3859 30.94 20.6628 30.9349C20.9397 30.9298 21.2128 30.8689 21.4657 30.756C21.7186 30.643 21.9461 30.4803 22.1348 30.2775L33.1128 16.555C33.487 16.1659 33.6938 15.6455 33.6886 15.1056C33.6835 14.5658 33.4669 14.0494 33.0853 13.6675H33.0825Z" fill="#5BB84C"/>
</svg>
