<svg width="25" height="25" viewBox="0 0 25 25" fill="none" xmlns="http://www.w3.org/2000/svg">
<path d="M0 12.5C0 5.5957 5.5957 0 12.5 0C19.4043 0 25 5.5957 25 12.5C25 19.4043 19.4043 25 12.5 25C5.5957 25 0 19.4043 0 12.5ZM8.54492 10.1611L10.8447 12.4561L8.54492 14.7949C8.09082 15.2539 8.09082 15.9961 8.54492 16.4111C9.00391 16.9092 9.74609 16.9092 10.1611 16.4111L12.4561 14.1553L14.7949 16.4111C15.2539 16.9092 15.9961 16.9092 16.4111 16.4111C16.9092 15.9961 16.9092 15.2539 16.4111 14.7949L14.1553 12.4561L16.4111 10.1611C16.9092 9.74609 16.9092 9.00391 16.4111 8.54492C15.9961 8.09082 15.2539 8.09082 14.7949 8.54492L12.4561 10.8447L10.1611 8.54492C9.74609 8.09082 9.00391 8.09082 8.54492 8.54492C8.09082 9.00391 8.09082 9.74609 8.54492 10.1611Z" fill="#686868"/>
</svg>
