<svg width="59" height="59" viewBox="0 0 59 59" fill="none" xmlns="http://www.w3.org/2000/svg">
<circle cx="29.5" cy="29.5" r="29.5" fill="#18124D"/>
<path d="M35.1429 19.8125H24.8571C23.9089 19.8125 23.1429 18.9449 23.1429 17.875C23.1429 16.8051 23.9089 15.9375 24.8571 15.9375H35.1429C36.0911 15.9375 36.8571 16.8051 36.8571 17.875C36.8571 18.9449 36.0911 19.8125 35.1429 19.8125ZM40.2857 27.5625H19.7143C18.7677 27.5625 18 26.6967 18 25.625C18 24.5533 18.7677 23.6875 19.7143 23.6875H40.2857C41.2339 23.6875 42 24.5533 42 25.625C42 26.6967 41.2339 27.5625 40.2857 27.5625ZM18 41.125C18 40.0533 18.7677 39.1875 19.7143 39.1875H40.2857C41.2339 39.1875 42 40.0533 42 41.125C42 42.1967 41.2339 43.0625 40.2857 43.0625H19.7143C18.7677 43.0625 18 42.1967 18 41.125ZM35.1429 35.3125H24.8571C23.9089 35.3125 23.1429 34.4467 23.1429 33.375C23.1429 32.3033 23.9089 31.4375 24.8571 31.4375H35.1429C36.0911 31.4375 36.8571 32.3033 36.8571 33.375C36.8571 34.4467 36.0911 35.3125 35.1429 35.3125Z" fill="white"/>
</svg>
