<svg width="44" height="44" viewBox="0 0 44 44" fill="none" xmlns="http://www.w3.org/2000/svg">
<circle cx="22" cy="22" r="22" fill="#ECECEC"/>
<path d="M26.2857 13.875H17.7143C16.9241 13.875 16.2857 13.1473 16.2857 12.25C16.2857 11.3527 16.9241 10.625 17.7143 10.625H26.2857C27.0759 10.625 27.7143 11.3527 27.7143 12.25C27.7143 13.1473 27.0759 13.875 26.2857 13.875ZM30.5714 20.375H13.4286C12.6397 20.375 12 19.6488 12 18.75C12 17.8512 12.6397 17.125 13.4286 17.125H30.5714C31.3616 17.125 32 17.8512 32 18.75C32 19.6488 31.3616 20.375 30.5714 20.375ZM12 31.75C12 30.8512 12.6397 30.125 13.4286 30.125H30.5714C31.3616 30.125 32 30.8512 32 31.75C32 32.6488 31.3616 33.375 30.5714 33.375H13.4286C12.6397 33.375 12 32.6488 12 31.75ZM26.2857 26.875H17.7143C16.9241 26.875 16.2857 26.1488 16.2857 25.25C16.2857 24.3512 16.9241 23.625 17.7143 23.625H26.2857C27.0759 23.625 27.7143 24.3512 27.7143 25.25C27.7143 26.1488 27.0759 26.875 26.2857 26.875Z" fill="#686868"/>
</svg>
