<svg width="44" height="44" viewBox="0 0 44 44" fill="none" xmlns="http://www.w3.org/2000/svg">
<circle cx="22" cy="22" r="22" fill="#ECECEC"/>
<path d="M17.8392 31.9573C17.8392 32.2894 17.9338 32.6133 18.1144 32.8902L19.0071 34.2449C19.2805 34.6602 19.9014 34.998 20.3946 34.998H23.6066C24.0982 34.998 24.7191 34.6604 24.9925 34.2449L25.8821 32.8907C26.0351 32.6567 26.1607 32.2384 26.1607 31.9573L26.1673 29.8901H17.834L17.8392 31.9573ZM21.9694 8.00078C16.659 8.01726 12.834 12.3755 12.834 17.2339C12.834 19.5742 13.6902 21.7079 15.1027 23.3405C15.9637 24.334 17.3079 26.4112 17.8225 28.1631C17.8242 28.1763 17.8274 28.1903 17.829 28.2043H26.1728C26.1744 28.1903 26.1777 28.1771 26.1793 28.1631C26.6936 26.4112 28.0381 24.334 28.8991 23.3405C30.3132 21.7532 31.1673 19.6227 31.1673 17.2339C31.1673 12.1455 27.0475 7.98512 21.9694 8.00078ZM22.0007 13.0631C19.7022 13.0631 17.834 14.9557 17.834 17.2344C17.834 17.7454 17.459 18.1251 17.0007 18.1251C16.5423 18.1251 16.1673 17.7454 16.1673 17.2813C16.1673 14.0245 18.7845 11.4225 22.0007 11.4225C22.4613 11.4225 22.834 11.8001 22.834 12.2663C22.834 12.7325 22.459 13.0631 22.0007 13.0631Z" fill="#686868"/>
</svg>
