<svg width="59" height="59" viewBox="0 0 59 59" fill="none" xmlns="http://www.w3.org/2000/svg">
<circle cx="29.5" cy="29.5" r="29.5" fill="#18124D"/>
<path d="M24.5908 43.0556C24.5908 43.486 24.7137 43.9059 24.9485 44.2648L26.109 46.021C26.4645 46.5593 27.2716 46.9972 27.9128 46.9972H32.0884C32.7274 46.9972 33.5346 46.5596 33.8901 46.021L35.0465 44.2655C35.2455 43.9621 35.4087 43.4199 35.4087 43.0556L35.4173 40.3759H24.584L24.5908 43.0556ZM29.96 12.0008C23.0565 12.0222 18.084 17.6717 18.084 23.9696C18.084 27.0034 19.1971 29.7692 21.0334 31.8856C22.1526 33.1735 23.9001 35.8662 24.5691 38.1371C24.5712 38.1542 24.5754 38.1724 24.5776 38.1906H35.4244C35.4265 38.1724 35.4308 38.1553 35.4329 38.1371C36.1015 35.8662 37.8494 33.1735 38.9686 31.8856C40.8069 29.828 41.9173 27.0663 41.9173 23.9696C41.9173 17.3736 36.5616 11.9805 29.96 12.0008ZM30.0007 18.5631C27.0127 18.5631 24.584 21.0165 24.584 23.9703C24.584 24.6327 24.0965 25.1249 23.5007 25.1249C22.9048 25.1249 22.4173 24.6327 22.4173 24.0311C22.4173 19.8093 25.8197 16.4364 30.0007 16.4364C30.5995 16.4364 31.084 16.9258 31.084 17.5302C31.084 18.1345 30.5965 18.5631 30.0007 18.5631Z" fill="white"/>
</svg>
