<svg width="71" height="27" viewBox="0 0 71 27" fill="none" xmlns="http://www.w3.org/2000/svg">
<path d="M27.87 13.556C28.578 13.688 29.16 14.042 29.616 14.618C30.072 15.194 30.3 15.854 30.3 16.598C30.3 17.27 30.132 17.864 29.796 18.38C29.472 18.884 28.998 19.28 28.374 19.568C27.75 19.856 27.012 20 26.16 20H20.742V7.436H25.926C26.778 7.436 27.51 7.574 28.122 7.85C28.746 8.126 29.214 8.51 29.526 9.002C29.85 9.494 30.012 10.052 30.012 10.676C30.012 11.408 29.814 12.02 29.418 12.512C29.034 13.004 28.518 13.352 27.87 13.556ZM23.262 12.62H25.566C26.166 12.62 26.628 12.488 26.952 12.224C27.276 11.948 27.438 11.558 27.438 11.054C27.438 10.55 27.276 10.16 26.952 9.884C26.628 9.608 26.166 9.47 25.566 9.47H23.262V12.62ZM25.8 17.948C26.412 17.948 26.886 17.804 27.222 17.516C27.57 17.228 27.744 16.82 27.744 16.292C27.744 15.752 27.564 15.332 27.204 15.032C26.844 14.72 26.358 14.564 25.746 14.564H23.262V17.948H25.8ZM40.0124 17.606H35.0084L34.1804 20H31.5344L36.0524 7.418H38.9864L43.5044 20H40.8404L40.0124 17.606ZM39.3284 15.59L37.5104 10.334L35.6924 15.59H39.3284ZM44.5812 13.7C44.5812 12.464 44.8572 11.36 45.4092 10.388C45.9732 9.404 46.7352 8.642 47.6952 8.102C48.6672 7.55 49.7532 7.274 50.9532 7.274C52.3572 7.274 53.5872 7.634 54.6432 8.354C55.6992 9.074 56.4372 10.07 56.8572 11.342H53.9592C53.6712 10.742 53.2632 10.292 52.7352 9.992C52.2192 9.692 51.6192 9.542 50.9352 9.542C50.2032 9.542 49.5492 9.716 48.9732 10.064C48.4092 10.4 47.9652 10.88 47.6412 11.504C47.3292 12.128 47.1732 12.86 47.1732 13.7C47.1732 14.528 47.3292 15.26 47.6412 15.896C47.9652 16.52 48.4092 17.006 48.9732 17.354C49.5492 17.69 50.2032 17.858 50.9352 17.858C51.6192 17.858 52.2192 17.708 52.7352 17.408C53.2632 17.096 53.6712 16.64 53.9592 16.04H56.8572C56.4372 17.324 55.6992 18.326 54.6432 19.046C53.5992 19.754 52.3692 20.108 50.9532 20.108C49.7532 20.108 48.6672 19.838 47.6952 19.298C46.7352 18.746 45.9732 17.984 45.4092 17.012C44.8572 16.04 44.5812 14.936 44.5812 13.7ZM66.1016 20L61.5296 14.402V20H59.0096V7.436H61.5296V13.07L66.1016 7.436H69.1436L63.9596 13.664L69.2876 20H66.1016Z" fill="#7678ED"/>
<path d="M9.5 21L2 13.5L9.5 6" stroke="#7678ED" stroke-width="3" stroke-linecap="round" stroke-linejoin="round"/>
</svg>
