<svg width="160" height="160" viewBox="0 0 160 160" fill="none" xmlns="http://www.w3.org/2000/svg">
<path d="M98.5714 102.857C101.981 102.857 105.252 104.212 107.663 106.623C110.074 109.034 111.429 112.304 111.429 115.714V124.297L111.383 124.914C109.611 137.069 98.6972 142.909 80.3829 142.909C62.1372 142.909 51.0457 137.137 48.6514 125.126L48.5714 124.286V115.714C48.5714 112.304 49.926 109.034 52.3372 106.623C54.7484 104.212 58.0187 102.857 61.4286 102.857H98.5714ZM98.5714 111.429H61.4286C60.2919 111.429 59.2019 111.88 58.3981 112.684C57.5944 113.488 57.1429 114.578 57.1429 115.714V123.829C58.7429 130.686 66 134.337 80.3829 134.337C94.76 134.337 101.697 130.731 102.857 123.96V115.714C102.857 114.578 102.406 113.488 101.602 112.684C100.798 111.88 99.7081 111.429 98.5714 111.429ZM104.251 68.5657L135.714 68.5715C139.124 68.5715 142.394 69.926 144.806 72.3372C147.217 74.7484 148.571 78.0187 148.571 81.4286V90.0115L148.526 90.6286C146.754 102.783 135.84 108.623 117.526 108.623L115.726 108.606C114.038 104.538 110.963 101.201 107.046 99.1886C109.989 99.76 113.474 100.051 117.526 100.051C131.903 100.051 138.84 96.4457 140 89.6743V81.4286C140 80.292 139.548 79.2019 138.745 78.3981C137.941 77.5944 136.851 77.1429 135.714 77.1429H105.714C105.714 74.1372 105.2 71.2457 104.251 68.5657ZM24.2857 68.5715L55.7486 68.5657C54.9417 70.8485 54.4626 73.2342 54.3257 75.6515L54.2857 77.1429H24.2857C23.1491 77.1429 22.059 77.5944 21.2553 78.3981C20.4515 79.2019 20 80.292 20 81.4286V89.5429C21.6 96.4 28.8572 100.051 43.24 100.051C46.7943 100.051 49.8914 99.8286 52.5657 99.3943C48.8255 101.427 45.895 104.68 44.2629 108.611L43.2343 108.623C24.9943 108.623 13.9029 102.851 11.5086 90.84L11.4286 90V81.4286C11.4286 78.0187 12.7832 74.7484 15.1944 72.3372C17.6055 69.926 20.8758 68.5715 24.2857 68.5715ZM80 57.1429C85.3043 57.1429 90.3914 59.25 94.1422 63.0008C97.8929 66.7515 100 71.8386 100 77.1429C100 82.4472 97.8929 87.5343 94.1422 91.285C90.3914 95.0358 85.3043 97.1429 80 97.1429C74.6957 97.1429 69.6086 95.0358 65.8579 91.285C62.1072 87.5343 60 82.4472 60 77.1429C60 71.8386 62.1072 66.7515 65.8579 63.0008C69.6086 59.25 74.6957 57.1429 80 57.1429ZM80 65.7143C76.969 65.7143 74.0621 66.9184 71.9188 69.0617C69.7755 71.2049 68.5714 74.1118 68.5714 77.1429C68.5714 80.1739 69.7755 83.0808 71.9188 85.2241C74.0621 87.3674 76.969 88.5715 80 88.5715C83.0311 88.5715 85.938 87.3674 88.0812 85.2241C90.2245 83.0808 91.4286 80.1739 91.4286 77.1429C91.4286 74.1118 90.2245 71.2049 88.0812 69.0617C85.938 66.9184 83.0311 65.7143 80 65.7143ZM117.143 22.8572C122.447 22.8572 127.534 24.9643 131.285 28.715C135.036 32.4658 137.143 37.5528 137.143 42.8572C137.143 48.1615 135.036 53.2486 131.285 56.9993C127.534 60.75 122.447 62.8572 117.143 62.8572C111.839 62.8572 106.751 60.75 103.001 56.9993C99.25 53.2486 97.1429 48.1615 97.1429 42.8572C97.1429 37.5528 99.25 32.4658 103.001 28.715C106.751 24.9643 111.839 22.8572 117.143 22.8572ZM42.8572 22.8572C48.1615 22.8572 53.2486 24.9643 56.9993 28.715C60.75 32.4658 62.8572 37.5528 62.8572 42.8572C62.8572 48.1615 60.75 53.2486 56.9993 56.9993C53.2486 60.75 48.1615 62.8572 42.8572 62.8572C37.5528 62.8572 32.4658 60.75 28.715 56.9993C24.9643 53.2486 22.8572 48.1615 22.8572 42.8572C22.8572 37.5528 24.9643 32.4658 28.715 28.715C32.4658 24.9643 37.5528 22.8572 42.8572 22.8572ZM117.143 31.4286C114.112 31.4286 111.205 32.6327 109.062 34.776C106.918 36.9192 105.714 39.8261 105.714 42.8572C105.714 45.8882 106.918 48.7951 109.062 50.9384C111.205 53.0817 114.112 54.2857 117.143 54.2857C120.174 54.2857 123.081 53.0817 125.224 50.9384C127.367 48.7951 128.571 45.8882 128.571 42.8572C128.571 39.8261 127.367 36.9192 125.224 34.776C123.081 32.6327 120.174 31.4286 117.143 31.4286ZM42.8572 31.4286C39.8261 31.4286 36.9192 32.6327 34.7759 34.776C32.6327 36.9192 31.4286 39.8261 31.4286 42.8572C31.4286 45.8882 32.6327 48.7951 34.7759 50.9384C36.9192 53.0817 39.8261 54.2857 42.8572 54.2857C45.8882 54.2857 48.7951 53.0817 50.9384 50.9384C53.0816 48.7951 54.2857 45.8882 54.2857 42.8572C54.2857 39.8261 53.0816 36.9192 50.9384 34.776C48.7951 32.6327 45.8882 31.4286 42.8572 31.4286Z" fill="#F18701"/>
</svg>
