<svg width="48" height="14" viewBox="0 0 48 14" fill="none" xmlns="http://www.w3.org/2000/svg">
<path d="M4.634 0.436C5.954 0.436 7.112 0.694 8.108 1.21C9.116 1.726 9.89 2.464 10.43 3.424C10.982 4.372 11.258 5.476 11.258 6.736C11.258 7.996 10.982 9.1 10.43 10.048C9.89 10.984 9.116 11.71 8.108 12.226C7.112 12.742 5.954 13 4.634 13H0.242V0.436H4.634ZM4.544 10.858C5.864 10.858 6.884 10.498 7.604 9.778C8.324 9.058 8.684 8.044 8.684 6.736C8.684 5.428 8.324 4.408 7.604 3.676C6.884 2.932 5.864 2.56 4.544 2.56H2.762V10.858H4.544ZM18.9763 13.126C17.8003 13.126 16.7203 12.85 15.7363 12.298C14.7523 11.746 13.9723 10.984 13.3963 10.012C12.8203 9.028 12.5323 7.918 12.5323 6.682C12.5323 5.458 12.8203 4.36 13.3963 3.388C13.9723 2.404 14.7523 1.636 15.7363 1.084C16.7203 0.532 17.8003 0.256 18.9763 0.256C20.1643 0.256 21.2443 0.532 22.2163 1.084C23.2003 1.636 23.9743 2.404 24.5383 3.388C25.1143 4.36 25.4023 5.458 25.4023 6.682C25.4023 7.918 25.1143 9.028 24.5383 10.012C23.9743 10.984 23.2003 11.746 22.2163 12.298C21.2323 12.85 20.1523 13.126 18.9763 13.126ZM18.9763 10.876C19.7323 10.876 20.3983 10.708 20.9743 10.372C21.5503 10.024 22.0003 9.532 22.3243 8.896C22.6483 8.26 22.8103 7.522 22.8103 6.682C22.8103 5.842 22.6483 5.11 22.3243 4.486C22.0003 3.85 21.5503 3.364 20.9743 3.028C20.3983 2.692 19.7323 2.524 18.9763 2.524C18.2203 2.524 17.5483 2.692 16.9603 3.028C16.3843 3.364 15.9343 3.85 15.6103 4.486C15.2863 5.11 15.1243 5.842 15.1243 6.682C15.1243 7.522 15.2863 8.26 15.6103 8.896C15.9343 9.532 16.3843 10.024 16.9603 10.372C17.5483 10.708 18.2203 10.876 18.9763 10.876ZM38.0232 13H35.5032L29.7972 4.378V13H27.2772V0.417999H29.7972L35.5032 9.058V0.417999H38.0232V13ZM43.0335 2.47V5.62H47.2635V7.618H43.0335V10.948H47.8035V13H40.5135V0.417999H47.8035V2.47H43.0335Z" fill="#7678ED"/>
</svg>
