<svg width="684" height="170" viewBox="0 0 684 170" fill="none" xmlns="http://www.w3.org/2000/svg">
<g filter="url(#filter0_d_207_1090)">
<rect x="35" y="35" width="614" height="100" rx="5" fill="#F5F5F5"/>
</g>
<ellipse cx="83.2677" cy="85.0001" rx="25.6558" ry="25.6522" fill="#C4C4C4"/>
<rect x="135.884" y="61.9565" width="324.394" height="16.5217" rx="8.26087" fill="#C4C4C4"/>
<rect x="135.884" y="88.9131" width="161.762" height="16.5217" rx="8.26087" fill="#C4C4C4"/>
<g clip-path="url(#clip0_207_1090)">
<path d="M79.9753 78.3696V80.6522H87.4297V78.3696C87.4297 76.2677 85.7618 74.5652 83.7025 74.5652C81.6432 74.5652 79.9753 76.2677 79.9753 78.3696ZM76.9935 80.6522V78.3696C76.9935 74.589 79.9986 71.5217 83.7025 71.5217C87.4064 71.5217 90.4115 74.589 90.4115 78.3696V80.6522H91.157C92.8016 80.6522 94.1388 82.017 94.1388 83.6956V92.8261C94.1388 94.5047 92.8016 95.8696 91.157 95.8696H76.248C74.6034 95.8696 73.2662 94.5047 73.2662 92.8261V83.6956C73.2662 82.017 74.6034 80.6522 76.248 80.6522H76.9935Z" fill="white"/>
</g>
<defs>
<filter id="filter0_d_207_1090" x="0" y="0" width="684" height="170" filterUnits="userSpaceOnUse" color-interpolation-filters="sRGB">
<feFlood flood-opacity="0" result="BackgroundImageFix"/>
<feColorMatrix in="SourceAlpha" type="matrix" values="0 0 0 0 0 0 0 0 0 0 0 0 0 0 0 0 0 0 127 0" result="hardAlpha"/>
<feOffset/>
<feGaussianBlur stdDeviation="17.5"/>
<feComposite in2="hardAlpha" operator="out"/>
<feColorMatrix type="matrix" values="0 0 0 0 0 0 0 0 0 0 0 0 0 0 0 0 0 0 0.06 0"/>
<feBlend mode="normal" in2="BackgroundImageFix" result="effect1_dropShadow_207_1090"/>
<feBlend mode="normal" in="SourceGraphic" in2="effect1_dropShadow_207_1090" result="shape"/>
</filter>
<clipPath id="clip0_207_1090">
<rect width="20.8725" height="24.3478" fill="white" transform="translate(73.2662 71.5217)"/>
</clipPath>
</defs>
</svg>
