<svg width="720" height="176" viewBox="0 0 720 176" fill="none" xmlns="http://www.w3.org/2000/svg">
<rect width="650" height="106" transform="translate(35 35)" fill="#F5F5F5"/>
<path d="M151.115 66.8423V68.5913H144.69V66.8423H151.115ZM145.306 55.7944V68.5913H143.1V55.7944H145.306ZM156.802 68.7671C156.099 68.7671 155.463 68.6528 154.895 68.4243C154.332 68.1899 153.852 67.8647 153.453 67.4487C153.061 67.0327 152.759 66.5435 152.548 65.981C152.337 65.4185 152.231 64.812 152.231 64.1616V63.8101C152.231 63.0659 152.34 62.3921 152.557 61.7886C152.773 61.1851 153.075 60.6694 153.462 60.2417C153.849 59.8081 154.306 59.4771 154.833 59.2485C155.36 59.02 155.932 58.9058 156.547 58.9058C157.227 58.9058 157.821 59.02 158.331 59.2485C158.841 59.4771 159.263 59.7993 159.597 60.2153C159.937 60.6255 160.188 61.1147 160.353 61.6831C160.522 62.2515 160.607 62.8784 160.607 63.564V64.4692H153.26V62.9487H158.516V62.7817C158.504 62.4009 158.428 62.0435 158.287 61.7095C158.152 61.3755 157.944 61.106 157.663 60.9009C157.382 60.6958 157.007 60.5933 156.538 60.5933C156.187 60.5933 155.873 60.6694 155.598 60.8218C155.328 60.9683 155.103 61.1821 154.921 61.4634C154.739 61.7446 154.599 62.0845 154.499 62.4829C154.405 62.8755 154.358 63.3179 154.358 63.8101V64.1616C154.358 64.5776 154.414 64.9644 154.525 65.3218C154.643 65.6733 154.812 65.981 155.035 66.2446C155.258 66.5083 155.527 66.7163 155.844 66.8687C156.16 67.0151 156.521 67.0884 156.925 67.0884C157.435 67.0884 157.889 66.9858 158.287 66.7808C158.686 66.5757 159.031 66.2856 159.324 65.9106L160.44 66.9917C160.235 67.2905 159.969 67.5776 159.641 67.853C159.312 68.1226 158.911 68.3423 158.437 68.5122C157.968 68.6821 157.423 68.7671 156.802 68.7671ZM167.595 66.0161C167.595 65.8052 167.542 65.6147 167.437 65.4448C167.331 65.269 167.129 65.1108 166.83 64.9702C166.537 64.8296 166.104 64.7007 165.529 64.5835C165.025 64.4722 164.562 64.3403 164.141 64.188C163.725 64.0298 163.367 63.8394 163.068 63.6167C162.77 63.394 162.538 63.1304 162.374 62.8257C162.21 62.521 162.128 62.1694 162.128 61.771C162.128 61.3843 162.213 61.0181 162.383 60.6724C162.553 60.3267 162.796 60.022 163.112 59.7583C163.429 59.4946 163.812 59.2866 164.264 59.1343C164.721 58.9819 165.23 58.9058 165.793 58.9058C166.59 58.9058 167.272 59.0405 167.841 59.3101C168.415 59.5737 168.854 59.9341 169.159 60.3911C169.464 60.8423 169.616 61.3521 169.616 61.9204H167.498C167.498 61.6685 167.434 61.4341 167.305 61.2173C167.182 60.9946 166.994 60.8159 166.742 60.6812C166.49 60.5405 166.174 60.4702 165.793 60.4702C165.43 60.4702 165.128 60.5288 164.888 60.646C164.653 60.7573 164.478 60.9038 164.36 61.0854C164.249 61.2671 164.193 61.4663 164.193 61.6831C164.193 61.8413 164.223 61.9849 164.281 62.1138C164.346 62.2368 164.451 62.3511 164.598 62.4565C164.744 62.5562 164.943 62.6499 165.195 62.7378C165.453 62.8257 165.775 62.9106 166.162 62.9927C166.889 63.145 167.513 63.3413 168.034 63.5815C168.562 63.8159 168.966 64.1206 169.247 64.4956C169.528 64.8647 169.669 65.3335 169.669 65.9019C169.669 66.3237 169.578 66.7104 169.396 67.062C169.221 67.4077 168.963 67.7095 168.623 67.9673C168.283 68.2192 167.876 68.4155 167.401 68.5562C166.933 68.6968 166.405 68.7671 165.819 68.7671C164.958 68.7671 164.229 68.6147 163.631 68.3101C163.033 67.9995 162.579 67.604 162.269 67.1235C161.964 66.6372 161.812 66.1333 161.812 65.6118H163.859C163.883 66.0044 163.991 66.3179 164.185 66.5522C164.384 66.7808 164.63 66.9478 164.923 67.0532C165.222 67.1528 165.529 67.2026 165.846 67.2026C166.227 67.2026 166.546 67.1528 166.804 67.0532C167.062 66.9478 167.258 66.8071 167.393 66.6313C167.527 66.4497 167.595 66.2446 167.595 66.0161ZM176.858 66.0161C176.858 65.8052 176.806 65.6147 176.7 65.4448C176.595 65.269 176.393 65.1108 176.094 64.9702C175.801 64.8296 175.367 64.7007 174.793 64.5835C174.289 64.4722 173.826 64.3403 173.404 64.188C172.988 64.0298 172.631 63.8394 172.332 63.6167C172.033 63.394 171.802 63.1304 171.638 62.8257C171.474 62.521 171.392 62.1694 171.392 61.771C171.392 61.3843 171.477 61.0181 171.646 60.6724C171.816 60.3267 172.06 60.022 172.376 59.7583C172.692 59.4946 173.076 59.2866 173.527 59.1343C173.984 58.9819 174.494 58.9058 175.057 58.9058C175.854 58.9058 176.536 59.0405 177.104 59.3101C177.679 59.5737 178.118 59.9341 178.423 60.3911C178.728 60.8423 178.88 61.3521 178.88 61.9204H176.762C176.762 61.6685 176.697 61.4341 176.568 61.2173C176.445 60.9946 176.258 60.8159 176.006 60.6812C175.754 60.5405 175.438 60.4702 175.057 60.4702C174.693 60.4702 174.392 60.5288 174.151 60.646C173.917 60.7573 173.741 60.9038 173.624 61.0854C173.513 61.2671 173.457 61.4663 173.457 61.6831C173.457 61.8413 173.486 61.9849 173.545 62.1138C173.609 62.2368 173.715 62.3511 173.861 62.4565C174.008 62.5562 174.207 62.6499 174.459 62.7378C174.717 62.8257 175.039 62.9106 175.426 62.9927C176.152 63.145 176.776 63.3413 177.298 63.5815C177.825 63.8159 178.229 64.1206 178.511 64.4956C178.792 64.8647 178.933 65.3335 178.933 65.9019C178.933 66.3237 178.842 66.7104 178.66 67.062C178.484 67.4077 178.227 67.7095 177.887 67.9673C177.547 68.2192 177.14 68.4155 176.665 68.5562C176.196 68.6968 175.669 68.7671 175.083 68.7671C174.222 68.7671 173.492 68.6147 172.895 68.3101C172.297 67.9995 171.843 67.604 171.532 67.1235C171.228 66.6372 171.075 66.1333 171.075 65.6118H173.123C173.146 66.0044 173.255 66.3179 173.448 66.5522C173.647 66.7808 173.894 66.9478 174.187 67.0532C174.485 67.1528 174.793 67.2026 175.109 67.2026C175.49 67.2026 175.81 67.1528 176.067 67.0532C176.325 66.9478 176.521 66.8071 176.656 66.6313C176.791 66.4497 176.858 66.2446 176.858 66.0161ZM180.383 63.9419V63.7397C180.383 63.0542 180.482 62.4185 180.682 61.8325C180.881 61.2407 181.168 60.728 181.543 60.2944C181.924 59.855 182.387 59.5151 182.932 59.2749C183.482 59.0288 184.104 58.9058 184.795 58.9058C185.492 58.9058 186.113 59.0288 186.658 59.2749C187.209 59.5151 187.675 59.855 188.056 60.2944C188.437 60.728 188.727 61.2407 188.926 61.8325C189.125 62.4185 189.225 63.0542 189.225 63.7397V63.9419C189.225 64.6274 189.125 65.2632 188.926 65.8491C188.727 66.4351 188.437 66.9478 188.056 67.3872C187.675 67.8208 187.212 68.1606 186.667 68.4067C186.122 68.647 185.504 68.7671 184.812 68.7671C184.115 68.7671 183.491 68.647 182.94 68.4067C182.396 68.1606 181.933 67.8208 181.552 67.3872C181.171 66.9478 180.881 66.4351 180.682 65.8491C180.482 65.2632 180.383 64.6274 180.383 63.9419ZM182.501 63.7397V63.9419C182.501 64.3696 182.545 64.7739 182.633 65.1548C182.721 65.5356 182.858 65.8696 183.046 66.1567C183.233 66.4438 183.474 66.6694 183.767 66.8335C184.06 66.9976 184.408 67.0796 184.812 67.0796C185.205 67.0796 185.545 66.9976 185.832 66.8335C186.125 66.6694 186.365 66.4438 186.553 66.1567C186.74 65.8696 186.878 65.5356 186.966 65.1548C187.06 64.7739 187.106 64.3696 187.106 63.9419V63.7397C187.106 63.3179 187.06 62.9194 186.966 62.5444C186.878 62.1636 186.737 61.8267 186.544 61.5337C186.356 61.2407 186.116 61.0122 185.823 60.8481C185.536 60.6782 185.193 60.5933 184.795 60.5933C184.396 60.5933 184.051 60.6782 183.758 60.8481C183.471 61.0122 183.233 61.2407 183.046 61.5337C182.858 61.8267 182.721 62.1636 182.633 62.5444C182.545 62.9194 182.501 63.3179 182.501 63.7397ZM193.101 61.1118V68.5913H190.982V59.0815H192.978L193.101 61.1118ZM192.723 63.4849L192.037 63.4761C192.043 62.8022 192.137 62.1841 192.318 61.6216C192.506 61.0591 192.764 60.5757 193.092 60.1714C193.426 59.7671 193.824 59.4565 194.287 59.2397C194.75 59.0171 195.266 58.9058 195.834 58.9058C196.291 58.9058 196.704 58.9702 197.073 59.0991C197.448 59.2222 197.768 59.4243 198.031 59.7056C198.301 59.9868 198.506 60.353 198.646 60.8042C198.787 61.2495 198.857 61.7974 198.857 62.4478V68.5913H196.73V62.439C196.73 61.9819 196.663 61.6216 196.528 61.3579C196.399 61.0884 196.209 60.8979 195.957 60.7866C195.711 60.6694 195.403 60.6108 195.034 60.6108C194.671 60.6108 194.346 60.687 194.059 60.8394C193.771 60.9917 193.528 61.1997 193.329 61.4634C193.136 61.7271 192.986 62.0317 192.881 62.3774C192.775 62.7231 192.723 63.0923 192.723 63.4849Z" fill="black" fill-opacity="0.51"/>
<g filter="url(#filter0_d_207_1090)">
<rect x="35" y="35" width="650" height="106" rx="5" fill="#F5F5F5"/>
</g>
<ellipse cx="86.0978" cy="87.9999" rx="27.1601" ry="27.1913" fill="#C4C4C4"/>
<rect x="141.799" y="63.574" width="343.414" height="17.513" rx="8.75652" fill="#C4C4C4"/>
<rect x="141.799" y="92.1479" width="171.246" height="17.513" rx="8.75652" fill="#C4C4C4"/>
<g clip-path="url(#clip0_207_1090)">
<path d="M82.6124 80.9718V83.3914H90.5039V80.9718C90.5039 78.7438 88.7382 76.9392 86.5582 76.9392C84.3781 76.9392 82.6124 78.7438 82.6124 80.9718ZM79.4558 83.3914V80.9718C79.4558 76.9644 82.6371 73.7131 86.5582 73.7131C90.4793 73.7131 93.6606 76.9644 93.6606 80.9718V83.3914H94.4497C96.1908 83.3914 97.6063 84.8381 97.6063 86.6175V96.2957C97.6063 98.0751 96.1908 99.5218 94.4497 99.5218H78.6666C76.9256 99.5218 75.51 98.0751 75.51 96.2957V86.6175C75.51 84.8381 76.9256 83.3914 78.6666 83.3914H79.4558Z" fill="white"/>
</g>
<rect x="47.5481" y="49.4043" width="470.229" height="78.113" rx="8.5" stroke="#FF0000" stroke-width="3"/>
<defs>
<filter id="filter0_d_207_1090" x="0" y="0" width="720" height="176" filterUnits="userSpaceOnUse" color-interpolation-filters="sRGB">
<feFlood flood-opacity="0" result="BackgroundImageFix"/>
<feColorMatrix in="SourceAlpha" type="matrix" values="0 0 0 0 0 0 0 0 0 0 0 0 0 0 0 0 0 0 127 0" result="hardAlpha"/>
<feOffset/>
<feGaussianBlur stdDeviation="17.5"/>
<feComposite in2="hardAlpha" operator="out"/>
<feColorMatrix type="matrix" values="0 0 0 0 0 0 0 0 0 0 0 0 0 0 0 0 0 0 0.06 0"/>
<feBlend mode="normal" in2="BackgroundImageFix" result="effect1_dropShadow_207_1090"/>
<feBlend mode="normal" in="SourceGraphic" in2="effect1_dropShadow_207_1090" result="shape"/>
</filter>
<clipPath id="clip0_207_1090">
<rect width="22.0963" height="25.8087" fill="white" transform="translate(75.51 73.7131)"/>
</clipPath>
</defs>
</svg>
