<svg width="26" height="30" viewBox="0 0 26 30" fill="rgb(156 163 175)" xmlns="http://www.w3.org/2000/svg">
  <g clip-path="url(#clip0_206_1087)">
    <path d="M8.35714 8.4375V11.25H17.6429V8.4375C17.6429 5.84766 15.5652 3.75 13 3.75C10.4348 3.75 8.35714 5.84766 8.35714 8.4375ZM4.64286 11.25V8.4375C4.64286 3.7793 8.38616 0 13 0C17.6138 0 21.3571 3.7793 21.3571 8.4375V11.25H22.2857C24.3344 11.25 26 12.9316 26 15V26.25C26 28.3184 24.3344 30 22.2857 30H3.71429C1.66562 30 0 28.3184 0 26.25V15C0 12.9316 1.66562 11.25 3.71429 11.25H4.64286Z" />
  </g>
  <defs>
    <clipPath id="clip0_206_1087">
      <rect width="26" height="30" fill="rgb(156 163 175)"/>
    </clipPath>
  </defs>
</svg>
