<svg width="18" height="18" viewBox="0 0 18 18" fill="none" xmlns="http://www.w3.org/2000/svg">
<path d="M8.3125 8.3125L8.35008 8.29417C8.46763 8.23544 8.59954 8.21164 8.73019 8.22556C8.86085 8.23948 8.98478 8.29056 9.08731 8.37274C9.18983 8.45491 9.26667 8.56475 9.3087 8.68924C9.35074 8.81373 9.35622 8.94766 9.3245 9.07517L8.6755 11.6748C8.64355 11.8024 8.64886 11.9365 8.6908 12.0611C8.73274 12.1858 8.80955 12.2958 8.91213 12.3781C9.0147 12.4604 9.13872 12.5115 9.2695 12.5255C9.40027 12.5394 9.53229 12.5156 9.64992 12.4568L9.6875 12.4375M17.25 9C17.25 10.0834 17.0366 11.1562 16.622 12.1571C16.2074 13.1581 15.5997 14.0675 14.8336 14.8336C14.0675 15.5997 13.1581 16.2074 12.1571 16.622C11.1562 17.0366 10.0834 17.25 9 17.25C7.91659 17.25 6.8438 17.0366 5.84286 16.622C4.84193 16.2074 3.93245 15.5997 3.16637 14.8336C2.40029 14.0675 1.7926 13.1581 1.37799 12.1571C0.963392 11.1562 0.75 10.0834 0.75 9C0.75 6.81196 1.61919 4.71354 3.16637 3.16637C4.71354 1.61919 6.81196 0.75 9 0.75C11.188 0.75 13.2865 1.61919 14.8336 3.16637C16.3808 4.71354 17.25 6.81196 17.25 9ZM9 5.5625H9.00733V5.56983H9V5.5625Z" stroke="black" stroke-width="1.5" stroke-linecap="round" stroke-linejoin="round"/>
</svg>
