<svg width="48" height="24" viewBox="0 0 65 27" fill="none" xmlns="http://www.w3.org/2000/svg">
<path d="M11.988 20H9.468L3.762 11.378V20H1.242V7.418H3.762L9.468 16.058V7.418H11.988V20ZM16.9983 9.47V12.62H21.2283V14.618H16.9983V17.948H21.7683V20H14.4783V7.418H21.7683V9.47H16.9983ZM31.5824 20L28.8644 15.77L26.3984 20H23.5544L27.5144 13.664L23.5004 7.436H26.3984L29.1164 11.648L31.5644 7.436H34.4084L30.4664 13.754L34.4804 20H31.5824ZM44.9483 7.436V9.47H41.6003V20H39.0803V9.47H35.7323V7.436H44.9483Z" fill="#7678ED"/>
<path d="M56 6L63.5 13.5L56 21" stroke="#7678ED" stroke-width="3" stroke-linecap="round" stroke-linejoin="round"/>
</svg>
