<svg width="197" height="44" viewBox="0 0 197 44" fill="none" xmlns="http://www.w3.org/2000/svg">
    <mask id="path-1-inside-1_36_105" fill="white">
        <ellipse cx="34.0757" cy="10.4667" rx="10.421" ry="10.5777"
            transform="rotate(-90 34.0757 10.4667)" />
    </mask>
    <ellipse cx="34.0757" cy="10.4667" rx="10.421" ry="10.5777"
        transform="rotate(-90 34.0757 10.4667)" fill="white" />
    <path
        d="M34.0757 14.0456C32.3832 14.0456 30.6534 12.6394 30.6534 10.4667L58.6534 10.4667C58.6534 -3.21686 47.452 -13.9544 34.0757 -13.9544V14.0456ZM30.6534 10.4667C30.6534 8.29391 32.3832 6.8877 34.0757 6.8877V34.8877C47.452 34.8877 58.6534 24.1502 58.6534 10.4667L30.6534 10.4667ZM34.0757 6.8877C35.7682 6.8877 37.498 8.29391 37.498 10.4667H9.49805C9.49805 24.1502 20.6994 34.8877 34.0757 34.8877V6.8877ZM37.498 10.4667C37.498 12.6394 35.7682 14.0456 34.0757 14.0456V-13.9544C20.6994 -13.9544 9.49805 -3.21686 9.49805 10.4667H37.498Z"
        fill="white" mask="url(#path-1-inside-1_36_105)" />
    <mask id="path-3-inside-2_36_105" fill="white">
        <ellipse cx="34.0757" cy="33.579" rx="10.421" ry="10.5777"
            transform="rotate(-90 34.0757 33.579)" />
    </mask>
    <ellipse cx="34.0757" cy="33.579" rx="10.421" ry="10.5777"
        transform="rotate(-90 34.0757 33.579)" fill="white" />
    <path
        d="M34.0757 37.1579C32.3832 37.1579 30.6534 35.7517 30.6534 33.579H58.6534C58.6534 19.8954 47.4519 9.15792 34.0757 9.15792V37.1579ZM30.6534 33.579C30.6534 31.4062 32.3832 30 34.0757 30V58C47.4519 58 58.6534 47.2625 58.6534 33.579H30.6534ZM34.0757 30C35.7682 30 37.498 31.4062 37.498 33.579H9.49805C9.49805 47.2625 20.6995 58 34.0757 58V30ZM37.498 33.579C37.498 35.7517 35.7682 37.1579 34.0757 37.1579V9.15792C20.6995 9.15792 9.49805 19.8954 9.49805 33.579H37.498Z"
        fill="white" mask="url(#path-3-inside-2_36_105)" />
    <mask id="path-5-inside-3_36_105" fill="white">
        <ellipse cx="57.5728" cy="10.4212" rx="10.421" ry="10.5777"
            transform="rotate(-90 57.5728 10.4212)" />
    </mask>
    <ellipse cx="57.5728" cy="10.4212" rx="10.421" ry="10.5777"
        transform="rotate(-90 57.5728 10.4212)" fill="white" />
    <path
        d="M57.5728 14.0002C55.8803 14.0002 54.1504 12.594 54.1504 10.4212L82.1504 10.4212C82.1504 -3.26227 70.949 -13.9998 57.5728 -13.9998V14.0002ZM54.1504 10.4212C54.1504 8.24849 55.8803 6.84229 57.5728 6.84229V34.8423C70.949 34.8423 82.1504 24.1048 82.1504 10.4212L54.1504 10.4212ZM57.5728 6.84229C59.2653 6.84229 60.9951 8.24849 60.9951 10.4212H32.9951C32.9951 24.1048 44.1965 34.8423 57.5728 34.8423V6.84229ZM60.9951 10.4212C60.9951 12.594 59.2653 14.0002 57.5728 14.0002V-13.9998C44.1965 -13.9998 32.9951 -3.26227 32.9951 10.4212H60.9951Z"
        fill="white" mask="url(#path-5-inside-3_36_105)" />
    <mask id="path-7-inside-4_36_105" fill="white">
        <ellipse cx="10.5776" cy="33.579" rx="10.421" ry="10.5776"
            transform="rotate(-90 10.5776 33.579)" />
    </mask>
    <ellipse cx="10.5776" cy="33.579" rx="10.421" ry="10.5776"
        transform="rotate(-90 10.5776 33.579)" fill="white" />
    <path
        d="M10.5776 37.1579C8.88515 37.1579 7.1553 35.7517 7.1553 33.579H35.1553C35.1553 19.8955 23.9539 9.15792 10.5776 9.15792L10.5776 37.1579ZM7.1553 33.579C7.1553 31.4062 8.88515 30 10.5776 30V58C23.9539 58 35.1553 47.2625 35.1553 33.579H7.1553ZM10.5776 30C12.2702 30 14 31.4062 14 33.579H-14C-14 47.2625 -2.7986 58 10.5776 58V30ZM14 33.579C14 35.7517 12.2702 37.1579 10.5776 37.1579L10.5776 9.15792C-2.7986 9.15792 -14 19.8955 -14 33.579H14Z"
        fill="white" mask="url(#path-7-inside-4_36_105)" />
    <path
        d="M90.5109 35.0793C88.7415 35.0793 87.1559 34.7963 85.7542 34.2304C84.3524 33.6644 83.2265 32.8267 82.3762 31.7174C81.549 30.6081 81.1124 29.2724 81.0664 27.7103H87.3398C87.4317 28.5932 87.7419 29.2724 88.2704 29.7478C88.7989 30.2006 89.4883 30.427 90.3385 30.427C91.2118 30.427 91.9011 30.2345 92.4067 29.8497C92.9122 29.4422 93.165 28.8875 93.165 28.1857C93.165 27.5971 92.9582 27.1103 92.5446 26.7255C92.1539 26.3406 91.6599 26.0236 91.0624 25.7746C90.4879 25.5256 89.6607 25.2426 88.5806 24.9256C87.018 24.4502 85.7427 23.9748 84.7546 23.4994C83.7665 23.024 82.9162 22.3221 82.2039 21.3939C81.4915 20.4657 81.1353 19.2545 81.1353 17.7603C81.1353 15.5417 81.9511 13.8098 83.5826 12.5647C85.2142 11.2969 87.3398 10.663 89.9594 10.663C92.625 10.663 94.7736 11.2969 96.4051 12.5647C98.0366 13.8098 98.9098 15.553 99.0247 17.7943H92.648C92.602 17.0246 92.3148 16.4246 91.7862 15.9945C91.2577 15.5417 90.5798 15.3153 89.7526 15.3153C89.0402 15.3153 88.4657 15.5077 88.0291 15.8926C87.5925 16.2548 87.3742 16.7869 87.3742 17.4887C87.3742 18.2584 87.7419 18.8583 88.4772 19.2885C89.2126 19.7186 90.3615 20.1827 91.9241 20.6808C93.4867 21.2015 94.7506 21.6996 95.7157 22.175C96.7038 22.6504 97.554 23.3409 98.2664 24.2465C98.9788 25.152 99.3349 26.318 99.3349 27.7442C99.3349 29.1026 98.9788 30.3364 98.2664 31.4457C97.577 32.5551 96.5659 33.438 95.2331 34.0945C93.9003 34.7511 92.3263 35.0793 90.5109 35.0793Z"
        fill="white" />
    <path
        d="M114.716 34.8416L108.856 26.8953V34.8416H102.962V9.71211H108.856V23.6013L114.682 15.8926H121.955L113.958 25.4011L122.024 34.8416H114.716Z"
        fill="white" />
    <path
        d="M127.234 13.923C126.2 13.923 125.35 13.6287 124.683 13.0401C124.04 12.4288 123.718 11.6817 123.718 10.7988C123.718 9.89323 124.04 9.14613 124.683 8.55751C125.35 7.94625 126.2 7.64062 127.234 7.64062C128.245 7.64062 129.072 7.94625 129.716 8.55751C130.382 9.14613 130.715 9.89323 130.715 10.7988C130.715 11.6817 130.382 12.4288 129.716 13.0401C129.072 13.6287 128.245 13.923 127.234 13.923ZM130.164 15.8926V34.8416H124.27V15.8926H130.164Z"
        fill="white" />
    <path d="M140.33 9.71211V34.8416H134.435V9.71211H140.33Z" fill="white" />
    <path d="M150.495 9.71211V34.8416H144.601V9.71211H150.495Z" fill="white" />
    <path
        d="M157.731 13.923C156.697 13.923 155.847 13.6287 155.18 13.0401C154.537 12.4288 154.215 11.6817 154.215 10.7988C154.215 9.89323 154.537 9.14613 155.18 8.55751C155.847 7.94625 156.697 7.64062 157.731 7.64062C158.742 7.64062 159.569 7.94625 160.213 8.55751C160.879 9.14613 161.212 9.89323 161.212 10.7988C161.212 11.6817 160.879 12.4288 160.213 13.0401C159.569 13.6287 158.742 13.923 157.731 13.923ZM160.661 15.8926V34.8416H154.767V15.8926H160.661Z"
        fill="white" />
    <path
        d="M174.584 20.7148H171.412V34.8416H165.518V20.7148H163.381V15.8926H165.518V15.3493C165.518 13.0174 166.196 11.2516 167.552 10.0517C168.908 8.82918 170.895 8.21792 173.515 8.21792C173.952 8.21792 174.273 8.22924 174.48 8.25188V13.1759C173.354 13.108 172.561 13.2665 172.102 13.6513C171.642 14.0362 171.412 14.7267 171.412 15.7228V15.8926H174.584V20.7148Z"
        fill="white" />
    <path
        d="M197.001 15.8926L184.936 43.8407H178.594L183.006 34.1964L175.182 15.8926H181.765L186.212 27.7442L190.624 15.8926H197.001Z"
        fill="white" />
</svg>