<svg width="199" height="38" viewBox="0 0 199 38" fill="none" xmlns="http://www.w3.org/2000/svg">
    <path
        d="M3 16.5C1.61929 16.5 0.5 17.6193 0.5 19C0.5 20.3807 1.61929 21.5 3 21.5V16.5ZM197.768 20.7678C198.744 19.7915 198.744 18.2085 197.768 17.2322L181.858 1.32233C180.882 0.34602 179.299 0.34602 178.322 1.32233C177.346 2.29864 177.346 3.88155 178.322 4.85786L192.464 19L178.322 33.1421C177.346 34.1184 177.346 35.7014 178.322 36.6777C179.299 37.654 180.882 37.654 181.858 36.6777L197.768 20.7678ZM3 21.5H196V16.5H3V21.5Z"
        fill="white" />
</svg>