<svg width="17" height="17" viewBox="0 0 17 17" fill="none" xmlns="http://www.w3.org/2000/svg">
<path d="M8.5 17C3.80508 17 0 13.1949 0 8.5C0 3.80508 3.80508 0 8.5 0C13.1949 0 17 3.80508 17 8.5C17 13.1949 13.1949 17 8.5 17ZM7.70312 8.5C7.70312 8.76562 7.83594 9.01465 8.0584 9.13418L11.2459 11.2592C11.6111 11.5314 12.1059 11.4318 12.3217 11.0666C12.5939 10.7014 12.4943 10.2066 12.1291 9.96094L9.29688 8.075V3.98438C9.29688 3.54277 8.9416 3.1875 8.47012 3.1875C8.0584 3.1875 7.67324 3.54277 7.67324 3.98438L7.70312 8.5Z" fill="#686868"/>
</svg>
